<?xml version="1.0" encoding="UTF-8" standalone="no"?>
<svg
   version="1.1"
   width="550"
   height="270"
   id="svg6"
   sodipodi:docname="penguin-icon-white-with-text-tall.svg"
   inkscape:version="1.4 (86a8ad7, 2024-10-11)"
   xmlns:inkscape="http://www.inkscape.org/namespaces/inkscape"
   xmlns:sodipodi="http://sodipodi.sourceforge.net/DTD/sodipodi-0.dtd"
   xmlns="http://www.w3.org/2000/svg"
   xmlns:svg="http://www.w3.org/2000/svg">
  <defs
     id="defs6">
    <rect
       x="237.72466"
       y="0"
       width="474.55893"
       height="272.0033"
       id="rect2" />
    <rect
       x="237.27946"
       y="-0.44517726"
       width="582.29187"
       height="270.2226"
       id="rect1" />
    <rect
       x="235.49876"
       y="-0.89035451"
       width="464.76505"
       height="270.66776"
       id="rect6" />
  </defs>
  <sodipodi:namedview
     id="namedview6"
     pagecolor="#505050"
     bordercolor="#ffffff"
     borderopacity="1"
     inkscape:showpageshadow="0"
     inkscape:pageopacity="0"
     inkscape:pagecheckerboard="1"
     inkscape:deskcolor="#505050"
     inkscape:zoom="2.2462963"
     inkscape:cx="414.01484"
     inkscape:cy="196.99093"
     inkscape:window-width="2560"
     inkscape:window-height="1494"
     inkscape:window-x="2389"
     inkscape:window-y="-11"
     inkscape:window-maximized="1"
     inkscape:current-layer="svg6" />
  <path
     d="m 127.75,12.6875 c 0.71301,0.0049 1.42603,0.0098 2.16064,0.01489 C 135.49852,12.826469 139.97229,13.626846 145,16 c 0.87656,0.39832 1.75312,0.796641 2.65625,1.207031 C 151.65824,19.110277 154.96198,20.734998 158,24 c 1.17562,0.928125 1.17562,0.928125 2.375,1.875 4.4164,3.575182 8.27281,7.531258 11.625,12.125 0,0.66 0,1.32 0,2 0.5775,0.185625 1.155,0.37125 1.75,0.5625 2.42737,1.550821 3.0264,2.525886 4.375,5 1.46975,3.47282 1.46975,3.47282 3.875,4.4375 1.28906,1.996094 1.28906,1.996094 2.625,4.4375 0.44602,0.803086 0.89203,1.606172 1.35156,2.433594 C 187,59 187,59 187,61 c 0.66,0 1.32,0 2,0 0.83849,1.455376 1.67064,2.914404 2.5,4.375 0.46406,0.812109 0.92812,1.624219 1.40625,2.460937 C 194,70 194,70 194,72 c 0.66,0 1.32,0 2,0 1.00484,1.955853 2.00374,3.914762 3,5.875 0.55687,1.090547 1.11375,2.181094 1.6875,3.304687 C 202,84 202,84 202,86 c 0.66,0 1.32,0 2,0 0.84026,1.767555 1.67199,3.539173 2.5,5.3125 0.46406,0.986133 0.92812,1.972266 1.40625,2.988281 C 209,97 209,97 209,100 c 0.66,0 1.32,0 2,0 0.83719,2.29032 1.66989,4.58211 2.5,6.875 0.23848,0.65098 0.47695,1.30195 0.72266,1.97266 C 216,113.77344 216,113.77344 216,116 c 0.66,0 1.32,0 2,0 0.84179,2.72681 1.67363,5.45601 2.5,8.1875 0.23848,0.76893 0.47695,1.53785 0.72266,2.33008 1.17948,3.92598 2.10997,7.33291 1.77734,11.48242 0.66,0 1.32,0 2,0 3.82089,18.01277 7.62248,43.75504 -1,61 -0.66,0 -1.32,0 -2,0 -0.0825,0.825 -0.165,1.65 -0.25,2.5 -2.05534,9.59157 -7.98718,15.73718 -14.75,22.5 -1.09441,1.39992 -1.09441,1.39992 -2.21094,2.82812 -2.87117,3.47351 -6.21063,5.89575 -9.91406,8.42188 -0.62004,0.43312 -1.24008,0.86625 -1.87891,1.3125 -2.64534,1.84321 -5.31344,3.64907 -7.99609,5.4375 0.66,0.66 1.32,1.32 2,2 0.6875,3.0625 0.6875,3.0625 1,6 -1,1 -1,1 -4.96899,1.11353 -1.77207,-1.6e-4 -3.54413,-0.006 -5.31617,-0.0159 -0.93082,-0.001 -1.86163,-0.003 -2.82066,-0.004 -2.98559,-0.006 -5.97111,-0.0182 -8.95668,-0.0309 -2.01888,-0.005 -4.03776,-0.01 -6.05664,-0.0137 -4.96032,-0.0111 -9.92058,-0.0283 -14.88086,-0.0488 -0.33,-0.99 -0.66,-1.98 -1,-3 -1.65,0 -3.3,0 -5,0 -0.33,0.99 -0.66,1.98 -1,3 -13.53,0 -27.06,0 -41,0 -1,-3 -1,-3 0.375,-6.0625 0.53625,-0.96938 1.0725,-1.93875 1.625,-2.9375 0.33,-0.66 0.66,-1.32 1,-2 -1.01707,-0.70963 -1.01707,-0.70963 -2.054687,-1.43359 C 76.862069,223.58644 76.862069,223.58644 74,215.00023 73.401875,214.44335 72.80375,213.88648 72.1875,213.31273 68.678777,209.60351 66,205.17648 66,200.00023 c -0.66,0 -1.32,0 -2,0 -2.950257,-8.49674 -5.323483,-15.94249 -5,-25 -0.66,0 -1.32,0 -2,0 -0.02685,-2.31244 -0.04633,-4.62496 -0.0625,-6.9375 -0.0116,-1.28777 -0.0232,-2.57555 -0.03516,-3.90234 C 57,161.00023 57,161.00023 57.999996,160.00023 c 0.04093,-2.33297 0.04242,-4.66705 0,-7 0.66,0 1.32,0 2,0 -0.06188,-0.95004 -0.12375,-1.90008 -0.1875,-2.87891 0,-4.97827 1.609541,-9.38513 3.1875,-14.05859 0.286172,-0.87463 0.572344,-1.74926 0.867188,-2.65039 0.701825,-2.14057 1.412896,-4.27757 2.132812,-6.41211 0.66,0 1.32,0 2,0 0.0825,-0.80437 0.165,-1.60875 0.25,-2.4375 0.951967,-4.52184 2.765802,-8.40953 4.75,-12.5625 0.66,0 1.32,0 2,0 0.112148,-0.85852 0.224297,-1.71703 0.339844,-2.60156 0.686638,-3.53477 1.793103,-6.47447 3.222656,-9.77344 0.455039,-1.059609 0.910078,-2.119219 1.378906,-3.210938 0.349336,-0.79664 0.698672,-1.593281 1.058594,-2.414062 0.66,0 1.32,0 2,0 0.181758,-0.629063 0.363516,-1.258125 0.550781,-1.90625 1.604745,-5.464361 3.385074,-10.785947 5.449219,-16.09375 0.66,0 1.32,0 2,0 0,-6.6 0,-13.2 0,-20 -0.66,0 -1.32,0 -2,0 -2,-3 -2,-3 -2,-6 -0.71543,-0.286172 -1.430859,-0.572344 -2.167969,-0.867188 -4.277343,-1.710937 -8.554687,-3.421875 -12.832031,-5.132812 0,-0.66 0,-1.32 0,-2 -4.29,-0.66 -8.58,-1.32 -13,-2 0,-0.66 0,-1.32 0,-2 2.64,-0.66 5.28,-1.32 8,-2 0,-0.66 0,-1.32 0,-2 0.68707,-0.193359 1.374141,-0.386719 2.082031,-0.585938 0.901055,-0.26039 1.80211,-0.520781 2.730469,-0.789062 0.89332,-0.255234 1.786641,-0.510469 2.707031,-0.773438 2.685148,-0.804229 2.685148,-0.804229 5.480469,-2.851562 1.32,0 2.64,0 4,0 0,-0.66 0,-1.32 0,-2 9.201183,-4.589452 18.048114,-8.675706 28.046874,-11.210937 2.91331,-0.693636 2.91331,-0.693636 5.35938,-1.871094 3.44681,-1.22011 6.73182,-1.259971 10.34375,-1.230699 z"
     fill="#010101"
     id="path1" />
  <path
     d="m 167,93 c 0,0.66 0,1.32 0,2 0.68062,0.04125 1.36125,0.0825 2.0625,0.125 4.1405,1.233339 7.01948,3.721653 9.9375,6.875 2.59216,7.77649 1.36478,15.70964 -2,23 -0.66,0 -1.32,0 -2,0 -0.22559,1.01578 -0.45117,2.03156 -0.68359,3.07812 -1.23228,4.31243 -3.54434,7.26397 -6.37891,10.67188 -3.57059,4.26039 -3.57059,4.26039 -5.9375,9.25 -0.78375,0.61875 -1.5675,1.2375 -2.375,1.875 -2.7211,2.2028 -3.92429,4.11011 -5.625,7.125 -1.5625,1.8125 -1.5625,1.8125 -3,3 -0.66,0 -1.32,0 -2,0 -0.22688,0.71543 -0.45375,1.43086 -0.6875,2.16797 -1.59285,3.43696 -3.61385,5.49687 -6.3125,8.14453 -0.88688,0.88301 -1.77375,1.76602 -2.6875,2.67578 C 137,175 137,175 135,175 c 0,0.66 0,1.32 0,2 1.98,0 3.96,0 6,0 0,-0.66 0,-1.32 0,-2 0.5576,-0.0752 1.1152,-0.15034 1.6897,-0.22778 C 154.21504,173.20591 165.62926,171.46279 177,169 c 0,-0.66 0,-1.32 0,-2 0.70125,-0.29133 1.4025,-0.58266 2.125,-0.88281 5.66449,-2.44743 10.48783,-5.00129 15.21875,-8.98047 C 196,156 196,156 199,156 c 0,-0.66 0,-1.32 0,-2 0.66,0 1.32,0 2,0 0.495,-0.99 0.495,-0.99 1,-2 1.59162,5.57067 2.20675,10.21102 2,16 0.66,0 1.32,0 2,0 0.0249,4.69563 0.0429,9.39123 0.0549,14.08691 0.005,1.59441 0.0118,3.18882 0.0205,4.78321 0.0123,2.30372 0.0178,4.60738 0.0222,6.91113 0.005,0.70242 0.0103,1.40484 0.0156,2.12854 5.3e-4,4.77742 -0.44304,9.359 -1.1133,14.09021 -0.66,0 -1.32,0 -2,0 -0.0735,0.89139 -0.0735,0.89139 -0.14844,1.80078 -0.15872,1.7597 -0.33895,3.51753 -0.53515,5.27344 -0.20706,1.91467 -0.36783,3.83505 -0.47656,5.75781 -0.43903,4.42116 -0.95225,7.20402 -4.01954,10.53516 C 193.77116,236.64736 189.48538,239.3587 185,242 c 0.66,0.66 1.32,1.32 2,2 0.6875,3.0625 0.6875,3.0625 1,6 -1,1 -1,1 -4.96899,1.11353 -1.77207,-1.6e-4 -3.54413,-0.006 -5.31617,-0.0159 -0.93082,-0.001 -1.86163,-0.003 -2.82066,-0.004 -2.98559,-0.006 -5.97111,-0.0182 -8.95668,-0.0309 -2.01888,-0.005 -4.03776,-0.01 -6.05664,-0.0137 -4.96032,-0.0112 -9.92058,-0.0285 -14.88086,-0.049 -0.33,-0.99 -0.66,-1.98 -1,-3 -1.65,0 -3.3,0 -5,0 -0.33,0.99 -0.66,1.98 -1,3 -13.53,0 -27.06,0 -41,0 -1,-3 -1,-3 0.375,-6.0625 0.53625,-0.96938 1.0725,-1.93875 1.625,-2.9375 0.33,-0.66 0.66,-1.32 1,-2 -0.724453,-0.49629 -1.448906,-0.99258 -2.195312,-1.50391 C 92.085048,234.47709 87.002714,230.7817 83,225 c 0.359375,-2.20313 0.359375,-2.20313 1,-4 -0.66,0 -1.32,0 -2,0 -4.423404,-19.95798 -8.529045,-53.94191 1,-73 1.75,0.1875 1.75,0.1875 4,1 0.515625,0.7425 1.03125,1.485 1.5625,2.25 3.66538,4.1353 8.384904,5.70283 13.4375,7.75 0,0.66 0,1.32 0,2 8.28635,1.92362 16.63572,3.46056 25,5 -0.36094,-0.5543 -0.72187,-1.10859 -1.09375,-1.67969 -0.46406,-0.72445 -0.92812,-1.4489 -1.40625,-2.19531 -0.46406,-0.7193 -0.92812,-1.43859 -1.40625,-2.17969 C 122,158 122,158 122,156 c -0.66,0 -1.32,0 -2,0 -1.36719,-1.97656 -1.36719,-1.97656 -2.875,-4.625 -1.70096,-2.95387 -3.38027,-5.72954 -5.375,-8.5 -2.19378,-3.60407 -2.89753,-6.75473 -3.75,-10.875 -0.66,0 -1.32,0 -2,0 -3.97685,-11.48035 -5.33889,-20.02673 -1,-31.6875 3.16102,-3.654931 7.43108,-4.967373 12,-6.3125 0.99,0 1.98,0 3,0 0,-0.66 0,-1.32 0,-2 34.25373,-5.373134 34.25373,-5.373134 47,1 z"
     fill="#fdfdfc"
     id="path2" />
  <path
     d="m 185.0625,241.8125 c 2.4054,2.71578 2.77806,4.60015 2.9375,8.1875 -1,1 -1,1 -4.96899,1.11353 -1.77207,-1.6e-4 -3.54413,-0.006 -5.31617,-0.0159 -0.93082,-0.001 -1.86163,-0.003 -2.82066,-0.004 -2.98559,-0.006 -5.97111,-0.0182 -8.95668,-0.0309 -2.01888,-0.005 -4.03776,-0.01 -6.05664,-0.0137 -4.96032,-0.0113 -9.92058,-0.0285 -14.88086,-0.049 0,-4.28861 0.13495,-4.66731 2.8125,-7.625 0.7831,-0.88559 0.7831,-0.88559 1.58203,-1.78907 8.79045,-8.6835 25.98705,-5.50296 35.66797,0.22657 z"
     fill="#f96b38"
     id="path3" />
  <path
     d="m 133,240 c 2.46486,2.40964 4.54417,4.86048 6,8 -0.33,0.99 -0.66,1.98 -1,3 -13.53,0 -27.06,0 -41,0 -1,-3 -1,-3 0.125,-6 2.846285,-4.55406 6.50329,-6.31881 11.66406,-7.64844 C 116.61973,236.1064 126.01059,235.74192 133,240 Z"
     fill="#f96b38"
     id="path4" />
  <path
     d="m 133,30 c 2.4375,1.4375 2.4375,1.4375 4,4 0.48739,3.068315 0.62363,5.949246 0,9 -1.40234,1.777344 -1.40234,1.777344 -3,3 -0.66,0 -1.32,0 -2,0 0,0.66 0,1.32 0,2 -3.93546,0.457612 -5.57245,0.297427 -8.875,-2 -2.91377,-4.113563 -2.67741,-6.02835 -2.125,-11 0.8125,-2.4375 0.8125,-2.4375 2,-4 3.59264,-1.197548 6.22717,-1.33095 10,-1 z"
     fill="#f2f2f2"
     id="path5" />
  <path
     d="m 83,148 c 1.32,0.33 2.64,0.66 4,1 0,0.66 0,1.32 0,2 -0.99,0.33 -1.98,0.66 -3,1 -0.733238,2.01508 -0.733238,2.01508 -1,4 -0.66,0 -1.32,0 -2,0 0.66,-2.64 1.32,-5.28 2,-8 z"
     fill="#bcbcbc"
     id="path6" />
  <text
     xml:space="preserve"
     id="text1"
     style="font-style:normal;font-variant:normal;font-weight:normal;font-stretch:normal;font-size:120px;line-height:0.9;font-family:Gabriola;-inkscape-font-specification:'Gabriola, Normal';font-variant-ligatures:normal;font-variant-caps:normal;font-variant-numeric:normal;font-variant-east-asian:normal;text-align:start;writing-mode:lr-tb;direction:ltr;white-space:pre;shape-inside:url(#rect2);fill:#000000"
     transform="translate(7.5680131,29.651369)"><tspan
       x="237.72461"
       y="76.031249"
       id="tspan1">Ticket
</tspan><tspan
       x="237.72461"
       y="184.03125"
       id="tspan3">Penguin</tspan></text>
</svg>
