<?xml version="1.0" encoding="UTF-8"?>
<svg version="1.1" xmlns="http://www.w3.org/2000/svg" width="270" height="270">
<path d="M0 0 C0.7130127 0.00491455 1.42602539 0.0098291 2.16064453 0.01489258 C7.74852438 0.13896871 12.22228996 0.93934582 17.25 3.3125 C18.1265625 3.71082031 19.003125 4.10914063 19.90625 4.51953125 C23.90824045 6.42277671 27.21197637 8.0474976 30.25 11.3125 C31.425625 12.240625 31.425625 12.240625 32.625 13.1875 C37.04140124 16.76268196 40.89781018 20.7187584 44.25 25.3125 C44.25 25.9725 44.25 26.6325 44.25 27.3125 C44.8275 27.498125 45.405 27.68375 46 27.875 C48.42737174 29.42582083 49.02640513 30.4008861 50.375 32.875 C51.84475241 36.34781974 51.84475241 36.34781974 54.25 37.3125 C55.5390625 39.30859375 55.5390625 39.30859375 56.875 41.75 C57.32101563 42.55308594 57.76703125 43.35617188 58.2265625 44.18359375 C59.25 46.3125 59.25 46.3125 59.25 48.3125 C59.91 48.3125 60.57 48.3125 61.25 48.3125 C62.08848804 49.76787568 62.92063934 51.22690373 63.75 52.6875 C64.2140625 53.49960938 64.678125 54.31171875 65.15625 55.1484375 C66.25 57.3125 66.25 57.3125 66.25 59.3125 C66.91 59.3125 67.57 59.3125 68.25 59.3125 C69.25484204 61.26835325 70.25373805 63.22726237 71.25 65.1875 C71.806875 66.27804688 72.36375 67.36859375 72.9375 68.4921875 C74.25 71.3125 74.25 71.3125 74.25 73.3125 C74.91 73.3125 75.57 73.3125 76.25 73.3125 C77.09026396 75.08005526 77.92198722 76.85167263 78.75 78.625 C79.2140625 79.61113281 79.678125 80.59726563 80.15625 81.61328125 C81.25 84.3125 81.25 84.3125 81.25 87.3125 C81.91 87.3125 82.57 87.3125 83.25 87.3125 C84.08719383 89.60282311 84.9198929 91.89460957 85.75 94.1875 C85.98847656 94.83847656 86.22695312 95.48945312 86.47265625 96.16015625 C88.25 101.0859375 88.25 101.0859375 88.25 103.3125 C88.91 103.3125 89.57 103.3125 90.25 103.3125 C91.09179395 106.03931111 91.92363069 108.76851443 92.75 111.5 C92.98847656 112.26892578 93.22695312 113.03785156 93.47265625 113.83007812 C94.65213617 117.75606128 95.5826262 121.16298821 95.25 125.3125 C95.91 125.3125 96.57 125.3125 97.25 125.3125 C101.07089116 143.32527262 104.87248137 169.06753726 96.25 186.3125 C95.59 186.3125 94.93 186.3125 94.25 186.3125 C94.1675 187.1375 94.085 187.9625 94 188.8125 C91.94466356 198.40407006 86.01281621 204.54968379 79.25 211.3125 C78.15558594 212.71242187 78.15558594 212.71242187 77.0390625 214.140625 C74.16789046 217.61412594 70.82842734 220.03637272 67.125 222.5625 C66.50496094 222.995625 65.88492188 223.42875 65.24609375 223.875 C62.60074878 225.71820811 59.9326524 227.52406507 57.25 229.3125 C57.91 229.9725 58.57 230.6325 59.25 231.3125 C59.9375 234.375 59.9375 234.375 60.25 237.3125 C59.25 238.3125 59.25 238.3125 55.28100586 238.42602539 C53.50894393 238.4258662 51.7368774 238.42016785 49.96484375 238.41015625 C49.03402481 238.4087413 48.10320587 238.40732635 47.1441803 238.40586853 C44.15858809 238.40025172 41.17306971 238.3876964 38.1875 238.375 C36.16862087 238.36998716 34.14974057 238.36542388 32.13085938 238.36132812 C27.17054428 238.35027683 22.21028468 238.33300095 17.25 238.3125 C16.92 237.3225 16.59 236.3325 16.25 235.3125 C14.6 235.3125 12.95 235.3125 11.25 235.3125 C10.92 236.3025 10.59 237.2925 10.25 238.3125 C-3.28 238.3125 -16.81 238.3125 -30.75 238.3125 C-31.75 235.3125 -31.75 235.3125 -30.375 232.25 C-29.83875 231.280625 -29.3025 230.31125 -28.75 229.3125 C-28.42 228.6525 -28.09 227.9925 -27.75 227.3125 C-28.76707031 226.60287109 -28.76707031 226.60287109 -29.8046875 225.87890625 C-50.88793103 210.8987069 -50.88793103 210.8987069 -53.75 202.3125 C-54.348125 201.755625 -54.94625 201.19875 -55.5625 200.625 C-59.07122296 196.91577858 -61.75 192.48875134 -61.75 187.3125 C-62.41 187.3125 -63.07 187.3125 -63.75 187.3125 C-66.70025669 178.81576072 -69.07348251 171.37001024 -68.75 162.3125 C-69.41 162.3125 -70.07 162.3125 -70.75 162.3125 C-70.77685412 160.00006208 -70.79632841 157.6875373 -70.8125 155.375 C-70.82410156 154.08722656 -70.83570313 152.79945313 -70.84765625 151.47265625 C-70.75 148.3125 -70.75 148.3125 -69.75 147.3125 C-69.70907063 144.97952567 -69.70758277 142.64544775 -69.75 140.3125 C-69.09 140.3125 -68.43 140.3125 -67.75 140.3125 C-67.811875 139.36246094 -67.87375 138.41242188 -67.9375 137.43359375 C-67.9375 132.45531994 -66.32795858 128.04845841 -64.75 123.375 C-64.46382812 122.50037109 -64.17765625 121.62574219 -63.8828125 120.72460938 C-63.18098661 118.5840404 -62.46991611 116.4470385 -61.75 114.3125 C-61.09 114.3125 -60.43 114.3125 -59.75 114.3125 C-59.6675 113.508125 -59.585 112.70375 -59.5 111.875 C-58.54803325 107.35315795 -56.73419821 103.46547299 -54.75 99.3125 C-54.09 99.3125 -53.43 99.3125 -52.75 99.3125 C-52.63785156 98.45398438 -52.52570313 97.59546875 -52.41015625 96.7109375 C-51.72351836 93.1761744 -50.61705313 90.23646876 -49.1875 86.9375 C-48.73246094 85.87789063 -48.27742188 84.81828125 -47.80859375 83.7265625 C-47.45925781 82.92992188 -47.10992187 82.13328125 -46.75 81.3125 C-46.09 81.3125 -45.43 81.3125 -44.75 81.3125 C-44.56824219 80.6834375 -44.38648437 80.054375 -44.19921875 79.40625 C-42.59447416 73.94188892 -40.81414546 68.62030262 -38.75 63.3125 C-38.09 63.3125 -37.43 63.3125 -36.75 63.3125 C-36.75 56.7125 -36.75 50.1125 -36.75 43.3125 C-37.41 43.3125 -38.07 43.3125 -38.75 43.3125 C-40.75 40.3125 -40.75 40.3125 -40.75 37.3125 C-41.46542969 37.02632812 -42.18085937 36.74015625 -42.91796875 36.4453125 C-47.1953125 34.734375 -51.47265625 33.0234375 -55.75 31.3125 C-55.75 30.6525 -55.75 29.9925 -55.75 29.3125 C-60.04 28.6525 -64.33 27.9925 -68.75 27.3125 C-68.75 26.6525 -68.75 25.9925 -68.75 25.3125 C-66.11 24.6525 -63.47 23.9925 -60.75 23.3125 C-60.75 22.6525 -60.75 21.9925 -60.75 21.3125 C-60.06292969 21.11914062 -59.37585938 20.92578125 -58.66796875 20.7265625 C-57.76691406 20.46617188 -56.86585937 20.20578125 -55.9375 19.9375 C-55.04417969 19.68226562 -54.15085937 19.42703125 -53.23046875 19.1640625 C-50.54532104 18.35983339 -50.54532104 18.35983339 -47.75 16.3125 C-46.43 16.3125 -45.11 16.3125 -43.75 16.3125 C-43.75 15.6525 -43.75 14.9925 -43.75 14.3125 C-34.54881742 9.72304816 -25.70188953 5.63679426 -15.703125 3.1015625 C-12.78981881 2.40792647 -12.78981881 2.40792647 -10.34375 1.23046875 C-6.89693971 0.0105886 -3.61192654 -0.02927213 0 0 Z " fill="#010101" transform="translate(127.75,12.6875)"/>
<path d="M0 0 C0 0.66 0 1.32 0 2 C0.680625 2.04125 1.36125 2.0825 2.0625 2.125 C6.20299676 3.35833946 9.08197692 5.84665248 12 9 C14.5921643 16.77649291 13.36478024 24.70964282 10 32 C9.34 32 8.68 32 8 32 C7.77441406 33.01578125 7.54882812 34.0315625 7.31640625 35.078125 C6.08412947 39.39055087 3.77207479 42.34209537 0.9375 45.75 C-2.63309492 50.0103892 -2.63309492 50.0103892 -5 55 C-5.78375 55.61875 -6.5675 56.2375 -7.375 56.875 C-10.09610295 59.07779763 -11.29929265 60.98510969 -13 64 C-14.5625 65.8125 -14.5625 65.8125 -16 67 C-16.66 67 -17.32 67 -18 67 C-18.226875 67.71542969 -18.45375 68.43085938 -18.6875 69.16796875 C-20.28035224 72.60492671 -22.30134973 74.66484167 -25 77.3125 C-25.886875 78.19550781 -26.77375 79.07851562 -27.6875 79.98828125 C-30 82 -30 82 -32 82 C-32 82.66 -32 83.32 -32 84 C-30.02 84 -28.04 84 -26 84 C-26 83.34 -26 82.68 -26 82 C-25.4423999 81.92483154 -24.8847998 81.84966309 -24.31030273 81.7722168 C-12.78496058 80.20590682 -1.37073603 78.46278614 10 76 C10 75.34 10 74.68 10 74 C10.70125 73.70867187 11.4025 73.41734375 12.125 73.1171875 C17.789489 70.66975883 22.61282777 68.11590546 27.34375 64.13671875 C29 63 29 63 32 63 C32 62.34 32 61.68 32 61 C32.66 61 33.32 61 34 61 C34.495 60.01 34.495 60.01 35 59 C36.59162079 64.57067277 37.20674944 69.21101581 37 75 C37.66 75 38.32 75 39 75 C39.02488717 79.69563418 39.04294796 84.39122919 39.05493164 89.08691406 C39.05993231 90.68132192 39.06673501 92.27572525 39.07543945 93.87011719 C39.0876933 96.17383954 39.0932711 98.47750078 39.09765625 100.78125 C39.10281754 101.48366821 39.10797882 102.18608643 39.11329651 102.90979004 C39.11382708 107.68720941 38.67025518 112.26878694 38 117 C37.34 117 36.68 117 36 117 C35.92652344 117.89138672 35.92652344 117.89138672 35.8515625 118.80078125 C35.69283405 120.56047765 35.5126115 122.31830598 35.31640625 124.07421875 C35.10934581 125.98888874 34.94857923 127.90926975 34.83984375 129.83203125 C34.40081965 134.25318948 33.88759847 137.03604898 30.8203125 140.3671875 C26.77115627 143.6473645 22.48538228 146.35869769 18 149 C18.66 149.66 19.32 150.32 20 151 C20.6875 154.0625 20.6875 154.0625 21 157 C20 158 20 158 16.03100586 158.11352539 C14.25894393 158.1133662 12.4868774 158.10766785 10.71484375 158.09765625 C9.78402481 158.0962413 8.85320587 158.09482635 7.8941803 158.09336853 C4.90858809 158.08775172 1.92306971 158.0751964 -1.0625 158.0625 C-3.08137913 158.05748716 -5.10025943 158.05292388 -7.11914062 158.04882812 C-12.07945572 158.03777683 -17.03971532 158.02050095 -22 158 C-22.33 157.01 -22.66 156.02 -23 155 C-24.65 155 -26.3 155 -28 155 C-28.33 155.99 -28.66 156.98 -29 158 C-42.53 158 -56.06 158 -70 158 C-71 155 -71 155 -69.625 151.9375 C-69.08875 150.968125 -68.5525 149.99875 -68 149 C-67.67 148.34 -67.34 147.68 -67 147 C-67.72445312 146.50371094 -68.44890625 146.00742188 -69.1953125 145.49609375 C-74.91495245 141.47709341 -79.99728634 137.78169751 -84 132 C-83.640625 129.796875 -83.640625 129.796875 -83 128 C-83.66 128 -84.32 128 -85 128 C-89.4234037 108.04202377 -93.52904468 74.05808936 -84 55 C-82.25 55.1875 -82.25 55.1875 -80 56 C-79.484375 56.7425 -78.96875 57.485 -78.4375 58.25 C-74.77211986 62.38530067 -70.05259634 63.95282735 -65 66 C-65 66.66 -65 67.32 -65 68 C-56.71365072 69.9236168 -48.36428441 71.46056115 -40 73 C-40.3609375 72.44570312 -40.721875 71.89140625 -41.09375 71.3203125 C-41.5578125 70.59585938 -42.021875 69.87140625 -42.5 69.125 C-42.9640625 68.40570313 -43.428125 67.68640625 -43.90625 66.9453125 C-45 65 -45 65 -45 63 C-45.66 63 -46.32 63 -47 63 C-48.3671875 61.0234375 -48.3671875 61.0234375 -49.875 58.375 C-51.57596281 55.42113287 -53.25526608 52.64546377 -55.25 49.875 C-57.44378429 46.27092581 -58.14753139 43.12026496 -59 39 C-59.66 39 -60.32 39 -61 39 C-64.97685406 27.5196477 -66.3388905 18.97326822 -62 7.3125 C-58.83897892 3.65756938 -54.56892297 2.34512699 -50 1 C-49.01 1 -48.02 1 -47 1 C-47 0.34 -47 -0.32 -47 -1 C-12.74626866 -6.37313433 -12.74626866 -6.37313433 0 0 Z " fill="#FDFDFC" transform="translate(167,93)"/>
<path d="M0 0 C2.40540221 2.71577669 2.77806229 4.60015146 2.9375 8.1875 C1.9375 9.1875 1.9375 9.1875 -2.03149414 9.30102539 C-3.80355607 9.3008662 -5.5756226 9.29516785 -7.34765625 9.28515625 C-8.27847519 9.2837413 -9.20929413 9.28232635 -10.1683197 9.28086853 C-13.15391191 9.27525172 -16.13943029 9.2626964 -19.125 9.25 C-21.14387913 9.24498716 -23.16275943 9.24042388 -25.18164062 9.23632812 C-30.14195572 9.22527683 -35.10221532 9.20800095 -40.0625 9.1875 C-40.0625 4.89889551 -39.92755468 4.52018814 -37.25 1.5625 C-36.46689453 0.67691406 -36.46689453 0.67691406 -35.66796875 -0.2265625 C-26.87752072 -8.91007077 -9.6809246 -5.7295268 0 0 Z " fill="#F96B38" transform="translate(185.0625,241.8125)"/>
<path d="M0 0 C2.46485761 2.40963676 4.54417276 4.86047691 6 8 C5.67 8.99 5.34 9.98 5 11 C-8.53 11 -22.06 11 -36 11 C-37 8 -37 8 -35.875 5 C-33.02871488 0.4459438 -29.37170953 -1.31880628 -24.2109375 -2.6484375 C-16.38026459 -3.8935975 -6.98940957 -4.25807717 0 0 Z " fill="#F96B38" transform="translate(133,240)"/>
<path d="M0 0 C2.4375 1.4375 2.4375 1.4375 4 4 C4.48738582 7.06831526 4.62363479 9.94924604 4 13 C2.59765625 14.77734375 2.59765625 14.77734375 1 16 C0.34 16 -0.32 16 -1 16 C-1 16.66 -1 17.32 -1 18 C-4.9354597 18.45761159 -6.57244809 18.29742742 -9.875 16 C-12.78877375 11.88643706 -12.55240554 9.97164984 -12 5 C-11.1875 2.5625 -11.1875 2.5625 -10 1 C-6.40735548 -0.19754817 -3.77282526 -0.33094958 0 0 Z " fill="#F2F2F2" transform="translate(133,30)"/>
<path d="M0 0 C1.32 0.33 2.64 0.66 4 1 C4 1.66 4 2.32 4 3 C3.01 3.33 2.02 3.66 1 4 C0.26676204 6.01508358 0.26676204 6.01508358 0 8 C-0.66 8 -1.32 8 -2 8 C-1.34 5.36 -0.68 2.72 0 0 Z " fill="#BCBCBC" transform="translate(83,148)"/>
</svg>
