<?xml version="1.0" encoding="UTF-8" standalone="no"?>
<!-- Created with Inkscape (http://www.inkscape.org/) -->

<svg
   version="1.1"
   id="svg1"
   width="450"
   height="145"
   viewBox="0 0 450 145"
   sodipodi:docname="penguin-logo.svg"
   inkscape:version="1.4 (86a8ad7, 2024-10-11)"
   xmlns:inkscape="http://www.inkscape.org/namespaces/inkscape"
   xmlns:sodipodi="http://sodipodi.sourceforge.net/DTD/sodipodi-0.dtd"
   xmlns="http://www.w3.org/2000/svg"
   xmlns:svg="http://www.w3.org/2000/svg">
  <defs
     id="defs1">
    <rect
       x="97.975268"
       y="1.2036274"
       width="350.73702"
       height="143.23166"
       id="rect6" />
    <rect
       x="98.215994"
       y="4.3330585"
       width="350.49629"
       height="139.13932"
       id="rect5" />
    <rect
       x="103.51195"
       y="1.4443528"
       width="344.71888"
       height="142.50948"
       id="rect1" />
    <rect
       x="107.9186"
       y="13.106833"
       width="334.6498"
       height="120.17434"
       id="rect4" />
    <rect
       x="91.237175"
       y="48.001648"
       width="155.5798"
       height="60.257389"
       id="rect3" />
  </defs>
  <sodipodi:namedview
     id="namedview1"
     pagecolor="#505050"
     bordercolor="#ffffff"
     borderopacity="1"
     inkscape:showpageshadow="0"
     inkscape:pageopacity="0"
     inkscape:pagecheckerboard="1"
     inkscape:deskcolor="#505050"
     inkscape:zoom="2.9373991"
     inkscape:cx="208.34759"
     inkscape:cy="13.106833"
     inkscape:window-width="2560"
     inkscape:window-height="1494"
     inkscape:window-x="2389"
     inkscape:window-y="-11"
     inkscape:window-maximized="1"
     inkscape:current-layer="g1" />
  <g
     inkscape:groupmode="layer"
     inkscape:label="Image"
     id="g1">
    <path
       style="fill:#000000"
       d="m 43.105465,141.95911 c -6.617773,-0.48567 -9.232232,-1.40584 -6.478046,-2.27999 1.096852,-0.34812 1.325266,-0.78893 0.984291,-1.89955 -0.612888,-1.9963 -0.618798,-1.99963 -3.612519,-2.03421 -1.60868,-0.0186 -2.665856,-0.34737 -2.665856,-0.82909 0,-1.06802 -1.951753,-0.73383 -2.709771,0.46398 -0.33173,0.5242 -0.60774,0.67074 -0.613354,0.32566 -0.0056,-0.34508 -0.450668,-0.0451 -0.989007,0.66667 -0.705749,0.93308 -0.984712,1.02607 -1,0.33333 -0.01519,-0.68828 -0.289342,-0.59405 -0.966695,0.33229 -0.520021,0.71117 -1.170675,1.06785 -1.445899,0.79263 -0.275223,-0.27522 -1.10132,0.0252 -1.83577,0.66772 -0.73445,0.64246 -1.11609,0.79312 -0.84809,0.33478 0.758828,-1.29774 -0.765991,-0.97947 -1.596982,0.33334 -0.548162,0.86599 -0.83113,0.94472 -1.097957,0.3055 -0.259421,-0.62147 -0.597769,-0.66338 -1.215657,-0.15058 -1.095999,0.9096 -10.2758679,1.01669 -11.1623374,0.13023 -0.4496317,-0.44964 0.6174457,-1.50686 3.2388139,-3.20892 7.2140075,-4.68405 10.3969595,-8.01139 13.5202655,-14.13358 1.502061,-2.94428 1.723365,-6.1871 0.719077,-10.5368 -1.048122,-4.53957 -2.66382,-20.640437 -2.656167,-26.469439 0.0086,-6.549335 1.624925,-22.371431 2.744452,-26.865226 0.443651,-1.78082 1.66385,-5.158232 2.711552,-7.50536 1.047702,-2.347127 2.655312,-6.502904 3.572466,-9.235058 2.425728,-7.226119 3.356418,-8.824316 7.109168,-12.20799 2.112116,-1.904394 3.77758,-4.129907 4.448896,-5.944935 0.590148,-1.595577 1.411034,-3.013507 1.824191,-3.150957 1.029623,-0.342535 1.812688,1.918601 0.866876,2.503145 -0.557401,0.344493 -0.56152,0.592894 -0.01543,0.930397 0.527277,0.325875 0.450665,0.88064 -0.262158,1.898337 -1.309227,1.869183 -1.27108,2.467946 0.159517,2.503828 0.641667,0.01609 2.286406,0.428934 3.654976,0.917422 1.36857,0.488488 2.306001,0.59318 2.08318,0.232649 -0.247233,-0.400032 0.153592,-0.478181 1.028438,-0.200515 1.674977,0.531617 1.686057,-0.720225 0.02047,-2.312151 -1.575418,-1.505742 -2.218941,-3.577758 -0.961287,-3.095151 1.35746,0.520907 1.270601,0.283361 -0.428272,-1.17126 -1.020996,-0.874204 -1.327734,-0.947696 -1.061681,-0.254372 0.205785,0.536265 0.0894,1.397823 -0.258632,1.914572 -0.533957,0.792801 -0.61611,0.783359 -0.526002,-0.06046 0.274914,-2.574409 -0.09631,-4.125339 -0.912451,-3.812155 -0.473694,0.181774 -1.36774,-0.03985 -1.986769,-0.492494 C 41.62299,17.602371 47.714207,10.4875 55.205268,7.1738472 59.147288,5.4301045 66.21493,5.8477516 70.66667,8.0875056 c 2.583727,1.2999216 4.391844,1.5604516 13.030758,1.87759 8.423955,0.3092474 10.346206,0.5763754 12,1.6675984 l 1.969243,1.299365 -6.333334,0.803424 c -7.319276,0.928497 -11.078634,2.241894 -15.464707,5.402862 -4.303781,3.101661 -5.883149,5.807458 -5.417258,9.280929 0.313225,2.33527 0.140107,2.891116 -1.190767,3.823296 -1.94571,1.362829 -6.345912,1.404906 -9.491107,0.09076 -2.996292,-1.25193 -2.732643,-1.280294 -4.647559,0.5 -2.369862,2.203259 -4.454146,6.479463 -4.463154,9.156794 -0.0043,1.288764 -0.754336,5.342508 -1.666666,9.00832 -0.912331,3.665813 -1.658784,7.337657 -1.658784,8.159653 0,1.566695 3.121158,10.049943 4.099329,11.1419 0.312036,0.348333 0.567338,1.191038 0.567338,1.872678 0,0.68164 0.255264,1.081583 0.567253,0.888763 0.581629,-0.359466 1.412016,2.063811 2.720311,7.938559 0.797574,3.581408 0.702739,17.376359 -0.110688,16.101168 -0.269386,-0.422309 -0.49898,0.432165 -0.510209,1.898832 -0.01364,1.780943 -0.213603,2.361673 -0.602045,1.748403 -0.319896,-0.50505 -0.47055,-2.155051 -0.334788,-3.666671 0.135763,-1.511619 -0.275323,-0.348399 -0.913523,2.584935 -1.47289,6.769796 -4.279837,12.522956 -7.194583,14.746146 -3.771527,2.87668 -4.264952,2.09368 -4.212602,-6.68483 0.02512,-4.21232 -0.170144,-8.007968 -0.43392,-8.434766 C 40.711433,98.866415 40.27122,95.415534 39.996958,91.62459 39.596009,86.082537 39.173209,84.170395 37.8392,81.865984 36.926696,80.289693 36.026646,77.576915 35.839089,75.837588 35.621063,73.815703 34.843004,71.81633 33.681714,70.293802 31.120838,66.93632 30.866597,67.884394 33.2992,71.72021 c 1.230803,1.940775 2.034135,4.094754 2.034135,5.454138 0,1.235652 0.325767,2.855342 0.723926,3.59931 0.39816,0.743968 0.881697,2.820238 1.074527,4.613932 0.28432,2.644732 0.02858,3.87711 -1.35277,6.518898 -1.500507,2.869665 -1.699836,4.041831 -1.673693,9.842242 0.02012,4.46456 0.415714,7.76516 1.22866,10.25127 0.65944,2.01667 1.556053,5.46667 1.992474,7.66667 2.364494,11.91944 3.082586,13.66666 5.616883,13.66666 2.002812,0 3.047986,-1.2236 3.103517,-3.63333 0.04008,-1.73943 0.129672,-1.84061 0.61981,-0.7 0.442843,1.03055 0.583593,0.68506 0.61981,-1.52141 0.05909,-3.59992 1.553395,-7.24627 3.152664,-7.693 2.079303,-0.58083 5.656597,-0.0422 6.272147,0.94434 0.471328,0.75542 0.793919,0.63933 1.666598,-0.59973 0.595177,-0.84506 1.792276,-2.34506 2.66022,-3.33334 L 62.616188,115 l -0.27256,2.92925 c -0.221518,2.3807 -0.718775,3.29706 -2.655332,4.89333 -2.897001,2.38795 -4.080656,4.55969 -4.686274,8.59824 -0.542597,3.6183 -0.696981,3.54087 8.524199,4.27485 4.400534,0.35027 6.226521,0.79083 7.333334,1.76935 l 1.473781,1.30294 -1.442499,-0.30653 c -1.011335,-0.21491 -1.540665,0.0688 -1.77092,0.94935 -0.252796,0.9667 -0.944049,1.25589 -3.001946,1.25589 -1.470438,0 -2.773524,0.28796 -2.895746,0.63991 -0.300385,0.865 -12.034952,1.24563 -20.11676,0.65253 z M 32.890261,90.550316 c 0.208505,-0.797327 0.148345,-1.862022 -0.13369,-2.365991 C 32.372947,87.498826 32.043019,87.708643 31.446755,89.0173 30.662851,90.737782 30.880719,92 31.961592,92 c 0.302262,0 0.720163,-0.652358 0.928669,-1.449684 z m -0.519496,-7.441375 c 0.177089,-0.976584 0.03334,-1.775608 -0.319447,-1.775608 -0.352785,0 -0.527092,0.593692 -0.38735,1.319315 0.139742,0.725623 -0.02748,1.493328 -0.371611,1.706011 -0.344129,0.212683 -0.625689,0.728992 -0.625689,1.147352 0,1.393183 1.36496,-0.526839 1.704097,-2.39707 z m 0.629236,-3.775608 C 32.76725,78.6 32.859534,78 33.205076,78 c 0.345542,0 0.628259,-0.7725 0.628259,-1.716667 0,-1.966883 -1.04648,-1.304939 -1.477811,0.934779 -0.153962,0.799462 -0.448808,1.726816 -0.655214,2.060787 -0.308054,0.498443 0.297187,1.03314 1.511283,1.335136 0.116376,0.02895 0.02116,-0.547368 -0.211592,-1.280702 z M 34.666668,52.666667 C 34.666668,52.3 34.534373,52 34.372679,52 c -0.161693,0 -0.479398,0.3 -0.706011,0.666667 -0.226612,0.366666 -0.09432,0.666666 0.293989,0.666666 0.388306,0 0.706011,-0.3 0.706011,-0.666666 z m 3.587705,-3.701292 c 0.227664,-0.593284 0.115899,-0.860881 -0.262008,-0.627322 -0.362466,0.224017 -0.65903,0.689598 -0.65903,1.034625 0,0.958955 0.477844,0.747642 0.921038,-0.407303 z m 3.078962,-1.259364 c 0,-0.161693 -0.3,-0.479399 -0.666667,-0.706011 -0.366666,-0.226612 -0.666666,-0.09432 -0.666666,0.293989 0,0.388306 0.3,0.706011 0.666666,0.706011 0.366667,0 0.666667,-0.132295 0.666667,-0.293989 z m -3.169724,-2.29495 c -0.117231,-1.059756 0.243602,-1.642375 1.166667,-1.883762 0.735015,-0.192211 1.33639,-0.627578 1.33639,-0.967483 0,-0.339904 0.733947,-1.409537 1.630994,-2.376961 0.897046,-0.967424 1.479341,-2.004331 1.293988,-2.304237 -0.58774,-0.950983 -2.924982,-0.587638 -2.924982,0.454715 0,0.55 -0.375,1.002311 -0.833333,1.005135 -0.458333,0.0028 -1.492101,1.159056 -2.297263,2.569404 -1.146428,2.008125 -1.291017,2.751164 -0.666666,3.426002 0.621585,0.671849 0.613637,0.758061 -0.03607,0.391251 -0.518474,-0.292718 -0.833333,-0.05931 -0.833333,0.617746 0,0.684487 0.432842,0.998119 1.166666,0.845353 0.770057,-0.160309 1.108969,-0.764458 0.996942,-1.777163 z m 4.731113,0.289557 c 0.247281,-0.644403 0.05034,-0.84311 -0.591511,-0.59681 -0.529221,0.203081 -0.796238,0.637803 -0.593371,0.966049 0.510951,0.826735 0.755145,0.750638 1.184882,-0.369239 z M 55.000002,29.333333 c 0.226613,-0.366666 0.09432,-0.666666 -0.293988,-0.666666 -0.388307,0 -0.706012,0.3 -0.706012,0.666666 C 54.000002,29.7 54.132297,30 54.293991,30 c 0.161694,0 0.479399,-0.3 0.706011,-0.666667 z m 7.333334,-0.975923 2,-0.915785 -1.833333,-0.05415 c -1.008334,-0.02978 -1.833334,0.224989 -1.833334,0.566154 0,0.341164 -0.675,0.75031 -1.5,0.909212 -1.277341,0.246026 -1.302081,0.297925 -0.166666,0.349631 0.733333,0.0334 2.233333,-0.351384 3.333333,-0.855066 z M 45.654657,17.962155 c -0.337923,-1.064702 -0.61299,-1.235582 -0.994711,-0.617945 -0.290763,0.470466 -0.183225,1.228022 0.239549,1.687513 1.032829,1.122524 1.321251,0.71402 0.755162,-1.069568 z m 28.170837,-2.985552 c 1.347133,-0.562868 4.554443,-1.179813 7.127356,-1.370989 6.329772,-0.470324 6.650371,-1.153735 0.380487,-0.81107 -3.212609,0.175577 -6.072435,0.777279 -8.000001,1.683185 -3.482224,1.636557 -3.116921,2.006844 0.492158,0.498874 z m -3.847067,89.609937 c -0.732403,-2.71994 0.05612,-8.556807 1.385145,-10.253207 0.461811,-0.589468 1.550684,-5.461449 3.352455,-15 0.311674,-1.65 0.765054,-4.65 1.007511,-6.666666 0.53842,-4.478373 0.703924,-4.704382 1.654338,-2.259126 2.336403,6.011169 2.476705,23.871228 0.232467,29.592459 -1.608785,4.10127 -4.085088,7.33333 -5.618571,7.33333 -0.928067,0 -1.474423,-0.74539 -2.013345,-2.74679 z M 77.79533,85.512688 c -0.169028,-0.648645 -0.318441,-0.279355 -0.332028,0.820645 -0.01359,1.1 0.12471,1.63071 0.307326,1.179355 0.182615,-0.451355 0.193731,-1.351355 0.0247,-2 z m -20.998695,8.820645 c 0.01359,-1.1 0.162999,-1.46929 0.332028,-0.820645 0.169029,0.648645 0.157913,1.548645 -0.0247,2 -0.182615,0.451355 -0.320912,-0.07935 -0.307325,-1.179355 z M 67.749719,87.677494 C 66.871944,87.012804 66.660433,86.373588 67.039807,85.53203 67.337012,84.872747 67.615672,83.283333 67.659053,82 67.958991,73.126986 68.366588,68.935713 68.969938,68.520342 69.450953,68.189191 69.437554,67.670638 68.926661,66.845491 68.452514,66.079693 68.398838,65.07671 68.777256,64.053748 69.428517,62.293221 70.799083,54.144028 70.97269,51 c 0.06074,-1.1 0.616734,-3.115364 1.235542,-4.478588 0.618807,-1.363223 1.126953,-3.163223 1.129212,-4 0.009,-3.32023 1.998986,2.278708 2.420004,6.80869 0.398851,4.291477 -0.918366,15.243478 -2.445915,20.336565 -0.329919,1.1 -1.091813,4.173031 -1.693098,6.828958 -0.601286,2.655926 -1.361413,4.663221 -1.689173,4.460655 -0.562733,-0.347788 -0.889203,2.911818 -0.622009,6.210387 0.141422,1.745889 0.094,1.761441 -1.557534,0.510827 z M 56.771932,86.666667 c 0,-0.916667 0.151316,-1.291667 0.336258,-0.833334 0.184941,0.458334 0.184941,1.208334 0,1.666667 -0.184942,0.458333 -0.336258,0.08333 -0.336258,-0.833333 z"
       id="path1" />
    <text
       xml:space="preserve"
       id="text3"
       style="font-style:normal;font-variant:normal;font-weight:normal;font-stretch:normal;font-size:32px;font-family:Gabriola;-inkscape-font-specification:'Gabriola, Normal';font-variant-ligatures:normal;font-variant-caps:normal;font-variant-numeric:normal;font-variant-east-asian:normal;text-align:start;writing-mode:lr-tb;direction:ltr;white-space:pre;shape-inside:url(#rect3);display:inline;fill:#000000" />
    <text
       xml:space="preserve"
       id="text1"
       style="font-size:72px;font-family:Gabriola;-inkscape-font-specification:'Gabriola, Normal';text-align:start;writing-mode:lr-tb;direction:ltr;white-space:pre;shape-inside:url(#rect1);display:inline;fill:#000000" />
    <text
       xml:space="preserve"
       style="font-size:72px;font-family:Gabriola;-inkscape-font-specification:'Gabriola, Normal';text-align:start;writing-mode:lr-tb;direction:ltr;text-anchor:start;fill:#000000"
       x="217.13438"
       y="77.995056"
       id="text2"><tspan
         sodipodi:role="line"
         id="tspan2"></tspan></text>
    <text
       xml:space="preserve"
       id="text4"
       style="font-size:72px;font-family:Gabriola;-inkscape-font-specification:'Gabriola, Normal';text-align:start;writing-mode:lr-tb;direction:ltr;white-space:pre;shape-inside:url(#rect5);display:inline;fill:#000000" />
    <path
       d="m 99.978516,29.380859 -1.740235,-0.05273 q -0.05273,-2.126953 -0.05273,-3.779297 0,-1.705078 0.158203,-2.917969 0.158203,-1.230468 0.650391,-2.021484 0.509765,-0.791016 1.458989,-1.160156 0.96679,-0.369141 2.54882,-0.369141 1.00196,0 2.30274,0.05273 1.30078,0.05273 2.74219,0.105469 1.4414,0.05273 2.95312,0.105469 1.5293,0.05273 2.95313,0.05273 2.39062,0 4.21875,0 1.82812,-0.01758 3.25195,-0.03516 1.42383,-0.01758 2.49609,-0.05273 1.07227,-0.03516 1.95117,-0.105469 0.89649,-0.07031 1.65235,-0.158203 0.77343,-0.105469 1.56445,-0.246094 0.29883,0.84375 0.29883,1.388672 0,1.160156 -0.98438,1.775391 -0.96679,0.615234 -2.88281,0.615234 -1.81055,0 -4.27148,-0.210938 -2.44336,-0.228515 -5.51953,-0.439453 -0.0527,2.601563 -0.14063,5.554688 -0.0703,2.953125 -0.1582,6.117187 -0.0879,3.146485 -0.19336,6.451172 -0.0879,3.28711 -0.19336,6.591797 -0.10547,3.287109 -0.21094,6.521484 -0.0879,3.234375 -0.17578,6.257813 l -4.16602,0.527344 -0.3164,-0.03516 q 0.14062,-3.357421 0.26367,-6.433593 0.12305,-3.09375 0.22852,-6.064453 0.10546,-2.970704 0.19336,-5.923829 0.0879,-2.970703 0.14062,-6.099609 0.0527,-3.128906 0.0879,-6.503906 0.0352,-3.392578 0.0352,-7.207031 -1.00196,-0.03516 -2.03907,-0.05273 -1.0371,-0.03516 -2.10937,-0.03516 -1.07227,0 -2.00391,0.03516 -0.93164,0.03516 -1.70507,0.246094 -0.77344,0.210937 -1.38868,0.667969 -0.61523,0.439453 -1.03711,1.265625 -0.42187,0.808593 -0.65039,2.074218 -0.210934,1.265625 -0.210934,3.09375 z M 134.2207,26.744141 q -0.61523,0 -1.08984,-0.246094 -0.47461,-0.263672 -0.80859,-0.667969 -0.33399,-0.421875 -0.50977,-0.949219 -0.17578,-0.544922 -0.17578,-1.107422 0,-0.791015 0.26367,-1.388671 0.26367,-0.615235 0.68555,-1.019532 0.42187,-0.421875 0.93164,-0.615234 0.50976,-0.210938 1.00195,-0.210938 0.59766,0 1.07227,0.228516 0.47461,0.210938 0.80859,0.597656 0.35156,0.386719 0.52734,0.896485 0.19336,0.492187 0.19336,1.072265 0,0.615235 -0.21093,1.230469 -0.21094,0.597656 -0.59766,1.089844 -0.36914,0.492187 -0.91406,0.791015 -0.52735,0.298829 -1.17774,0.298829 z m 1.5293,7.945312 q -0.29883,2.003906 -0.50977,4.025391 -0.21093,2.003906 -0.35156,3.884765 -0.12305,1.88086 -0.19336,3.56836 -0.0527,1.669922 -0.0527,3.023437 0,1.828125 0.0527,3.146485 0.0527,1.300781 0.17578,2.197265 0.12305,0.896485 0.29883,1.441406 0.19336,0.527344 0.45703,0.826172 0.28125,0.28125 0.63282,0.369141 0.36914,0.08789 0.82617,0.08789 0.84375,0 1.81054,-0.246094 0.98438,-0.263672 1.98633,-0.720703 l 0.33399,0.914062 q -0.63282,0.509766 -1.59961,1.03711 -0.94922,0.527343 -2.00391,0.966796 -1.05469,0.439454 -2.07422,0.703125 -1.00195,0.28125 -1.74023,0.28125 -0.49219,0 -0.89649,-0.08789 -0.40429,-0.07031 -0.73828,-0.386719 -0.3164,-0.316406 -0.58008,-0.931641 -0.24609,-0.615234 -0.42187,-1.669921 -0.1582,-1.054688 -0.24609,-2.636719 -0.0879,-1.582031 -0.0879,-3.832031 0,-1.31836 0.0176,-2.970704 0.0352,-1.669921 0.0879,-3.568359 0.0527,-1.916016 0.14063,-4.025391 0.0879,-2.126953 0.22851,-4.376953 0.0352,-0.492187 0.26368,-0.791015 0.22851,-0.316407 0.5625,-0.47461 0.33398,-0.175781 0.70312,-0.228515 0.38672,-0.07031 0.70313,-0.07031 1.17773,0 2.21484,0.544922 z m 21.51562,6.679688 q 0.49219,-0.966797 0.49219,-1.96875 0,-0.685547 -0.24609,-1.283204 -0.22852,-0.615234 -0.70313,-1.072265 -0.47461,-0.47461 -1.19531,-0.738281 -0.70312,-0.28125 -1.65234,-0.28125 -1.3711,0 -2.46094,0.492187 -1.08984,0.474609 -1.93359,1.318359 -0.82618,0.84375 -1.42383,1.951172 -0.58008,1.107422 -0.9668,2.373047 -0.36914,1.265625 -0.54492,2.601563 -0.17578,1.318359 -0.17578,2.583984 0,2.267578 0.58008,4.130859 0.59765,1.845704 1.59961,3.164063 1.00195,1.300781 2.33789,2.021484 1.33593,0.720703 2.84765,0.720703 1.59961,0 3.23438,-0.826171 1.65234,-0.84375 3.19922,-2.707032 0.10546,0.05273 0.26367,0.158203 0.17578,0.08789 0.3164,0.210938 0.14063,0.123047 0.2461,0.246094 0.10547,0.123047 0.10547,0.228515 0,0.07031 -0.0176,0.08789 l -0.0352,0.07031 q -1.70508,2.759766 -4.0957,4.13086 -2.39063,1.371094 -5.23828,1.371094 -1.54688,0 -2.84766,-0.439454 -1.30078,-0.421875 -2.35547,-1.177734 -1.05468,-0.773437 -1.86328,-1.810547 -0.79101,-1.054687 -1.33594,-2.267578 -0.52734,-1.230469 -0.80859,-2.566406 -0.26367,-1.353516 -0.26367,-2.72461 0,-1.845703 0.4043,-3.691406 0.40429,-1.863281 1.17773,-3.568359 0.79102,-1.722656 1.89844,-3.199219 1.125,-1.494141 2.53125,-2.583984 1.42383,-1.107422 3.1289,-1.722657 1.70508,-0.632812 3.63868,-0.632812 1.4414,0 2.68945,0.351562 1.24805,0.351563 2.14453,1.001954 0.91406,0.632812 1.42383,1.546875 0.52734,0.896484 0.52734,2.003906 0,0.720703 -0.22851,1.283203 -0.21094,0.544922 -0.61524,0.949219 -0.38672,0.386718 -0.93164,0.597656 -0.52734,0.193359 -1.16016,0.193359 -0.38671,0 -0.80859,-0.07031 -0.4043,-0.08789 -0.80859,-0.263672 z m 17.20899,6.732421 q 2.10937,-0.703125 3.84961,-1.599609 1.74023,-0.896484 2.98828,-1.916016 1.26562,-1.019531 1.95117,-2.144531 0.68555,-1.125 0.68555,-2.302734 0,-0.492188 -0.19336,-0.896485 -0.17578,-0.421875 -0.49219,-0.703125 -0.29883,-0.298828 -0.7207,-0.457031 -0.4043,-0.158203 -0.87891,-0.158203 -1.10742,0 -2.30273,0.685547 -1.17774,0.685547 -2.35547,1.986328 -1.16016,1.300781 -2.26758,3.181641 -1.10742,1.880859 -2.05664,4.271484 -0.94922,2.390625 -1.70508,5.255859 -0.75586,2.865235 -1.21289,6.117188 l -3.55078,0.457031 -0.28125,-0.01758 q 0.10547,-2.074219 0.22852,-4.570312 0.14062,-2.513672 0.28125,-5.326172 0.1582,-2.8125 0.3164,-5.853516 0.17578,-3.058594 0.33399,-6.222656 0.17578,-3.164063 0.35156,-6.38086 0.17578,-3.216796 0.33398,-6.345703 0.17578,-3.146484 0.33399,-6.152343 0.1582,-3.00586 0.29883,-5.748047 0.0176,-0.421875 0.24609,-0.720703 0.22852,-0.316407 0.58008,-0.492188 0.36914,-0.193359 0.82617,-0.28125 0.45703,-0.08789 0.94922,-0.08789 1.05469,0 2.21484,0.5625 -0.40429,3.603515 -0.7207,6.609374 -0.31641,3.00586 -0.58008,5.589844 -0.24609,2.566406 -0.45703,4.816406 -0.21094,2.232422 -0.38672,4.289063 -0.1582,2.039062 -0.31641,4.007812 -0.14062,1.951172 -0.28125,3.972657 -0.14062,2.021484 -0.29882,4.183593 -0.14063,2.16211 -0.31641,4.640625 l 0.10547,0.01758 q 0.63281,-2.091797 1.49414,-4.13086 0.86133,-2.039062 1.89844,-3.867187 1.03711,-1.845703 2.23242,-3.392578 1.19531,-1.564454 2.49609,-2.689454 1.30078,-1.125 2.68946,-1.757812 1.38867,-0.650391 2.8125,-0.650391 0.89648,0 1.65234,0.298828 0.75586,0.28125 1.30078,0.826172 0.5625,0.527344 0.86133,1.283203 0.31641,0.75586 0.31641,1.6875 0,1.458985 -0.63282,2.830079 -0.63281,1.371093 -1.79297,2.636718 -1.16015,1.265625 -2.79492,2.408203 -1.61719,1.125 -3.60351,2.091797 1.17773,2.16211 2.10937,3.708985 0.94922,1.529297 1.70508,2.583984 0.77344,1.037109 1.38867,1.652344 0.61524,0.615234 1.125,0.93164 0.52735,0.316407 0.98438,0.421875 0.45703,0.08789 0.91406,0.08789 0.91406,0 1.89844,-0.28125 0.98437,-0.28125 1.98632,-0.738281 l 0.33399,0.914062 q -0.63281,0.509766 -1.59961,1.03711 -0.9668,0.527343 -2.05664,0.966797 -1.07227,0.439453 -2.14453,0.703125 -1.05469,0.28125 -1.86328,0.28125 -0.94922,0 -1.89844,-0.703125 -0.93164,-0.685547 -2.02149,-2.144532 -1.07226,-1.458984 -2.37304,-3.691406 -1.30078,-2.25 -2.98828,-5.361328 z m 35.63086,5.871094 q 0.10547,0.05273 0.26367,0.158203 0.17578,0.08789 0.31641,0.210938 0.14062,0.105469 0.24609,0.246094 0.10547,0.123046 0.10547,0.246093 0,0.07031 -0.0527,0.140625 -0.98437,1.371094 -2.12695,2.390625 -1.125,1.001953 -2.35547,1.6875 -1.21289,0.667969 -2.47851,0.984375 -1.26563,0.333985 -2.4961,0.333985 -2.10937,0 -3.86718,-0.861328 -1.75782,-0.861329 -3.02344,-2.355469 -1.26563,-1.494141 -1.98633,-3.498047 -0.70312,-2.021484 -0.70312,-4.324219 0,-1.880859 0.40429,-3.761719 0.42188,-1.880859 1.19531,-3.585937 0.79102,-1.705078 1.91602,-3.164063 1.125,-1.476562 2.54883,-2.548828 1.4414,-1.089843 3.14648,-1.705078 1.72266,-0.615234 3.69141,-0.615234 1.30078,0 2.47851,0.351562 1.17774,0.351563 2.05665,1.019532 0.89648,0.65039 1.42382,1.617187 0.52735,0.966797 0.52735,2.197266 0,1.792968 -1.17774,3.128906 -1.16015,1.335937 -3.21679,2.267578 -2.05664,0.931641 -4.85157,1.511719 -2.77734,0.5625 -6.01172,0.84375 V 47.1875 q 0,2.25 0.5625,4.113281 0.58008,1.863281 1.58204,3.199219 1.00195,1.318359 2.35546,2.056641 1.35352,0.738281 2.91797,0.738281 1.58203,0 3.23438,-0.773438 1.66992,-0.791015 3.375,-2.548828 z m -3.30469,-14.115234 q 0,-0.808594 -0.28125,-1.511719 -0.26367,-0.703125 -0.75586,-1.212891 -0.47461,-0.527343 -1.14258,-0.826171 -0.66797,-0.298829 -1.4414,-0.298829 -1.14258,0 -2.07422,0.404297 -0.93164,0.404297 -1.66992,1.107422 -0.73828,0.685547 -1.30078,1.617188 -0.5625,0.914062 -0.9668,1.951172 -0.38672,1.037109 -0.63281,2.126953 -0.2461,1.089843 -0.35157,2.126953 2.4961,-0.175781 4.46485,-0.597656 1.98633,-0.439454 3.33984,-1.107422 1.37109,-0.685547 2.0918,-1.617188 0.7207,-0.949219 0.7207,-2.162109 z m 16.73438,-18.439453 q -0.73829,3.339843 -1.24805,6.908203 -0.49219,3.550781 -0.84375,7.013672 0.82617,0.03516 1.59961,0.05273 0.79101,0.01758 1.45898,0.03516 0.68555,0.01758 1.23047,0.01758 0.5625,0 0.93164,0 1.59961,0 2.61914,-0.193359 0.0879,0.298828 0.14063,0.544922 0.0527,0.246094 0.0527,0.457031 0,0.773438 -0.65039,1.001953 -0.63281,0.228516 -1.8457,0.228516 -1.16016,0 -2.60156,-0.140625 -1.42383,-0.140625 -3.12891,-0.263672 -0.19336,1.880859 -0.33398,3.673828 -0.12305,1.775391 -0.21094,3.357422 -0.0703,1.582031 -0.10547,2.935547 -0.0352,1.353516 -0.0352,2.355469 0,1.880859 0.19336,3.357422 0.19336,1.476562 0.68555,2.513671 0.49219,1.019532 1.35351,1.564454 0.86133,0.544921 2.17969,0.544921 0.94922,0 2.10938,-0.333984 1.17773,-0.333984 2.67187,-1.072266 0.47461,0.47461 0.54492,1.160157 -1.08984,0.720703 -2.19726,1.318359 -1.10742,0.580078 -2.17969,1.001953 -1.07226,0.421875 -2.07422,0.650391 -1.00195,0.228515 -1.89844,0.228515 -1.17773,0 -2.1621,-0.439453 -0.9668,-0.421875 -1.6875,-1.511718 -0.70313,-1.107422 -1.10743,-2.970704 -0.38672,-1.863281 -0.38672,-4.710937 0,-1.599609 0.0527,-3.287109 0.0527,-1.705079 0.14062,-3.445313 0.0879,-1.740234 0.22852,-3.480469 0.14062,-1.740234 0.31641,-3.427734 -1.38868,0.01758 -2.58399,0.123047 -1.17773,0.08789 -2.02148,0.298828 -0.0527,-0.105469 -0.0527,-0.246094 0,-0.36914 0.35157,-0.685547 0.36914,-0.333984 1.00195,-0.597656 0.65039,-0.263672 1.54687,-0.439453 0.89649,-0.175781 1.96875,-0.246094 0.4043,-3.673828 0.86133,-6.943359 0.45703,-3.269531 0.91406,-5.835938 0.0879,-0.457031 0.31641,-0.755859 0.24609,-0.298828 0.5625,-0.474609 0.31641,-0.175782 0.68555,-0.246094 0.36914,-0.07031 0.7207,-0.07031 0.58008,0 1.03711,0.123047 0.47461,0.123047 0.87891,0.351563 z m 25.34765,3.076172 q 0,-0.738282 -0.12304,-1.265625 -0.12305,-0.527344 -0.43946,-0.861329 -0.29883,-0.333984 -0.84375,-0.492187 -0.54492,-0.158203 -1.38867,-0.158203 -1.16016,0 -2.9707,0.263672 l -0.21094,-1.564453 q 1.65234,-0.298829 3.60352,-0.615235 1.96875,-0.316406 4.02539,-0.580078 2.07421,-0.263672 4.14843,-0.421875 2.0918,-0.175781 4.00782,-0.175781 2.53125,0 4.74609,0.457031 2.23242,0.457031 3.88477,1.564453 1.66992,1.089844 2.63671,2.935547 0.9668,1.845703 0.9668,4.605469 0,3.216797 -1.08984,5.783203 -1.07227,2.548828 -3.02344,4.324219 -1.95117,1.77539 -4.69336,2.724609 -2.72461,0.931641 -6.0293,0.931641 -0.73828,0 -1.03711,-0.228516 -0.29882,-0.228516 -0.29882,-0.984375 v -0.228516 q 0,-0.175781 0.0176,-0.263671 2.58399,0 4.42969,-0.527344 1.86328,-0.544922 3.12891,-1.423828 1.26562,-0.896485 2.02148,-2.021485 0.75586,-1.142578 1.16016,-2.33789 0.4043,-1.212891 0.52734,-2.390625 0.12305,-1.177735 0.12305,-2.126953 0,-2.548829 -0.7207,-4.236329 -0.70313,-1.705078 -1.9336,-2.707031 -1.21289,-1.001953 -2.84765,-1.40625 -1.63477,-0.421875 -3.48047,-0.421875 -0.93164,0 -1.79297,0.07031 -0.84375,0.07031 -1.8457,0.193359 -0.0352,1.353516 -0.10547,3.621094 -0.0527,2.267578 -0.14063,5.220703 -0.0703,2.935547 -0.17578,6.451172 -0.10547,3.498047 -0.21094,7.330078 -0.10547,3.814453 -0.22851,7.857422 -0.12305,4.02539 -0.2461,8.033203 l -4.16601,0.527344 -0.31641,-0.03516 q 0.21094,-5.044921 0.38672,-9.5625 0.17578,-4.517578 0.28125,-8.789062 0.12305,-4.289063 0.19336,-8.472656 0.0703,-4.201172 0.0703,-8.595703 z m 39.39258,29.478515 q 0.10547,0.05273 0.26367,0.158203 0.17578,0.08789 0.31641,0.210938 0.14062,0.105469 0.24609,0.246094 0.10547,0.123046 0.10547,0.246093 0,0.07031 -0.0527,0.140625 -0.98438,1.371094 -2.12696,2.390625 -1.125,1.001953 -2.35547,1.6875 -1.21289,0.667969 -2.47851,0.984375 -1.26563,0.333985 -2.49609,0.333985 -2.10938,0 -3.86719,-0.861328 -1.75781,-0.861329 -3.02344,-2.355469 -1.26562,-1.494141 -1.98633,-3.498047 -0.70312,-2.021484 -0.70312,-4.324219 0,-1.880859 0.40429,-3.761719 0.42188,-1.880859 1.19532,-3.585937 0.79101,-1.705078 1.91601,-3.164063 1.125,-1.476562 2.54883,-2.548828 1.44141,-1.089843 3.14648,-1.705078 1.72266,-0.615234 3.69141,-0.615234 1.30078,0 2.47852,0.351562 1.17773,0.351563 2.05664,1.019532 0.89648,0.65039 1.42383,1.617187 0.52734,0.966797 0.52734,2.197266 0,1.792968 -1.17774,3.128906 -1.16015,1.335937 -3.21679,2.267578 -2.05664,0.931641 -4.85156,1.511719 -2.77735,0.5625 -6.01172,0.84375 V 47.1875 q 0,2.25 0.5625,4.113281 0.58007,1.863281 1.58203,3.199219 1.00195,1.318359 2.35547,2.056641 1.35351,0.738281 2.91797,0.738281 1.58203,0 3.23437,-0.773438 1.66992,-0.791015 3.375,-2.548828 z M 284.9707,39.857422 q 0,-0.808594 -0.28125,-1.511719 -0.26367,-0.703125 -0.75586,-1.212891 -0.47461,-0.527343 -1.14257,-0.826171 -0.66797,-0.298829 -1.44141,-0.298829 -1.14258,0 -2.07422,0.404297 -0.93164,0.404297 -1.66992,1.107422 -0.73828,0.685547 -1.30078,1.617188 -0.5625,0.914062 -0.9668,1.951172 -0.38672,1.037109 -0.63281,2.126953 -0.2461,1.089843 -0.35156,2.126953 2.49609,-0.175781 4.46484,-0.597656 1.98633,-0.439454 3.33984,-1.107422 1.3711,-0.685547 2.0918,-1.617188 0.7207,-0.949219 0.7207,-2.162109 z m 10.96875,-0.650391 q 0,-0.720703 -0.10547,-1.21289 -0.10546,-0.492188 -0.33398,-0.773438 -0.21094,-0.298828 -0.54492,-0.421875 -0.33399,-0.123047 -0.79102,-0.123047 -0.63281,0 -1.51172,0.175781 -0.8789,0.175782 -2.0039,0.47461 l -0.26367,-1.265625 q 1.24804,-0.439453 2.39062,-0.791016 1.16016,-0.36914 2.12695,-0.632812 0.9668,-0.263672 1.70508,-0.404297 0.73828,-0.140625 1.16016,-0.140625 1.01953,0 1.58203,0.615234 0.58008,0.597656 0.58008,2.074219 0,0.175781 -0.0352,0.826172 -0.0352,0.632812 -0.10547,1.617187 -0.0527,0.984375 -0.14062,2.267578 -0.0879,1.265625 -0.21094,2.707032 -0.10547,1.441406 -0.24609,2.988281 -0.14063,1.529297 -0.29883,3.058594 l 0.10547,0.01758 q 1.33593,-4.535156 2.86523,-7.646485 1.5293,-3.128906 3.11133,-5.0625 1.58203,-1.951171 3.14648,-2.8125 1.56446,-0.861328 2.98828,-0.861328 0.98438,0 1.89844,0.369141 0.91406,0.369141 1.61719,1.177734 0.7207,0.808594 1.14258,2.091797 0.42187,1.265625 0.42187,3.076172 0,0.527344 -0.0703,1.423828 -0.0527,0.878906 -0.14062,1.96875 -0.0879,1.089844 -0.21094,2.320313 -0.10547,1.21289 -0.19336,2.390625 -0.0879,1.177734 -0.1582,2.25 -0.0527,1.054687 -0.0527,1.845703 0,1.371094 0.10547,2.232422 0.12305,0.861328 0.38672,1.371093 0.26367,0.492188 0.70312,0.685547 0.43946,0.175782 1.07227,0.175782 0.91406,0 1.89844,-0.246094 0.98437,-0.263672 1.98632,-0.720703 l 0.33399,0.914062 q -0.63281,0.509766 -1.59961,1.03711 -0.9668,0.527343 -2.03906,0.966796 -1.05469,0.439454 -2.10938,0.703125 -1.05469,0.28125 -1.86328,0.28125 -0.94922,0 -1.49414,-0.509765 -0.54492,-0.509766 -0.82617,-1.388672 -0.26367,-0.878906 -0.35156,-2.056641 -0.0703,-1.177734 -0.0703,-2.53125 0,-1.652343 0.10547,-3.392578 0.12305,-1.757812 0.26367,-3.339844 0.14063,-1.582031 0.2461,-2.865234 0.12304,-1.300781 0.12304,-2.074219 0,-2.05664 -0.77343,-3.023437 -0.77344,-0.984375 -2.05664,-0.984375 -1.01953,0 -2.14453,0.861328 -1.125,0.861328 -2.25,2.373047 -1.10743,1.49414 -2.14454,3.550781 -1.01953,2.039063 -1.8457,4.429688 -0.82617,2.373046 -1.37109,4.974609 -0.54492,2.601562 -0.68555,5.203125 l -3.67383,0.457031 -0.28125,-0.01758 q 0.14063,-1.669922 0.26367,-3.638672 0.12305,-1.96875 0.22852,-3.990234 0.10547,-2.039063 0.17578,-4.025391 0.0879,-2.003906 0.14063,-3.726562 0.0703,-1.740235 0.0879,-3.111328 0.0352,-1.371094 0.0352,-2.16211 z m 46.51172,-1.705078 q 0.89649,1.283203 1.24805,2.583984 0.35156,1.300782 0.35156,2.636719 0,1.388672 -0.38672,2.72461 -0.36914,1.318359 -1.07226,2.513671 -0.68555,1.177735 -1.66993,2.179688 -0.96679,0.984375 -2.1621,1.722656 -1.19532,0.720703 -2.56641,1.125 -1.37109,0.404297 -2.86524,0.404297 -0.38671,0 -0.77343,-0.03516 -0.36914,-0.03516 -0.77344,-0.08789 -0.61523,0.123047 -1.125,0.369141 -0.50977,0.246094 -0.89648,0.580078 -0.38672,0.333984 -0.59766,0.720703 -0.21094,0.369141 -0.21094,0.755859 0,0.773438 0.59766,1.31836 0.61523,0.544922 1.63476,0.949219 1.01953,0.404296 2.35547,0.720703 1.35352,0.298828 2.8125,0.615234 1.31836,0.28125 2.60156,0.580078 1.28321,0.298828 2.44336,0.685547 1.16016,0.386719 2.14454,0.896484 0.98437,0.527344 1.70507,1.212891 0.72071,0.703125 1.125,1.617188 0.4043,0.93164 0.4043,2.144531 0,1.529297 -0.5625,2.935547 -0.54492,1.423828 -1.54687,2.654297 -1.00196,1.230468 -2.39063,2.25 -1.38867,1.019531 -3.05859,1.740234 -1.66993,0.738281 -3.56836,1.125 -1.88086,0.404297 -3.88477,0.404297 -1.16015,0 -2.44336,-0.175781 -1.2832,-0.158204 -2.53125,-0.527344 -1.24804,-0.351563 -2.39062,-0.931641 -1.125,-0.5625 -2.00391,-1.371094 -0.86133,-0.808593 -1.37109,-1.863281 -0.50977,-1.054687 -0.50977,-2.408203 0,-1.125 0.36914,-2.162109 0.36914,-1.03711 0.98438,-1.933594 0.63281,-0.896484 1.45898,-1.669922 0.82617,-0.773437 1.74024,-1.388672 0.93164,-0.615234 1.88086,-1.072265 0.96679,-0.439454 1.86328,-0.703125 L 328.8457,61.25 q -0.65039,-0.28125 -1.2832,-0.650391 -0.61523,-0.351562 -1.125,-0.84375 -0.49219,-0.492187 -0.80859,-1.107422 -0.29883,-0.632812 -0.29883,-1.423828 0,-0.896484 0.40429,-1.599609 0.42188,-0.720703 1.05469,-1.265625 0.63281,-0.5625 1.38867,-0.966797 0.75586,-0.404297 1.45899,-0.703125 -1.35352,-0.527344 -2.42578,-1.353516 -1.05469,-0.826171 -1.79297,-1.880859 -0.7207,-1.054687 -1.10742,-2.285156 -0.38672,-1.248047 -0.38672,-2.601563 0,-2.302734 0.89648,-4.253906 0.89649,-1.96875 2.40821,-3.392578 1.52929,-1.423828 3.5332,-2.232422 2.0039,-0.808594 4.21875,-0.808594 0.84375,0 1.54687,0.123047 0.70313,0.123047 1.30078,0.316406 0.59766,0.175782 1.08985,0.404297 0.50976,0.210938 0.94922,0.421875 0.66797,0.333985 1.30078,0.597657 0.65039,0.246093 1.49414,0.246093 0.70312,0 1.35351,-0.228515 0.6504,-0.228516 1.14258,-0.650391 0.49219,-0.439453 0.77344,-1.054687 0.29883,-0.632813 0.29883,-1.423829 0,-0.123046 -0.0176,-0.228515 0,-0.105469 -0.0176,-0.246094 L 346.42383,32 q 1.21289,0.5625 1.79297,1.40625 0.59765,0.826172 0.59765,1.669922 0,0.667969 -0.26367,1.195312 -0.26367,0.509766 -0.75586,0.878907 -0.47461,0.36914 -1.14258,0.5625 -0.66797,0.193359 -1.47656,0.193359 -1.23047,0 -2.6543,-0.492188 z m -11.5664,24.574219 q -1.24805,0.333984 -2.37305,0.966797 -1.10742,0.632812 -1.96875,1.529297 -0.86133,0.914062 -1.3711,2.074218 -0.49218,1.160157 -0.49218,2.53125 0,1.6875 0.73828,2.900391 0.75586,1.230469 1.93359,2.039062 1.19531,0.808594 2.6543,1.195313 1.45898,0.386719 2.88281,0.386719 1.9336,0 3.69141,-0.597657 1.75781,-0.580078 3.07617,-1.634765 1.33594,-1.03711 2.10937,-2.460938 0.79102,-1.423828 0.79102,-3.111328 0,-0.949219 -0.38672,-1.634765 -0.38672,-0.667969 -1.07226,-1.177735 -0.66797,-0.492187 -1.59961,-0.84375 -0.93164,-0.351562 -2.03907,-0.65039 -1.49414,-0.404297 -3.16406,-0.738282 -1.65234,-0.333984 -3.41015,-0.773437 z m 3.62109,-10.634766 q 0.94922,0 1.70508,-0.316406 0.77343,-0.333984 1.37109,-0.878906 0.59766,-0.544922 1.01953,-1.265625 0.42188,-0.738282 0.68555,-1.529297 0.28125,-0.808594 0.4043,-1.634766 0.14062,-0.84375 0.14062,-1.617187 0,-0.966797 -0.17578,-1.951172 -0.1582,-1.001953 -0.49219,-1.933594 -0.33398,-0.931641 -0.86133,-1.740234 -0.50976,-0.808594 -1.19531,-1.40625 -0.68555,-0.615235 -1.56445,-0.966797 -0.87891,-0.351563 -1.95117,-0.351563 -1.00196,0 -1.81055,0.316407 -0.79102,0.316406 -1.40625,0.861328 -0.61523,0.544922 -1.05469,1.265625 -0.42187,0.703125 -0.70312,1.511718 -0.26367,0.791016 -0.4043,1.617188 -0.12305,0.826172 -0.12305,1.582031 0,0.966797 0.17578,1.986328 0.17579,1.001953 0.52735,1.933594 0.35156,0.931641 0.8789,1.757813 0.54493,0.826171 1.24805,1.441406 0.7207,0.615234 1.61719,0.966797 0.89648,0.351562 1.96875,0.351562 z m 38.19726,-17.208984 q -0.1582,1.669922 -0.29882,3.550781 -0.12305,1.863281 -0.22852,3.744141 -0.10547,1.863281 -0.1582,3.65625 -0.0527,1.792968 -0.0527,3.304687 0,2.865235 0.33399,4.69336 0.33398,1.810546 0.86133,2.865234 0.52734,1.037109 1.19531,1.441406 0.68555,0.386719 1.37109,0.386719 0.4043,0 0.79102,-0.105469 0.40429,-0.105469 0.75586,-0.246094 0.35156,-0.158203 0.63281,-0.333984 0.29883,-0.175781 0.50977,-0.316406 l 0.58007,0.808594 q -0.50976,0.527343 -1.16015,1.001953 -0.65039,0.457031 -1.3711,0.791015 -0.7207,0.351563 -1.51172,0.544922 -0.79101,0.19336 -1.5996,0.19336 -1.01954,0 -1.98633,-0.404297 -0.94922,-0.404297 -1.70508,-1.353516 -0.73828,-0.966797 -1.19531,-2.548828 -0.45703,-1.599609 -0.45703,-3.955078 0,-0.75586 0.0351,-1.511719 0.0352,-0.773437 0.10547,-1.634766 0.0879,-0.861328 0.21094,-1.845703 0.12304,-0.984375 0.28125,-2.179687 l -0.19336,-0.03516 q -1.19531,4.412109 -2.60156,7.40039 -1.38868,2.988281 -2.86524,4.816406 -1.45898,1.828125 -2.93555,2.601563 -1.47656,0.791016 -2.8125,0.791016 -1.58203,0 -2.63671,-0.861329 -1.03711,-0.84375 -1.66993,-2.302734 -0.61523,-1.476562 -0.8789,-3.410156 -0.2461,-1.951172 -0.2461,-4.13086 0,-1.845703 0.10547,-3.779296 0.12305,-1.951172 0.29883,-3.814454 0.19336,-1.880859 0.42188,-3.568359 0.24609,-1.705078 0.49218,-3.041016 0.0879,-0.492187 0.28125,-0.791015 0.21094,-0.298828 0.47461,-0.457031 0.26367,-0.158204 0.58008,-0.210938 0.31641,-0.05273 0.63281,-0.05273 0.59766,0 1.10743,0.140625 0.52734,0.140625 1.0371,0.404297 -0.3164,1.986328 -0.59765,3.955078 -0.26367,1.96875 -0.47461,3.832031 -0.19336,1.845703 -0.31641,3.568359 -0.10547,1.722657 -0.10547,3.216797 0,1.617188 0.15821,2.953125 0.17578,1.31836 0.5625,2.267578 0.38672,0.949219 0.98437,1.476563 0.61524,0.509765 1.49414,0.509765 1.49414,0 3.0586,-1.599609 1.56445,-1.617187 2.98828,-4.710937 1.42383,-3.09375 2.42578,-6.94336 1.00195,-3.867187 1.2832,-8.332031 l 3.72656,-0.457031 z m 12.4629,-7.488281 q -0.61524,0 -1.08985,-0.246094 -0.47461,-0.263672 -0.80859,-0.667969 -0.33399,-0.421875 -0.50977,-0.949219 -0.17578,-0.544922 -0.17578,-1.107422 0,-0.791015 0.26367,-1.388671 0.26367,-0.615235 0.68555,-1.019532 0.42187,-0.421875 0.93164,-0.615234 0.50977,-0.210938 1.00195,-0.210938 0.59766,0 1.07227,0.228516 0.47461,0.210938 0.80859,0.597656 0.35157,0.386719 0.52735,0.896485 0.19336,0.492187 0.19336,1.072265 0,0.615235 -0.21094,1.230469 -0.21094,0.597656 -0.59766,1.089844 -0.36914,0.492187 -0.91406,0.791015 -0.52734,0.298829 -1.17773,0.298829 z m 1.52929,7.945312 q -0.29883,2.003906 -0.50976,4.025391 -0.21094,2.003906 -0.35157,3.884765 -0.12304,1.88086 -0.19336,3.56836 -0.0527,1.669922 -0.0527,3.023437 0,1.828125 0.0527,3.146485 0.0527,1.300781 0.17579,2.197265 0.12304,0.896485 0.29882,1.441406 0.19336,0.527344 0.45704,0.826172 0.28125,0.28125 0.63281,0.369141 0.36914,0.08789 0.82617,0.08789 0.84375,0 1.81055,-0.246094 0.98437,-0.263672 1.98632,-0.720703 l 0.33399,0.914062 q -0.63281,0.509766 -1.59961,1.03711 -0.94922,0.527343 -2.00391,0.966796 -1.05468,0.439454 -2.07422,0.703125 -1.00195,0.28125 -1.74023,0.28125 -0.49219,0 -0.89648,-0.08789 -0.4043,-0.07031 -0.73829,-0.386719 -0.3164,-0.316406 -0.58007,-0.931641 -0.2461,-0.615234 -0.42188,-1.669921 -0.1582,-1.054688 -0.24609,-2.636719 -0.0879,-1.582031 -0.0879,-3.832031 0,-1.31836 0.0176,-2.970704 0.0351,-1.669921 0.0879,-3.568359 0.0527,-1.916016 0.14062,-4.025391 0.0879,-2.126953 0.22852,-4.376953 0.0352,-0.492187 0.26367,-0.791015 0.22851,-0.316407 0.5625,-0.47461 0.33398,-0.175781 0.70312,-0.228515 0.38672,-0.07031 0.70313,-0.07031 1.17773,0 2.21484,0.544922 z m 10.21289,4.517578 q 0,-0.720703 -0.10547,-1.21289 -0.10546,-0.492188 -0.33398,-0.773438 -0.21094,-0.298828 -0.54492,-0.421875 -0.33399,-0.123047 -0.79102,-0.123047 -0.63281,0 -1.51172,0.175781 -0.8789,0.175782 -2.0039,0.47461 l -0.26367,-1.265625 q 1.24804,-0.439453 2.39062,-0.791016 1.16016,-0.36914 2.12695,-0.632812 0.9668,-0.263672 1.70508,-0.404297 0.73828,-0.140625 1.16016,-0.140625 1.01953,0 1.58203,0.615234 0.58008,0.597656 0.58008,2.074219 0,0.175781 -0.0352,0.826172 -0.0352,0.632812 -0.10547,1.617187 -0.0527,0.984375 -0.14062,2.267578 -0.0879,1.265625 -0.21094,2.707032 -0.10547,1.441406 -0.24609,2.988281 -0.14063,1.529297 -0.29883,3.058594 l 0.10547,0.01758 q 1.33593,-4.535156 2.86523,-7.646485 1.5293,-3.128906 3.11133,-5.0625 1.58203,-1.951171 3.14648,-2.8125 1.56446,-0.861328 2.98828,-0.861328 0.98438,0 1.89844,0.369141 0.91406,0.369141 1.61719,1.177734 0.7207,0.808594 1.14258,2.091797 0.42187,1.265625 0.42187,3.076172 0,0.527344 -0.0703,1.423828 -0.0527,0.878906 -0.14062,1.96875 -0.0879,1.089844 -0.21094,2.320313 -0.10547,1.21289 -0.19336,2.390625 -0.0879,1.177734 -0.1582,2.25 -0.0527,1.054687 -0.0527,1.845703 0,1.371094 0.10547,2.232422 0.12305,0.861328 0.38672,1.371093 0.26367,0.492188 0.70312,0.685547 0.43946,0.175782 1.07227,0.175782 0.91406,0 1.89844,-0.246094 0.98437,-0.263672 1.98632,-0.720703 l 0.33399,0.914062 q -0.63281,0.509766 -1.59961,1.03711 -0.9668,0.527343 -2.03906,0.966796 -1.05469,0.439454 -2.10938,0.703125 -1.05469,0.28125 -1.86328,0.28125 -0.94922,0 -1.49414,-0.509765 -0.54492,-0.509766 -0.82617,-1.388672 -0.26367,-0.878906 -0.35156,-2.056641 -0.0703,-1.177734 -0.0703,-2.53125 0,-1.652343 0.10547,-3.392578 0.12305,-1.757812 0.26367,-3.339844 0.14063,-1.582031 0.2461,-2.865234 0.12304,-1.300781 0.12304,-2.074219 0,-2.05664 -0.77343,-3.023437 -0.77344,-0.984375 -2.05664,-0.984375 -1.01953,0 -2.14453,0.861328 -1.125,0.861328 -2.25,2.373047 -1.10743,1.49414 -2.14454,3.550781 -1.01953,2.039063 -1.8457,4.429688 -0.82617,2.373046 -1.37109,4.974609 -0.54492,2.601562 -0.68555,5.203125 l -3.67383,0.457031 -0.28125,-0.01758 q 0.14063,-1.669922 0.26367,-3.638672 0.12305,-1.96875 0.22852,-3.990234 0.10547,-2.039063 0.17578,-4.025391 0.0879,-2.003906 0.14063,-3.726562 0.0703,-1.740235 0.0879,-3.111328 0.0352,-1.371094 0.0352,-2.16211 z"
       id="text5"
       style="font-size:72px;font-family:Gabriola;-inkscape-font-specification:'Gabriola, Normal';white-space:pre"
       transform="translate(0,27.887695)"
       aria-label="Ticket Penguin" />
  </g>
</svg>
