<?xml version="1.0" encoding="UTF-8" standalone="no"?>
<svg
   version="1.1"
   width="550"
   height="270"
   id="svg3"
   sodipodi:docname="penguin-icon-transparent-with-text-tall.svg"
   inkscape:version="1.4 (86a8ad7, 2024-10-11)"
   xmlns:inkscape="http://www.inkscape.org/namespaces/inkscape"
   xmlns:sodipodi="http://sodipodi.sourceforge.net/DTD/sodipodi-0.dtd"
   xmlns="http://www.w3.org/2000/svg"
   xmlns:svg="http://www.w3.org/2000/svg">
  <defs
     id="defs3">
    <rect
       x="242.6216"
       y="-2.2258861"
       width="364.60016"
       height="270.2226"
       id="rect1" />
    <rect
       x="246.62819"
       y="1.3355317"
       width="452.30008"
       height="269.33224"
       id="rect3" />
  </defs>
  <sodipodi:namedview
     id="namedview3"
     pagecolor="#505050"
     bordercolor="#ffffff"
     borderopacity="1"
     inkscape:showpageshadow="0"
     inkscape:pageopacity="0"
     inkscape:pagecheckerboard="1"
     inkscape:deskcolor="#505050"
     inkscape:zoom="2.2462963"
     inkscape:cx="332.99258"
     inkscape:cy="89.703215"
     inkscape:window-width="2400"
     inkscape:window-height="1244"
     inkscape:window-x="-11"
     inkscape:window-y="628"
     inkscape:window-maximized="1"
     inkscape:current-layer="svg3" />
  <path
     d="m 127.75,12.6875 c 0.71301,0.0049 1.42603,0.0098 2.16064,0.01489 C 135.49852,12.826469 139.97229,13.626846 145,16 c 0.87656,0.39832 1.75312,0.796641 2.65625,1.207031 C 151.65824,19.110277 154.96198,20.734998 158,24 c 1.17562,0.928125 1.17562,0.928125 2.375,1.875 4.4164,3.575182 8.27281,7.531258 11.625,12.125 0,0.66 0,1.32 0,2 0.5775,0.185625 1.155,0.37125 1.75,0.5625 2.42737,1.550821 3.0264,2.525886 4.375,5 1.46975,3.47282 1.46975,3.47282 3.875,4.4375 1.28906,1.996094 1.28906,1.996094 2.625,4.4375 0.44602,0.803086 0.89203,1.606172 1.35156,2.433594 C 187,59 187,59 187,61 c 0.66,0 1.32,0 2,0 0.83849,1.455376 1.67064,2.914404 2.5,4.375 0.46406,0.812109 0.92812,1.624219 1.40625,2.460937 C 194,70 194,70 194,72 c 0.66,0 1.32,0 2,0 1.00484,1.955853 2.00374,3.914762 3,5.875 0.55687,1.090547 1.11375,2.181094 1.6875,3.304687 C 202,84 202,84 202,86 c 0.66,0 1.32,0 2,0 0.84026,1.767555 1.67199,3.539173 2.5,5.3125 0.46406,0.986133 0.92812,1.972266 1.40625,2.988281 C 209,97 209,97 209,100 c 0.66,0 1.32,0 2,0 0.83719,2.29032 1.66989,4.58211 2.5,6.875 0.23848,0.65098 0.47695,1.30195 0.72266,1.97266 C 216,113.77344 216,113.77344 216,116 c 0.66,0 1.32,0 2,0 0.84179,2.72681 1.67363,5.45601 2.5,8.1875 0.23848,0.76893 0.47695,1.53785 0.72266,2.33008 1.17948,3.92598 2.10997,7.33291 1.77734,11.48242 0.66,0 1.32,0 2,0 3.82089,18.01277 7.62248,43.75504 -1,61 -0.66,0 -1.32,0 -2,0 -0.0825,0.825 -0.165,1.65 -0.25,2.5 -2.05534,9.59157 -7.98718,15.73718 -14.75,22.5 -1.70769,1.96969 -3.35399,3.97776 -5,6 -1.32,-0.33 -2.64,-0.66 -4,-1 0.33,-1.98 0.66,-3.96 1,-6 0.66,0 1.32,0 2,0 2.28057,-12.81464 3.30944,-25.43566 3.3125,-38.4375 0.005,-1.31291 0.0103,-2.62582 0.0156,-3.97852 C 204.26473,171.55916 203.38868,162.90197 202,154 c -0.99,0 -1.98,0 -3,0 0,0.66 0,1.32 0,2 -2.24296,2.71517 -4.97284,4.25939 -8,6 -0.99,0.66 -1.98,1.32 -3,2 -0.99,0 -1.98,0 -3,0 0,0.66 0,1.32 0,2 -2.08,0.84162 -4.16414,1.67301 -6.25,2.5 -1.16015,0.46406 -2.32031,0.92812 -3.51562,1.40625 C 172,171 172,171 168,171 c 0,0.66 0,1.32 0,2 -11.01495,2.16755 -21.78026,3.56208 -33,4 1.75817,-3.80403 4.02856,-6.02856 7,-9 1.01877,-1.31904 2.01791,-2.65342 3,-4 2.42969,-3.31378 5.05382,-6.12568 8,-9 4.50458,-4.95118 4.50458,-4.95118 8.58594,-10.24609 C 162.2859,143.88572 162.2859,143.88572 163,143 c 0.66,0 1.32,0 2,0 0.11473,-0.57234 0.22945,-1.14469 0.34766,-1.73438 0.71416,-2.48034 1.72542,-4.32931 3.08984,-6.51562 0.43184,-0.70641 0.86367,-1.41281 1.30859,-2.14062 0.62069,-0.79665 0.62069,-0.79665 1.25391,-1.60938 0.66,0 1.32,0 2,0 0.19336,-0.58008 0.38672,-1.16016 0.58594,-1.75781 0.26039,-0.78117 0.52078,-1.56235 0.78906,-2.36719 0.27199,-0.82887 0.54398,-1.65773 0.82422,-2.51172 0.60562,-1.78732 1.281,-3.5512 1.98828,-5.30078 1.41118,-5.31907 1.37777,-10.64726 0.125,-16 C 175.64385,100.44034 173.68712,99.484989 171,98 c 0,-0.66 0,-1.32 0,-2 -18.6045,-5.39802 -38.15129,-4.890616 -57,-1 0,0.66 0,1.32 0,2 -4.38461,3 -4.38461,3 -7,3 -0.495,1.485 -0.495,1.485 -1,3 -0.66,0 -1.32,0 -2,0 -0.16891,2.229 -0.33504,4.45821 -0.5,6.6875 -0.13922,1.86205 -0.13922,1.86205 -0.28125,3.76172 C 103.0422,116.31499 102.95611,119.131 103,122 c 0.66,0 1.32,0 2,0 0.40992,1.21559 0.81984,2.43117 1.24219,3.68359 0.54388,1.58477 1.08817,3.1694 1.63281,4.75391 0.26941,0.80244 0.53883,1.60488 0.81641,2.43164 0.26425,0.76377 0.52851,1.52754 0.80078,2.31445 0.24089,0.70697 0.48178,1.41394 0.72998,2.14234 0.65969,1.87446 0.65969,1.87446 2.77783,2.67407 1.34161,2.47069 2.4983,5.00575 3.68359,7.55469 1.24832,2.31882 2.43713,3.65122 4.31641,5.44531 0.70655,1.14295 1.37417,2.31093 2,3.5 1.12994,2.06939 1.97756,3.47839 3.6875,5.125 1.83968,1.92729 1.96319,3.79011 2.3125,6.375 -6.4985,-0.51554 -12.66226,-1.46668 -19,-3 0,-0.66 0,-1.32 0,-2 -0.81791,-0.14695 -0.81791,-0.14695 -1.65234,-0.29688 C 101.16683,161.27923 94.165848,159.40912 89,154 c -1.646058,-1.03357 -3.309634,-2.0406 -5,-3 -0.66,3.3 -1.32,6.6 -2,10 -0.66,0 -1.32,0 -2,0 -0.33,13.53 -0.66,27.06 -1,41 0.66,0 1.32,0 2,0 1.32,7.92 2.64,15.84 4,24 -4.103286,-1.02582 -4.685033,-1.32572 -7.1875,-4.375 -0.50918,-0.60586 -1.018359,-1.21172 -1.542969,-1.83594 C 75,218 75,218 74,215 73.401875,214.44312 72.80375,213.88625 72.1875,213.3125 68.678777,209.60328 66,205.17625 66,200 c -0.66,0 -1.32,0 -2,0 -2.950257,-8.49674 -5.323483,-15.94249 -5,-25 -0.66,0 -1.32,0 -2,0 -0.02685,-2.31244 -0.04633,-4.62496 -0.0625,-6.9375 -0.0116,-1.28777 -0.0232,-2.57555 -0.03516,-3.90234 C 57,161 57,161 57.999996,160 c 0.04093,-2.33297 0.04242,-4.66705 0,-7 0.66,0 1.32,0 2,0 -0.06188,-0.95004 -0.12375,-1.90008 -0.1875,-2.87891 0,-4.97827 1.609541,-9.38513 3.1875,-14.05859 0.286172,-0.87463 0.572344,-1.74926 0.867188,-2.65039 0.701825,-2.14057 1.412896,-4.27757 2.132812,-6.41211 0.66,0 1.32,0 2,0 0.0825,-0.80437 0.165,-1.60875 0.25,-2.4375 0.951967,-4.52184 2.765802,-8.40953 4.75,-12.5625 0.66,0 1.32,0 2,0 0.112148,-0.85852 0.224297,-1.71703 0.339844,-2.60156 0.686638,-3.53477 1.793103,-6.47447 3.222656,-9.77344 0.455039,-1.059609 0.910078,-2.119219 1.378906,-3.210938 0.349336,-0.79664 0.698672,-1.593281 1.058594,-2.414062 0.66,0 1.32,0 2,0 0.181758,-0.629063 0.363516,-1.258125 0.550781,-1.90625 C 85.155522,86.629389 86.935851,81.307803 88.999996,76 c 0.66,0 1.32,0 2,0 0,-6.6 0,-13.2 0,-20 -0.66,0 -1.32,0 -2,0 -2,-3 -2,-3 -2,-6 -0.71543,-0.286172 -1.430859,-0.572344 -2.167969,-0.867188 C 80.554684,47.421875 76.27734,45.710937 71.999996,44 c 0,-0.66 0,-1.32 0,-2 -4.29,-0.66 -8.58,-1.32 -13,-2 0,-0.66 0,-1.32 0,-2 2.64,-0.66 5.28,-1.32 8,-2 0,-0.66 0,-1.32 0,-2 0.68707,-0.193359 1.374141,-0.386719 2.082031,-0.585938 0.901055,-0.26039 1.80211,-0.520781 2.730469,-0.789062 0.89332,-0.255234 1.786641,-0.510469 2.707031,-0.773438 2.685148,-0.804229 2.685148,-0.804229 5.480469,-2.851562 1.32,0 2.64,0 4,0 0,-0.66 0,-1.32 0,-2 9.201183,-4.589452 18.048114,-8.675706 28.046874,-11.210937 2.91331,-0.693636 2.91331,-0.693636 5.35938,-1.871094 3.44681,-1.21988 6.73182,-1.259741 10.34375,-1.230469 z m -4.125,19.875 C 121.35029,35.974559 121.36465,37.976118 122,42 c 1.9594,3.126411 1.9594,3.126411 5,5 3.63006,0.07408 5.39249,-0.584335 8.375,-2.625 2.19706,-3.211087 1.91757,-5.571588 1.625,-9.375 -0.66,0 -1.32,0 -2,0 -0.33,-0.99 -0.66,-1.98 -1,-3 -3.7278,-1.863898 -6.90961,-1.717359 -10.375,0.5625 z"
     fill="#000000"
     id="path1" />
  <path
     d="m 183,239 c 0.495,1.485 0.495,1.485 1,3 0.99,0.66 1.98,1.32 3,2 0.75,3.0625 0.75,3.0625 1,6 -1,1 -1,1 -4.96899,1.11352 -1.77207,-1.5e-4 -3.54413,-0.006 -5.31617,-0.0159 -0.93082,-0.001 -1.86163,-0.003 -2.82066,-0.004 -2.98559,-0.006 -5.97111,-0.0182 -8.95668,-0.0309 -2.01888,-0.005 -4.03776,-0.01 -6.05664,-0.0137 -4.96032,-0.011 -9.92058,-0.0283 -14.88086,-0.0488 -1,-3 -1,-3 -0.5,-5.3125 2.38912,-4.28051 5.95125,-7.94282 10.74609,-9.34375 C 164.56794,235.18017 174.39254,234.92278 183,239 Z"
     fill="#f96935"
     id="path2" />
  <path
     d="m 135,240 c 3.11892,2.92399 3.62602,5.79268 4,10 -1,1 -1,1 -4.8772,1.11352 -1.72974,-1.5e-4 -3.45949,-0.006 -5.18921,-0.0159 -0.90862,-0.001 -1.81724,-0.003 -2.7534,-0.004 -2.91426,-0.006 -5.82845,-0.0182 -8.74269,-0.0309 -1.9707,-0.005 -3.94141,-0.01 -5.91211,-0.0137 C 106.68356,251.03778 101.84179,251.0205 97,251 96,248 96,248 97.3125,244.9375 99,242 99,242 101,240 c 0.99,0 1.98,0 3,0 0.33,-0.99 0.66,-1.98 1,-3 9.57877,-2.28331 21.63859,-2.78714 30,3 z"
     fill="#f96935"
     id="path3" />
  <text
     xml:space="preserve"
     id="text1"
     style="font-size:120px;line-height:0.9;font-family:Gabriola;-inkscape-font-specification:'Gabriola, Normal';text-align:start;writing-mode:lr-tb;direction:ltr;white-space:pre;shape-inside:url(#rect1);fill:#000000"
     transform="translate(2.6913437,31.878626)"><tspan
       x="242.62109"
       y="73.804686"
       id="tspan2">Ticket
</tspan><tspan
       x="242.62109"
       y="181.80469"
       id="tspan3">Penguin</tspan></text>
</svg>
