<?xml version="1.0" encoding="UTF-8" standalone="no"?>
<svg
   version="1.1"
   width="700"
   height="270"
   id="svg3"
   sodipodi:docname="penguin-icon-transparent-with-text.svg"
   inkscape:version="1.4 (86a8ad7, 2024-10-11)"
   xmlns:inkscape="http://www.inkscape.org/namespaces/inkscape"
   xmlns:sodipodi="http://sodipodi.sourceforge.net/DTD/sodipodi-0.dtd"
   xmlns="http://www.w3.org/2000/svg"
   xmlns:svg="http://www.w3.org/2000/svg">
  <defs
     id="defs3">
    <rect
       x="246.62819"
       y="1.3355317"
       width="452.30008"
       height="269.33223"
       id="rect3" />
  </defs>
  <sodipodi:namedview
     id="namedview3"
     pagecolor="#505050"
     bordercolor="#ffffff"
     borderopacity="1"
     inkscape:showpageshadow="0"
     inkscape:pageopacity="0"
     inkscape:pagecheckerboard="1"
     inkscape:deskcolor="#505050"
     inkscape:zoom="2.2462963"
     inkscape:cx="332.99258"
     inkscape:cy="89.258038"
     inkscape:window-width="2560"
     inkscape:window-height="1494"
     inkscape:window-x="2389"
     inkscape:window-y="-11"
     inkscape:window-maximized="1"
     inkscape:current-layer="svg3" />
  <path
     d="m 127.75,12.6875 c 0.71301,0.0049 1.42603,0.0098 2.16064,0.01489 C 135.49852,12.826469 139.97229,13.626846 145,16 c 0.87656,0.39832 1.75312,0.796641 2.65625,1.207031 C 151.65824,19.110277 154.96198,20.734998 158,24 c 1.17562,0.928125 1.17562,0.928125 2.375,1.875 4.4164,3.575182 8.27281,7.531258 11.625,12.125 0,0.66 0,1.32 0,2 0.5775,0.185625 1.155,0.37125 1.75,0.5625 2.42737,1.550821 3.0264,2.525886 4.375,5 1.46975,3.47282 1.46975,3.47282 3.875,4.4375 1.28906,1.996094 1.28906,1.996094 2.625,4.4375 0.44602,0.803086 0.89203,1.606172 1.35156,2.433594 C 187,59 187,59 187,61 c 0.66,0 1.32,0 2,0 0.83849,1.455376 1.67064,2.914404 2.5,4.375 0.46406,0.812109 0.92812,1.624219 1.40625,2.460937 C 194,70 194,70 194,72 c 0.66,0 1.32,0 2,0 1.00484,1.955853 2.00374,3.914762 3,5.875 0.55687,1.090547 1.11375,2.181094 1.6875,3.304687 C 202,84 202,84 202,86 c 0.66,0 1.32,0 2,0 0.84026,1.767555 1.67199,3.539173 2.5,5.3125 0.46406,0.986133 0.92812,1.972266 1.40625,2.988281 C 209,97 209,97 209,100 c 0.66,0 1.32,0 2,0 0.83719,2.29032 1.66989,4.58211 2.5,6.875 0.23848,0.65098 0.47695,1.30195 0.72266,1.97266 C 216,113.77344 216,113.77344 216,116 c 0.66,0 1.32,0 2,0 0.84179,2.72681 1.67363,5.45601 2.5,8.1875 0.23848,0.76893 0.47695,1.53785 0.72266,2.33008 1.17948,3.92598 2.10997,7.33291 1.77734,11.48242 0.66,0 1.32,0 2,0 3.82089,18.01277 7.62248,43.75504 -1,61 -0.66,0 -1.32,0 -2,0 -0.0825,0.825 -0.165,1.65 -0.25,2.5 -2.05534,9.59157 -7.98718,15.73718 -14.75,22.5 -1.70769,1.96969 -3.35399,3.97776 -5,6 -1.32,-0.33 -2.64,-0.66 -4,-1 0.33,-1.98 0.66,-3.96 1,-6 0.66,0 1.32,0 2,0 2.28057,-12.81464 3.30944,-25.43566 3.3125,-38.4375 0.005,-1.31291 0.0103,-2.62582 0.0156,-3.97852 C 204.26473,171.55916 203.38868,162.90197 202,154 c -0.99,0 -1.98,0 -3,0 0,0.66 0,1.32 0,2 -2.24296,2.71517 -4.97284,4.25939 -8,6 -0.99,0.66 -1.98,1.32 -3,2 -0.99,0 -1.98,0 -3,0 0,0.66 0,1.32 0,2 -2.08,0.84162 -4.16414,1.67301 -6.25,2.5 -1.16015,0.46406 -2.32031,0.92812 -3.51562,1.40625 C 172,171 172,171 168,171 c 0,0.66 0,1.32 0,2 -11.01495,2.16755 -21.78026,3.56208 -33,4 1.75817,-3.80403 4.02856,-6.02856 7,-9 1.01877,-1.31904 2.01791,-2.65342 3,-4 2.42969,-3.31378 5.05382,-6.12568 8,-9 4.50458,-4.95118 4.50458,-4.95118 8.58594,-10.24609 C 162.2859,143.88572 162.2859,143.88572 163,143 c 0.66,0 1.32,0 2,0 0.11473,-0.57234 0.22945,-1.14469 0.34766,-1.73438 0.71416,-2.48034 1.72542,-4.32931 3.08984,-6.51562 0.43184,-0.70641 0.86367,-1.41281 1.30859,-2.14062 0.62069,-0.79665 0.62069,-0.79665 1.25391,-1.60938 0.66,0 1.32,0 2,0 0.19336,-0.58008 0.38672,-1.16016 0.58594,-1.75781 0.26039,-0.78117 0.52078,-1.56235 0.78906,-2.36719 0.27199,-0.82887 0.54398,-1.65773 0.82422,-2.51172 0.60562,-1.78732 1.281,-3.5512 1.98828,-5.30078 1.41118,-5.31907 1.37777,-10.64726 0.125,-16 C 175.64385,100.44034 173.68712,99.484989 171,98 c 0,-0.66 0,-1.32 0,-2 -18.6045,-5.39802 -38.15129,-4.890616 -57,-1 0,0.66 0,1.32 0,2 -4.38461,3 -4.38461,3 -7,3 -0.495,1.485 -0.495,1.485 -1,3 -0.66,0 -1.32,0 -2,0 -0.16891,2.229 -0.33504,4.45821 -0.5,6.6875 -0.13922,1.86205 -0.13922,1.86205 -0.28125,3.76172 C 103.0422,116.31499 102.95611,119.131 103,122 c 0.66,0 1.32,0 2,0 0.40992,1.21559 0.81984,2.43117 1.24219,3.68359 0.54388,1.58477 1.08817,3.1694 1.63281,4.75391 0.26941,0.80244 0.53883,1.60488 0.81641,2.43164 0.26425,0.76377 0.52851,1.52754 0.80078,2.31445 0.24089,0.70697 0.48178,1.41394 0.72998,2.14234 0.65969,1.87446 0.65969,1.87446 2.77783,2.67407 1.34161,2.47069 2.4983,5.00575 3.68359,7.55469 1.24832,2.31882 2.43713,3.65122 4.31641,5.44531 0.70655,1.14295 1.37417,2.31093 2,3.5 1.12994,2.06939 1.97756,3.47839 3.6875,5.125 1.83968,1.92729 1.96319,3.79011 2.3125,6.375 -6.4985,-0.51554 -12.66226,-1.46668 -19,-3 0,-0.66 0,-1.32 0,-2 -0.81791,-0.14695 -0.81791,-0.14695 -1.65234,-0.29688 C 101.16683,161.27923 94.165848,159.40912 89,154 c -1.646058,-1.03357 -3.309634,-2.0406 -5,-3 -0.66,3.3 -1.32,6.6 -2,10 -0.66,0 -1.32,0 -2,0 -0.33,13.53 -0.66,27.06 -1,41 0.66,0 1.32,0 2,0 1.32,7.92 2.64,15.84 4,24 -4.103286,-1.02582 -4.685033,-1.32572 -7.1875,-4.375 -0.50918,-0.60586 -1.018359,-1.21172 -1.542969,-1.83594 C 75,218 75,218 74,215 73.401875,214.44312 72.80375,213.88625 72.1875,213.3125 68.678777,209.60328 66,205.17625 66,200 c -0.66,0 -1.32,0 -2,0 -2.950257,-8.49674 -5.323483,-15.94249 -5,-25 -0.66,0 -1.32,0 -2,0 -0.02685,-2.31244 -0.04633,-4.62496 -0.0625,-6.9375 -0.0116,-1.28777 -0.0232,-2.57555 -0.03516,-3.90234 C 57,161 57,161 57.999996,160 c 0.04093,-2.33297 0.04242,-4.66705 0,-7 0.66,0 1.32,0 2,0 -0.06188,-0.95004 -0.12375,-1.90008 -0.1875,-2.87891 0,-4.97827 1.609541,-9.38513 3.1875,-14.05859 0.286172,-0.87463 0.572344,-1.74926 0.867188,-2.65039 0.701825,-2.14057 1.412896,-4.27757 2.132812,-6.41211 0.66,0 1.32,0 2,0 0.0825,-0.80437 0.165,-1.60875 0.25,-2.4375 0.951967,-4.52184 2.765802,-8.40953 4.75,-12.5625 0.66,0 1.32,0 2,0 0.112148,-0.85852 0.224297,-1.71703 0.339844,-2.60156 0.686638,-3.53477 1.793103,-6.47447 3.222656,-9.77344 0.455039,-1.059609 0.910078,-2.119219 1.378906,-3.210938 0.349336,-0.79664 0.698672,-1.593281 1.058594,-2.414062 0.66,0 1.32,0 2,0 0.181758,-0.629063 0.363516,-1.258125 0.550781,-1.90625 C 85.155522,86.629389 86.935851,81.307803 88.999996,76 c 0.66,0 1.32,0 2,0 0,-6.6 0,-13.2 0,-20 -0.66,0 -1.32,0 -2,0 -2,-3 -2,-3 -2,-6 -0.71543,-0.286172 -1.430859,-0.572344 -2.167969,-0.867188 C 80.554684,47.421875 76.27734,45.710937 71.999996,44 c 0,-0.66 0,-1.32 0,-2 -4.29,-0.66 -8.58,-1.32 -13,-2 0,-0.66 0,-1.32 0,-2 2.64,-0.66 5.28,-1.32 8,-2 0,-0.66 0,-1.32 0,-2 0.68707,-0.193359 1.374141,-0.386719 2.082031,-0.585938 0.901055,-0.26039 1.80211,-0.520781 2.730469,-0.789062 0.89332,-0.255234 1.786641,-0.510469 2.707031,-0.773438 2.685148,-0.804229 2.685148,-0.804229 5.480469,-2.851562 1.32,0 2.64,0 4,0 0,-0.66 0,-1.32 0,-2 9.201183,-4.589452 18.048114,-8.675706 28.046874,-11.210937 2.91331,-0.693636 2.91331,-0.693636 5.35938,-1.871094 3.44681,-1.21988 6.73182,-1.259741 10.34375,-1.230469 z m -4.125,19.875 C 121.35029,35.974559 121.36465,37.976118 122,42 c 1.9594,3.126411 1.9594,3.126411 5,5 3.63006,0.07408 5.39249,-0.584335 8.375,-2.625 2.19706,-3.211087 1.91757,-5.571588 1.625,-9.375 -0.66,0 -1.32,0 -2,0 -0.33,-0.99 -0.66,-1.98 -1,-3 -3.7278,-1.863898 -6.90961,-1.717359 -10.375,0.5625 z"
     fill="#000000"
     id="path1" />
  <path
     d="m 183,239 c 0.495,1.485 0.495,1.485 1,3 0.99,0.66 1.98,1.32 3,2 0.75,3.0625 0.75,3.0625 1,6 -1,1 -1,1 -4.96899,1.11352 -1.77207,-1.5e-4 -3.54413,-0.006 -5.31617,-0.0159 -0.93082,-0.001 -1.86163,-0.003 -2.82066,-0.004 -2.98559,-0.006 -5.97111,-0.0182 -8.95668,-0.0309 -2.01888,-0.005 -4.03776,-0.01 -6.05664,-0.0137 -4.96032,-0.011 -9.92058,-0.0283 -14.88086,-0.0488 -1,-3 -1,-3 -0.5,-5.3125 2.38912,-4.28051 5.95125,-7.94282 10.74609,-9.34375 C 164.56794,235.18017 174.39254,234.92278 183,239 Z"
     fill="#f96935"
     id="path2" />
  <path
     d="m 135,240 c 3.11892,2.92399 3.62602,5.79268 4,10 -1,1 -1,1 -4.8772,1.11352 -1.72974,-1.5e-4 -3.45949,-0.006 -5.18921,-0.0159 -0.90862,-0.001 -1.81724,-0.003 -2.7534,-0.004 -2.91426,-0.006 -5.82845,-0.0182 -8.74269,-0.0309 -1.9707,-0.005 -3.94141,-0.01 -5.91211,-0.0137 C 106.68356,251.03778 101.84179,251.0205 97,251 96,248 96,248 97.3125,244.9375 99,242 99,242 101,240 c 0.99,0 1.98,0 3,0 0.33,-0.99 0.66,-1.98 1,-3 9.57877,-2.28331 21.63859,-2.78714 30,3 z"
     fill="#f96935"
     id="path3" />
  <path
     d="m 248.63281,29.513672 -1.74023,-0.05273 q -0.0527,-2.126953 -0.0527,-3.779296 0,-1.705079 0.15821,-2.917969 0.1582,-1.230469 0.65039,-2.021485 0.50976,-0.791015 1.45898,-1.160156 0.9668,-0.36914 2.54883,-0.36914 1.00195,0 2.30273,0.05273 1.30079,0.05273 2.74219,0.105469 1.44141,0.05273 2.95313,0.105468 1.52929,0.05273 2.95312,0.05273 2.39063,0 4.21875,0 1.82813,-0.01758 3.25195,-0.03516 1.42383,-0.01758 2.4961,-0.05273 1.07226,-0.03516 1.95117,-0.105469 0.89648,-0.07031 1.65234,-0.158203 0.77344,-0.105468 1.56446,-0.246093 0.29883,0.84375 0.29883,1.388671 0,1.160157 -0.98438,1.775391 -0.9668,0.615234 -2.88281,0.615234 -1.81055,0 -4.27149,-0.210937 -2.44336,-0.228516 -5.51953,-0.439453 -0.0527,2.601562 -0.14062,5.554687 -0.0703,2.953125 -0.15821,6.117188 -0.0879,3.146484 -0.19336,6.451172 -0.0879,3.287109 -0.19335,6.591797 -0.10547,3.287109 -0.21094,6.521484 -0.0879,3.234375 -0.17578,6.257812 l -4.16602,0.527344 -0.31641,-0.03516 q 0.14063,-3.357422 0.26368,-6.433594 0.12304,-3.09375 0.22851,-6.064453 0.10547,-2.970703 0.19336,-5.923828 0.0879,-2.970703 0.14063,-6.099609 0.0527,-3.128907 0.0879,-6.503907 0.0351,-3.392578 0.0351,-7.207031 -1.00195,-0.03516 -2.03906,-0.05273 -1.03711,-0.03516 -2.10937,-0.03516 -1.07227,0 -2.00391,0.03516 -0.93164,0.03516 -1.70508,0.246093 -0.77344,0.210938 -1.38867,0.667969 -0.61523,0.439453 -1.03711,1.265625 -0.42187,0.808594 -0.65039,2.074219 -0.21094,1.265625 -0.21094,3.09375 z M 282.875,26.876953 q -0.61523,0 -1.08984,-0.246094 -0.47461,-0.263672 -0.8086,-0.667968 -0.33398,-0.421875 -0.50976,-0.949219 -0.17578,-0.544922 -0.17578,-1.107422 0,-0.791016 0.26367,-1.388672 0.26367,-0.615234 0.68554,-1.019531 0.42188,-0.421875 0.93164,-0.615235 0.50977,-0.210937 1.00196,-0.210937 0.59765,0 1.07226,0.228516 0.47461,0.210937 0.8086,0.597656 0.35156,0.386719 0.52734,0.896484 0.19336,0.492188 0.19336,1.072266 0,0.615234 -0.21094,1.230469 -0.21093,0.597656 -0.59765,1.089843 -0.36914,0.492188 -0.91407,0.791016 -0.52734,0.298828 -1.17773,0.298828 z m 1.5293,7.945313 q -0.29883,2.003906 -0.50977,4.02539 -0.21094,2.003906 -0.35156,3.884766 -0.12305,1.880859 -0.19336,3.568359 -0.0527,1.669922 -0.0527,3.023438 0,1.828125 0.0527,3.146484 0.0527,1.300781 0.17578,2.197266 0.12305,0.896484 0.29883,1.441406 0.19336,0.527344 0.45703,0.826172 0.28125,0.28125 0.63281,0.36914 0.36914,0.08789 0.82617,0.08789 0.84375,0 1.81055,-0.246094 0.98438,-0.263672 1.98633,-0.720703 l 0.33398,0.914063 q -0.63281,0.509765 -1.59961,1.037109 -0.94921,0.527344 -2.0039,0.966797 -1.05469,0.439453 -2.07422,0.703125 -1.00195,0.28125 -1.74024,0.28125 -0.49218,0 -0.89648,-0.08789 -0.4043,-0.07031 -0.73828,-0.386718 -0.31641,-0.316407 -0.58008,-0.931641 -0.24609,-0.615234 -0.42187,-1.669922 -0.15821,-1.054687 -0.2461,-2.636719 -0.0879,-1.582031 -0.0879,-3.832031 0,-1.318359 0.0176,-2.970703 0.0352,-1.669922 0.0879,-3.568359 0.0527,-1.916016 0.14063,-4.025391 0.0879,-2.126953 0.22851,-4.376953 0.0352,-0.492188 0.26367,-0.791016 0.22852,-0.316406 0.5625,-0.474609 0.33399,-0.175781 0.70313,-0.228516 0.38672,-0.07031 0.70312,-0.07031 1.17774,0 2.21485,0.544922 z m 21.51562,6.679687 q 0.49219,-0.966797 0.49219,-1.96875 0,-0.685547 -0.24609,-1.283203 -0.22852,-0.615234 -0.70313,-1.072266 -0.47461,-0.474609 -1.19531,-0.738281 -0.70313,-0.28125 -1.65235,-0.28125 -1.37109,0 -2.46093,0.492188 -1.08985,0.474609 -1.9336,1.318359 -0.82617,0.84375 -1.42383,1.951172 -0.58007,1.107422 -0.96679,2.373047 -0.36914,1.265625 -0.54492,2.601562 -0.17579,1.31836 -0.17579,2.583985 0,2.267578 0.58008,4.130859 0.59766,1.845703 1.59961,3.164062 1.00196,1.300782 2.33789,2.021485 1.33594,0.720703 2.84766,0.720703 1.59961,0 3.23437,-0.826172 1.65235,-0.84375 3.19922,-2.707031 0.10547,0.05273 0.26367,0.158203 0.17579,0.08789 0.31641,0.210937 0.14063,0.123047 0.24609,0.246094 0.10547,0.123047 0.10547,0.228516 0,0.07031 -0.0176,0.08789 l -0.0352,0.07031 q -1.70508,2.759766 -4.0957,4.130859 -2.39063,1.371094 -5.23829,1.371094 -1.54687,0 -2.84765,-0.439453 -1.30078,-0.421875 -2.35547,-1.177734 -1.05469,-0.773438 -1.86328,-1.810547 -0.79102,-1.054688 -1.33594,-2.267578 -0.52734,-1.230469 -0.80859,-2.566407 -0.26367,-1.353515 -0.26367,-2.724609 0,-1.845703 0.40429,-3.691406 0.4043,-1.863282 1.17774,-3.56836 0.79101,-1.722656 1.89843,-3.199218 1.125,-1.494141 2.53125,-2.583985 1.42383,-1.107422 3.12891,-1.722656 1.70508,-0.632813 3.63867,-0.632813 1.44141,0 2.68946,0.351563 1.24804,0.351562 2.14453,1.001953 0.91406,0.632813 1.42382,1.546875 0.52735,0.896484 0.52735,2.003906 0,0.720703 -0.22852,1.283203 -0.21093,0.544922 -0.61523,0.949219 -0.38672,0.386719 -0.93164,0.597656 -0.52735,0.19336 -1.16016,0.19336 -0.38672,0 -0.80859,-0.07031 -0.4043,-0.08789 -0.8086,-0.263672 z m 17.20899,6.732422 q 2.10937,-0.703125 3.84961,-1.599609 1.74023,-0.896485 2.98828,-1.916016 1.26562,-1.019531 1.95117,-2.144531 0.68555,-1.125 0.68555,-2.302735 0,-0.492187 -0.19336,-0.896484 -0.17579,-0.421875 -0.49219,-0.703125 -0.29883,-0.298828 -0.7207,-0.457031 -0.4043,-0.158203 -0.87891,-0.158203 -1.10742,0 -2.30274,0.685546 -1.17773,0.685547 -2.35546,1.986329 -1.16016,1.300781 -2.26758,3.18164 -1.10742,1.88086 -2.05664,4.271485 -0.94922,2.390625 -1.70508,5.255859 -0.75586,2.865234 -1.21289,6.117187 l -3.55078,0.457032 -0.28125,-0.01758 q 0.10547,-2.074219 0.22851,-4.570313 0.14063,-2.513672 0.28125,-5.326172 0.15821,-2.8125 0.31641,-5.853515 0.17578,-3.058594 0.33398,-6.222657 0.17578,-3.164062 0.35157,-6.380859 0.17578,-3.216797 0.33398,-6.345703 0.17578,-3.146485 0.33398,-6.152344 0.15821,-3.005859 0.29883,-5.748047 0.0176,-0.421875 0.2461,-0.720703 0.22851,-0.316406 0.58007,-0.492187 0.36915,-0.19336 0.82618,-0.28125 0.45703,-0.08789 0.94922,-0.08789 1.05468,0 2.21484,0.5625 -0.4043,3.603516 -0.7207,6.609375 -0.31641,3.005859 -0.58008,5.589844 -0.2461,2.566406 -0.45703,4.816406 -0.21094,2.232422 -0.38672,4.289062 -0.15821,2.039063 -0.31641,4.007813 -0.14062,1.951172 -0.28125,3.972656 -0.14062,2.021485 -0.29883,4.183594 -0.14062,2.162109 -0.3164,4.640625 l 0.10547,0.01758 q 0.63281,-2.091797 1.49414,-4.130859 0.86132,-2.039063 1.89843,-3.867188 1.03711,-1.845703 2.23243,-3.392578 1.19531,-1.564453 2.49609,-2.689453 1.30078,-1.125 2.68945,-1.757813 1.38867,-0.65039 2.8125,-0.65039 0.89649,0 1.65235,0.298828 0.75586,0.28125 1.30078,0.826172 0.5625,0.527344 0.86133,1.283203 0.3164,0.755859 0.3164,1.6875 0,1.458984 -0.63281,2.830078 -0.63281,1.371094 -1.79297,2.636719 -1.16016,1.265625 -2.79492,2.408203 -1.61719,1.125 -3.60352,2.091797 1.17774,2.162109 2.10938,3.708984 0.94922,1.529297 1.70508,2.583985 0.77343,1.037109 1.38867,1.652343 0.61523,0.615235 1.125,0.931641 0.52734,0.316406 0.98437,0.421875 0.45703,0.08789 0.91407,0.08789 0.91406,0 1.89843,-0.28125 0.98438,-0.28125 1.98633,-0.738282 l 0.33399,0.914063 q -0.63282,0.509765 -1.59961,1.037109 -0.9668,0.527344 -2.05664,0.966797 -1.07227,0.439453 -2.14454,0.703125 -1.05468,0.28125 -1.86328,0.28125 -0.94922,0 -1.89843,-0.703125 -0.93164,-0.685547 -2.02149,-2.144531 -1.07226,-1.458985 -2.37305,-3.691406 -1.30078,-2.25 -2.98828,-5.361329 z m 35.63086,5.871094 q 0.10546,0.05273 0.26367,0.158203 0.17578,0.08789 0.3164,0.210937 0.14063,0.105469 0.2461,0.246094 0.10547,0.123047 0.10547,0.246094 0,0.07031 -0.0527,0.140625 -0.98437,1.371094 -2.12695,2.390625 -1.125,1.001953 -2.35547,1.6875 -1.21289,0.667969 -2.47852,0.984375 -1.26562,0.333984 -2.49609,0.333984 -2.10937,0 -3.86719,-0.861328 -1.75781,-0.861328 -3.02343,-2.355469 -1.26563,-1.49414 -1.98633,-3.498047 -0.70313,-2.021484 -0.70313,-4.324218 0,-1.88086 0.4043,-3.761719 0.42187,-1.880859 1.19531,-3.585938 0.79102,-1.705078 1.91602,-3.164062 1.125,-1.476563 2.54883,-2.548828 1.4414,-1.089844 3.14648,-1.705078 1.72266,-0.615235 3.69141,-0.615235 1.30078,0 2.47851,0.351563 1.17774,0.351562 2.05664,1.019531 0.89649,0.650391 1.42383,1.617188 0.52734,0.966796 0.52734,2.197265 0,1.792969 -1.17773,3.128906 -1.16016,1.335938 -3.2168,2.267579 -2.05664,0.93164 -4.85156,1.511718 -2.77734,0.5625 -6.01172,0.84375 v 0.298828 q 0,2.25 0.5625,4.113282 0.58008,1.863281 1.58203,3.199218 1.00196,1.31836 2.35547,2.056641 1.35352,0.738281 2.91797,0.738281 1.58203,0 3.23438,-0.773437 1.66992,-0.791016 3.375,-2.548828 z m -3.30469,-14.115235 q 0,-0.808593 -0.28125,-1.511718 -0.26367,-0.703125 -0.75586,-1.212891 -0.47461,-0.527344 -1.14258,-0.826172 -0.66797,-0.298828 -1.44141,-0.298828 -1.14257,0 -2.07421,0.404297 -0.93165,0.404297 -1.66993,1.107422 -0.73828,0.685547 -1.30078,1.617187 -0.5625,0.914063 -0.96679,1.951172 -0.38672,1.037109 -0.63282,2.126953 -0.24609,1.089844 -0.35156,2.126953 2.49609,-0.175781 4.46484,-0.597656 1.98633,-0.439453 3.33985,-1.107422 1.37109,-0.685547 2.09179,-1.617187 0.72071,-0.949219 0.72071,-2.16211 z m 16.73437,-18.439453 q -0.73828,3.339844 -1.24804,6.908203 -0.49219,3.550782 -0.84375,7.013672 0.82617,0.03516 1.59961,0.05273 0.79101,0.01758 1.45898,0.03516 0.68555,0.01758 1.23047,0.01758 0.5625,0 0.93164,0 1.59961,0 2.61914,-0.193359 0.0879,0.298828 0.14062,0.544921 0.0527,0.246094 0.0527,0.457032 0,0.773437 -0.65039,1.001953 -0.63281,0.228515 -1.8457,0.228515 -1.16016,0 -2.60157,-0.140625 -1.42383,-0.140625 -3.1289,-0.263671 -0.19336,1.880859 -0.33399,3.673828 -0.12304,1.77539 -0.21094,3.357422 -0.0703,1.582031 -0.10546,2.935546 -0.0352,1.353516 -0.0352,2.355469 0,1.88086 0.19336,3.357422 0.19336,1.476563 0.68555,2.513672 0.49218,1.019531 1.35351,1.564453 0.86133,0.544922 2.17969,0.544922 0.94922,0 2.10937,-0.333984 1.17774,-0.333985 2.67188,-1.072266 0.47461,0.474609 0.54492,1.160156 -1.08984,0.720703 -2.19726,1.31836 -1.10743,0.580078 -2.17969,1.001953 -1.07227,0.421875 -2.07422,0.65039 -1.00195,0.228516 -1.89844,0.228516 -1.17773,0 -2.16211,-0.439453 -0.96679,-0.421875 -1.6875,-1.511719 -0.70312,-1.107422 -1.10742,-2.970703 -0.38672,-1.863281 -0.38672,-4.710938 0,-1.599609 0.0527,-3.287109 0.0527,-1.705078 0.14062,-3.445312 0.0879,-1.740235 0.22852,-3.480469 0.14062,-1.740235 0.3164,-3.427735 -1.38867,0.01758 -2.58398,0.123047 -1.17774,0.08789 -2.02149,0.298828 -0.0527,-0.105468 -0.0527,-0.246093 0,-0.369141 0.35156,-0.685547 0.36914,-0.333985 1.00196,-0.597656 0.65039,-0.263672 1.54687,-0.439454 0.89648,-0.175781 1.96875,-0.246093 0.4043,-3.673828 0.86133,-6.94336 0.45703,-3.269531 0.91406,-5.835937 0.0879,-0.457031 0.31641,-0.75586 0.24609,-0.298828 0.5625,-0.474609 0.3164,-0.175781 0.68554,-0.246094 0.36914,-0.07031 0.72071,-0.07031 0.58008,0 1.03711,0.123047 0.47461,0.123047 0.8789,0.351562 z m 25.34766,3.076172 q 0,-0.738281 -0.12305,-1.265625 -0.12304,-0.527344 -0.43945,-0.861328 -0.29883,-0.333984 -0.84375,-0.492188 -0.54492,-0.158203 -1.38867,-0.158203 -1.16016,0 -2.97071,0.263672 l -0.21093,-1.564453 q 1.65234,-0.298828 3.60351,-0.615234 1.96875,-0.316407 4.02539,-0.580078 2.07422,-0.263672 4.14844,-0.421875 2.0918,-0.175782 4.00781,-0.175782 2.53125,0 4.7461,0.457032 2.23242,0.457031 3.88476,1.564453 1.66992,1.089843 2.63672,2.935547 0.9668,1.845703 0.9668,4.605468 0,3.216797 -1.08985,5.783203 -1.07226,2.548829 -3.02343,4.324219 -1.95118,1.775391 -4.69336,2.72461 -2.72461,0.93164 -6.0293,0.93164 -0.73828,0 -1.03711,-0.228515 Q 403.4082,41.625 403.4082,40.869141 v -0.228516 q 0,-0.175781 0.0176,-0.263672 2.58399,0 4.42969,-0.527344 1.86328,-0.544922 3.1289,-1.423828 1.26563,-0.896484 2.02149,-2.021484 0.75586,-1.142578 1.16016,-2.337891 0.40429,-1.21289 0.52734,-2.390625 0.12305,-1.177734 0.12305,-2.126953 0,-2.548828 -0.72071,-4.236328 -0.70312,-1.705078 -1.93359,-2.707031 -1.21289,-1.001953 -2.84766,-1.40625 -1.63476,-0.421875 -3.48047,-0.421875 -0.93164,0 -1.79296,0.07031 -0.84375,0.07031 -1.84571,0.19336 -0.0351,1.353515 -0.10547,3.621093 -0.0527,2.267578 -0.14062,5.220703 -0.0703,2.935547 -0.17578,6.451172 -0.10547,3.498047 -0.21094,7.330078 -0.10547,3.814454 -0.22852,7.857422 -0.12304,4.025391 -0.24609,8.033203 l -4.16602,0.527344 -0.3164,-0.03516 q 0.21094,-5.044922 0.38672,-9.5625 0.17578,-4.517578 0.28125,-8.789063 0.12304,-4.289062 0.19336,-8.472656 0.0703,-4.201172 0.0703,-8.595703 z m 39.39258,29.478516 q 0.10547,0.05273 0.26367,0.158203 0.17578,0.08789 0.31641,0.210937 0.14062,0.105469 0.24609,0.246094 0.10547,0.123047 0.10547,0.246094 0,0.07031 -0.0527,0.140625 -0.98437,1.371094 -2.12695,2.390625 -1.125,1.001953 -2.35547,1.6875 -1.21289,0.667969 -2.47851,0.984375 -1.26563,0.333984 -2.4961,0.333984 -2.10937,0 -3.86719,-0.861328 -1.75781,-0.861328 -3.02343,-2.355469 -1.26563,-1.49414 -1.98633,-3.498047 -0.70313,-2.021484 -0.70313,-4.324218 0,-1.88086 0.4043,-3.761719 0.42188,-1.880859 1.19531,-3.585938 0.79102,-1.705078 1.91602,-3.164062 1.125,-1.476563 2.54883,-2.548828 1.4414,-1.089844 3.14648,-1.705078 1.72266,-0.615235 3.69141,-0.615235 1.30078,0 2.47851,0.351563 1.17774,0.351562 2.05664,1.019531 0.89649,0.650391 1.42383,1.617188 0.52735,0.966796 0.52735,2.197265 0,1.792969 -1.17774,3.128906 -1.16015,1.335938 -3.2168,2.267579 -2.05664,0.93164 -4.85156,1.511718 -2.77734,0.5625 -6.01172,0.84375 v 0.298828 q 0,2.25 0.5625,4.113282 0.58008,1.863281 1.58203,3.199218 1.00196,1.31836 2.35547,2.056641 1.35352,0.738281 2.91797,0.738281 1.58203,0 3.23438,-0.773437 1.66992,-0.791016 3.375,-2.548828 z M 433.625,39.990234 q 0,-0.808593 -0.28125,-1.511718 -0.26367,-0.703125 -0.75586,-1.212891 -0.47461,-0.527344 -1.14258,-0.826172 -0.66797,-0.298828 -1.4414,-0.298828 -1.14258,0 -2.07422,0.404297 -0.93164,0.404297 -1.66992,1.107422 -0.73829,0.685547 -1.30079,1.617187 -0.5625,0.914063 -0.96679,1.951172 -0.38672,1.037109 -0.63282,2.126953 -0.24609,1.089844 -0.35156,2.126953 2.4961,-0.175781 4.46485,-0.597656 1.98632,-0.439453 3.33984,-1.107422 1.37109,-0.685547 2.0918,-1.617187 0.7207,-0.949219 0.7207,-2.16211 z m 10.96875,-0.65039 q 0,-0.720703 -0.10547,-1.212891 -0.10547,-0.492187 -0.33398,-0.773437 -0.21094,-0.298829 -0.54493,-0.421875 -0.33398,-0.123047 -0.79101,-0.123047 -0.63281,0 -1.51172,0.175781 -0.87891,0.175781 -2.00391,0.474609 l -0.26367,-1.265625 q 1.24805,-0.439453 2.39063,-0.791015 1.16015,-0.369141 2.12695,-0.632813 0.9668,-0.263672 1.70508,-0.404297 0.73828,-0.140625 1.16015,-0.140625 1.01954,0 1.58204,0.615235 0.58007,0.597656 0.58007,2.074218 0,0.175782 -0.0351,0.826172 -0.0352,0.632813 -0.10547,1.617188 -0.0527,0.984375 -0.14063,2.267578 -0.0879,1.265625 -0.21093,2.707031 -0.10547,1.441406 -0.2461,2.988281 -0.14062,1.529297 -0.29883,3.058594 l 0.10547,0.01758 q 1.33594,-4.535156 2.86524,-7.646484 1.52929,-3.128906 3.11133,-5.0625 1.58203,-1.951172 3.14648,-2.8125 1.56445,-0.861328 2.98828,-0.861328 0.98438,0 1.89844,0.36914 0.91406,0.369141 1.61719,1.177735 0.7207,0.808594 1.14257,2.091797 0.42188,1.265625 0.42188,3.076172 0,0.527343 -0.0703,1.423828 -0.0527,0.878906 -0.14063,1.96875 -0.0879,1.089843 -0.21094,2.320312 -0.10546,1.212891 -0.19335,2.390625 -0.0879,1.177735 -0.15821,2.25 -0.0527,1.054688 -0.0527,1.845703 0,1.371094 0.10547,2.232422 0.12304,0.861328 0.38672,1.371094 0.26367,0.492187 0.70312,0.685547 0.43945,0.175781 1.07227,0.175781 0.91406,0 1.89843,-0.246094 0.98438,-0.263672 1.98633,-0.720703 l 0.33399,0.914063 q -0.63282,0.509765 -1.59961,1.037109 -0.9668,0.527344 -2.03907,0.966797 -1.05468,0.439453 -2.10937,0.703125 -1.05469,0.28125 -1.86328,0.28125 -0.94922,0 -1.49414,-0.509766 -0.54492,-0.509765 -0.82617,-1.388672 -0.26368,-0.878906 -0.35157,-2.05664 -0.0703,-1.177735 -0.0703,-2.53125 0,-1.652344 0.10547,-3.392578 0.12305,-1.757813 0.26367,-3.339844 0.14063,-1.582031 0.24609,-2.865234 0.12305,-1.300782 0.12305,-2.074219 0,-2.056641 -0.77344,-3.023438 -0.77343,-0.984375 -2.05664,-0.984375 -1.01953,0 -2.14453,0.861328 -1.125,0.861329 -2.25,2.373047 -1.10742,1.494141 -2.14453,3.550782 -1.01953,2.039062 -1.8457,4.429687 -0.82617,2.373047 -1.3711,4.974609 -0.54492,2.601563 -0.68554,5.203125 l -3.67383,0.457032 -0.28125,-0.01758 q 0.14062,-1.669922 0.26367,-3.638672 0.12305,-1.96875 0.22852,-3.990235 0.10547,-2.039062 0.17578,-4.02539 0.0879,-2.003907 0.14062,-3.726563 0.0703,-1.740234 0.0879,-3.111328 0.0352,-1.371094 0.0352,-2.162109 z m 46.51172,-1.705078 q 0.89648,1.283203 1.24805,2.583984 0.35156,1.300781 0.35156,2.636719 0,1.388672 -0.38672,2.724609 -0.36914,1.318359 -1.07227,2.513672 -0.68554,1.177734 -1.66992,2.179687 -0.9668,0.984375 -2.16211,1.722657 -1.19531,0.720703 -2.5664,1.125 -1.3711,0.404297 -2.86524,0.404297 -0.38672,0 -0.77344,-0.03516 -0.36914,-0.03516 -0.77343,-0.08789 -0.61524,0.123047 -1.125,0.36914 -0.50977,0.246094 -0.89649,0.580078 -0.38672,0.333985 -0.59765,0.720704 -0.21094,0.36914 -0.21094,0.755859 0,0.773437 0.59765,1.318359 0.61524,0.544922 1.63477,0.949219 1.01953,0.404297 2.35547,0.720703 1.35351,0.298828 2.8125,0.615235 1.31836,0.28125 2.60156,0.580078 1.2832,0.298828 2.44336,0.685547 1.16016,0.386718 2.14453,0.896484 0.98438,0.527344 1.70508,1.212891 0.7207,0.703125 1.125,1.617187 0.4043,0.931641 0.4043,2.144531 0,1.529297 -0.5625,2.935547 -0.54492,1.423828 -1.54688,2.654297 -1.00195,1.230469 -2.39062,2.25 -1.38867,1.019531 -3.0586,1.740234 -1.66992,0.738282 -3.56836,1.125 -1.88086,0.404297 -3.88476,0.404297 -1.16016,0 -2.44336,-0.175781 -1.2832,-0.158203 -2.53125,-0.527344 -1.24805,-0.351562 -2.39063,-0.93164 -1.125,-0.5625 -2.0039,-1.371094 -0.86133,-0.808594 -1.3711,-1.863281 -0.50976,-1.054688 -0.50976,-2.408203 0,-1.125 0.36914,-2.16211 0.36914,-1.037109 0.98437,-1.933594 0.63282,-0.896484 1.45899,-1.669921 0.82617,-0.773438 1.74023,-1.388672 0.93164,-0.615235 1.88086,-1.072266 0.9668,-0.439453 1.86328,-0.703125 l 0.0352,-0.08789 q -0.65039,-0.28125 -1.2832,-0.65039 -0.61524,-0.351563 -1.125,-0.84375 -0.49219,-0.492188 -0.8086,-1.107422 -0.29883,-0.632813 -0.29883,-1.423828 0,-0.896485 0.4043,-1.59961 0.42188,-0.720703 1.05469,-1.265625 0.63281,-0.5625 1.38867,-0.966796 0.75586,-0.404297 1.45899,-0.703125 -1.35352,-0.527344 -2.42579,-1.353516 -1.05468,-0.826172 -1.79296,-1.880859 -0.72071,-1.054688 -1.10743,-2.285157 -0.38672,-1.248047 -0.38672,-2.601562 0,-2.302735 0.89649,-4.253906 0.89648,-1.96875 2.4082,-3.392579 1.5293,-1.423828 3.53321,-2.232421 2.0039,-0.808594 4.21875,-0.808594 0.84375,0 1.54687,0.123047 0.70313,0.123047 1.30078,0.316406 0.59766,0.175781 1.08985,0.404297 0.50976,0.210937 0.94921,0.421875 0.66797,0.333984 1.30079,0.597656 0.65039,0.246094 1.49414,0.246094 0.70312,0 1.35351,-0.228516 0.65039,-0.228515 1.14258,-0.65039 0.49219,-0.439454 0.77344,-1.054688 0.29883,-0.632812 0.29883,-1.423828 0,-0.123047 -0.0176,-0.228516 0,-0.105468 -0.0176,-0.246093 l 0.22851,-0.158204 q 1.2129,0.5625 1.79297,1.40625 0.59766,0.826172 0.59766,1.669922 0,0.667969 -0.26367,1.195313 -0.26367,0.509765 -0.75586,0.878906 -0.47461,0.369141 -1.14258,0.5625 -0.66797,0.193359 -1.47656,0.193359 -1.23047,0 -2.6543,-0.492187 z m -11.56641,24.574218 q -1.24804,0.333985 -2.37304,0.966797 -1.10743,0.632813 -1.96875,1.529297 -0.86133,0.914063 -1.3711,2.074219 -0.49219,1.160156 -0.49219,2.53125 0,1.6875 0.73829,2.90039 0.75585,1.230469 1.93359,2.039063 1.19531,0.808594 2.6543,1.195312 1.45898,0.386719 2.88281,0.386719 1.93359,0 3.6914,-0.597656 1.75782,-0.580078 3.07618,-1.634766 1.33593,-1.037109 2.10937,-2.460937 0.79102,-1.423828 0.79102,-3.111328 0,-0.949219 -0.38672,-1.634766 -0.38672,-0.667969 -1.07227,-1.177734 -0.66797,-0.492188 -1.59961,-0.84375 -0.93164,-0.351563 -2.03906,-0.650391 -1.49414,-0.404297 -3.16406,-0.738281 -1.65235,-0.333985 -3.41016,-0.773438 z m 3.6211,-10.634765 q 0.94921,0 1.70507,-0.316407 0.77344,-0.333984 1.3711,-0.878906 0.59765,-0.544922 1.01953,-1.265625 0.42187,-0.738281 0.68555,-1.529297 0.28125,-0.808593 0.40429,-1.634765 0.14063,-0.84375 0.14063,-1.617188 0,-0.966797 -0.17578,-1.951172 -0.15821,-1.001953 -0.49219,-1.933593 -0.33399,-0.931641 -0.86133,-1.740235 -0.50976,-0.808594 -1.19531,-1.40625 -0.68555,-0.615234 -1.56445,-0.966797 -0.87891,-0.351562 -1.95118,-0.351562 -1.00195,0 -1.81054,0.316406 -0.79102,0.316406 -1.40625,0.861328 -0.61524,0.544922 -1.05469,1.265625 -0.42188,0.703125 -0.70313,1.511719 -0.26367,0.791016 -0.40429,1.617187 -0.12305,0.826172 -0.12305,1.582032 0,0.966797 0.17578,1.986328 0.17578,1.001953 0.52735,1.933594 0.35156,0.93164 0.8789,1.757812 0.54492,0.826172 1.24805,1.441406 0.7207,0.615235 1.61719,0.966797 0.89648,0.351563 1.96875,0.351563 z m 38.19726,-17.208985 q -0.1582,1.669922 -0.29883,3.550782 -0.12304,1.863281 -0.22851,3.74414 -0.10547,1.863281 -0.15821,3.65625 -0.0527,1.792969 -0.0527,3.304688 0,2.865234 0.33398,4.693359 0.33399,1.810547 0.86133,2.865234 0.52735,1.03711 1.19532,1.441407 0.68554,0.386718 1.37109,0.386718 0.4043,0 0.79101,-0.105468 0.4043,-0.105469 0.75586,-0.246094 0.35157,-0.158203 0.63282,-0.333984 0.29882,-0.175782 0.50976,-0.316407 l 0.58008,0.808594 q -0.50977,0.527344 -1.16016,1.001953 -0.65039,0.457031 -1.37109,0.791016 -0.7207,0.351562 -1.51172,0.544922 -0.79101,0.193359 -1.59961,0.193359 -1.01953,0 -1.98633,-0.404297 -0.94921,-0.404297 -1.70507,-1.353515 -0.73829,-0.966797 -1.19532,-2.548829 -0.45703,-1.599609 -0.45703,-3.955078 0,-0.755859 0.0352,-1.511718 0.0352,-0.773438 0.10547,-1.634766 0.0879,-0.861328 0.21093,-1.845703 0.12305,-0.984375 0.28125,-2.179688 l -0.19335,-0.03516 q -1.19532,4.412109 -2.60157,7.400391 -1.38867,2.988281 -2.86523,4.816406 -1.45899,1.828125 -2.93555,2.601562 -1.47656,0.791016 -2.8125,0.791016 -1.58203,0 -2.63672,-0.861328 -1.03711,-0.84375 -1.66992,-2.302734 -0.61523,-1.476563 -0.87891,-3.410157 -0.24609,-1.951172 -0.24609,-4.130859 0,-1.845703 0.10547,-3.779297 0.12305,-1.951172 0.29883,-3.814453 0.19336,-1.880859 0.42187,-3.568359 0.2461,-1.705079 0.49219,-3.041016 0.0879,-0.492188 0.28125,-0.791016 0.21094,-0.298828 0.47461,-0.457031 0.26367,-0.158203 0.58008,-0.210937 0.3164,-0.05273 0.63281,-0.05273 0.59766,0 1.10742,0.140625 0.52735,0.140625 1.03711,0.404297 -0.3164,1.986328 -0.59765,3.955078 -0.26368,1.96875 -0.47461,3.832031 -0.19336,1.845704 -0.31641,3.56836 -0.10547,1.722656 -0.10547,3.216797 0,1.617187 0.1582,2.953125 0.17579,1.318359 0.5625,2.267578 0.38672,0.949219 0.98438,1.476562 0.61523,0.509766 1.49414,0.509766 1.49414,0 3.05859,-1.599609 1.56446,-1.617188 2.98828,-4.710938 1.42383,-3.09375 2.42579,-6.943359 1.00195,-3.867188 1.2832,-8.332032 l 3.72656,-0.457031 z m 12.46289,-7.488281 q -0.61523,0 -1.08984,-0.246094 -0.47461,-0.263672 -0.8086,-0.667968 -0.33398,-0.421875 -0.50976,-0.949219 -0.17578,-0.544922 -0.17578,-1.107422 0,-0.791016 0.26367,-1.388672 0.26367,-0.615234 0.68555,-1.019531 0.42187,-0.421875 0.93164,-0.615235 0.50976,-0.210937 1.00195,-0.210937 0.59766,0 1.07227,0.228516 0.47461,0.210937 0.80859,0.597656 0.35156,0.386719 0.52734,0.896484 0.19336,0.492188 0.19336,1.072266 0,0.615234 -0.21093,1.230469 -0.21094,0.597656 -0.59766,1.089843 -0.36914,0.492188 -0.91406,0.791016 -0.52735,0.298828 -1.17774,0.298828 z m 1.5293,7.945313 q -0.29883,2.003906 -0.50977,4.02539 -0.21093,2.003906 -0.35156,3.884766 -0.12305,1.880859 -0.19336,3.568359 -0.0527,1.669922 -0.0527,3.023438 0,1.828125 0.0527,3.146484 0.0527,1.300781 0.17578,2.197266 0.12305,0.896484 0.29883,1.441406 0.19336,0.527344 0.45703,0.826172 0.28125,0.28125 0.63281,0.36914 0.36915,0.08789 0.82618,0.08789 0.84375,0 1.81054,-0.246094 0.98438,-0.263672 1.98633,-0.720703 l 0.33399,0.914063 q -0.63282,0.509765 -1.59961,1.037109 -0.94922,0.527344 -2.00391,0.966797 -1.05469,0.439453 -2.07422,0.703125 -1.00195,0.28125 -1.74023,0.28125 -0.49219,0 -0.89649,-0.08789 -0.40429,-0.07031 -0.73828,-0.386718 -0.3164,-0.316407 -0.58008,-0.931641 -0.24609,-0.615234 -0.42187,-1.669922 -0.1582,-1.054687 -0.2461,-2.636719 -0.0879,-1.582031 -0.0879,-3.832031 0,-1.318359 0.0176,-2.970703 0.0352,-1.669922 0.0879,-3.568359 0.0527,-1.916016 0.14063,-4.025391 0.0879,-2.126953 0.22851,-4.376953 0.0352,-0.492188 0.26368,-0.791016 0.22851,-0.316406 0.5625,-0.474609 0.33398,-0.175781 0.70312,-0.228516 0.38672,-0.07031 0.70313,-0.07031 1.17773,0 2.21484,0.544922 z m 10.21289,4.517578 q 0,-0.720703 -0.10547,-1.212891 -0.10547,-0.492187 -0.33398,-0.773437 -0.21094,-0.298829 -0.54493,-0.421875 -0.33398,-0.123047 -0.79101,-0.123047 -0.63281,0 -1.51172,0.175781 -0.87891,0.175781 -2.00391,0.474609 l -0.26367,-1.265625 q 1.24805,-0.439453 2.39063,-0.791015 1.16015,-0.369141 2.12695,-0.632813 0.9668,-0.263672 1.70508,-0.404297 0.73828,-0.140625 1.16015,-0.140625 1.01954,0 1.58204,0.615235 0.58007,0.597656 0.58007,2.074218 0,0.175782 -0.0352,0.826172 -0.0352,0.632813 -0.10547,1.617188 -0.0527,0.984375 -0.14063,2.267578 -0.0879,1.265625 -0.21093,2.707031 -0.10547,1.441406 -0.2461,2.988281 -0.14062,1.529297 -0.29883,3.058594 l 0.10547,0.01758 q 1.33594,-4.535156 2.86524,-7.646484 1.52929,-3.128906 3.11133,-5.0625 1.58203,-1.951172 3.14648,-2.8125 1.56445,-0.861328 2.98828,-0.861328 0.98438,0 1.89844,0.36914 0.91406,0.369141 1.61719,1.177735 0.7207,0.808594 1.14257,2.091797 0.42188,1.265625 0.42188,3.076172 0,0.527343 -0.0703,1.423828 -0.0527,0.878906 -0.14063,1.96875 -0.0879,1.089843 -0.21094,2.320312 -0.10546,1.212891 -0.19335,2.390625 -0.0879,1.177735 -0.15821,2.25 -0.0527,1.054688 -0.0527,1.845703 0,1.371094 0.10547,2.232422 0.12304,0.861328 0.38672,1.371094 0.26367,0.492187 0.70312,0.685547 0.43945,0.175781 1.07227,0.175781 0.91406,0 1.89843,-0.246094 0.98438,-0.263672 1.98633,-0.720703 l 0.33399,0.914063 q -0.63282,0.509765 -1.59961,1.037109 -0.9668,0.527344 -2.03907,0.966797 -1.05468,0.439453 -2.10937,0.703125 -1.05469,0.28125 -1.86328,0.28125 -0.94922,0 -1.49414,-0.509766 -0.54492,-0.509765 -0.82617,-1.388672 -0.26368,-0.878906 -0.35157,-2.05664 -0.0703,-1.177735 -0.0703,-2.53125 0,-1.652344 0.10547,-3.392578 0.12305,-1.757813 0.26367,-3.339844 0.14063,-1.582031 0.24609,-2.865234 0.12305,-1.300782 0.12305,-2.074219 0,-2.056641 -0.77344,-3.023438 -0.77343,-0.984375 -2.05664,-0.984375 -1.01953,0 -2.14453,0.861328 -1.125,0.861329 -2.25,2.373047 -1.10742,1.494141 -2.14453,3.550782 -1.01953,2.039062 -1.8457,4.429687 -0.82617,2.373047 -1.3711,4.974609 -0.54492,2.601563 -0.68554,5.203125 l -3.67383,0.457032 -0.28125,-0.01758 q 0.14062,-1.669922 0.26367,-3.638672 0.12305,-1.96875 0.22852,-3.990235 0.10547,-2.039062 0.17578,-4.02539 0.0879,-2.003907 0.14062,-3.726563 0.0703,-1.740234 0.0879,-3.111328 0.0352,-1.371094 0.0352,-2.162109 z"
     id="text3"
     style="font-size:72px;font-family:Gabriola;-inkscape-font-specification:'Gabriola, Normal';white-space:pre"
     transform="translate(21.812156,90.254883)"
     aria-label="Ticket Penguin" />
</svg>
