<?xml version="1.0" encoding="UTF-8"?>
<svg version="1.1" xmlns="http://www.w3.org/2000/svg" width="270" height="270">
<path d="M0 0 C0.7130127 0.00491455 1.42602539 0.0098291 2.16064453 0.01489258 C7.74852438 0.13896871 12.22228996 0.93934582 17.25 3.3125 C18.1265625 3.71082031 19.003125 4.10914063 19.90625 4.51953125 C23.90824045 6.42277671 27.21197637 8.0474976 30.25 11.3125 C31.425625 12.240625 31.425625 12.240625 32.625 13.1875 C37.04140124 16.76268196 40.89781018 20.7187584 44.25 25.3125 C44.25 25.9725 44.25 26.6325 44.25 27.3125 C44.8275 27.498125 45.405 27.68375 46 27.875 C48.42737174 29.42582083 49.02640513 30.4008861 50.375 32.875 C51.84475241 36.34781974 51.84475241 36.34781974 54.25 37.3125 C55.5390625 39.30859375 55.5390625 39.30859375 56.875 41.75 C57.32101563 42.55308594 57.76703125 43.35617188 58.2265625 44.18359375 C59.25 46.3125 59.25 46.3125 59.25 48.3125 C59.91 48.3125 60.57 48.3125 61.25 48.3125 C62.08848804 49.76787568 62.92063934 51.22690373 63.75 52.6875 C64.2140625 53.49960938 64.678125 54.31171875 65.15625 55.1484375 C66.25 57.3125 66.25 57.3125 66.25 59.3125 C66.91 59.3125 67.57 59.3125 68.25 59.3125 C69.25484204 61.26835325 70.25373805 63.22726237 71.25 65.1875 C71.806875 66.27804688 72.36375 67.36859375 72.9375 68.4921875 C74.25 71.3125 74.25 71.3125 74.25 73.3125 C74.91 73.3125 75.57 73.3125 76.25 73.3125 C77.09026396 75.08005526 77.92198722 76.85167263 78.75 78.625 C79.2140625 79.61113281 79.678125 80.59726563 80.15625 81.61328125 C81.25 84.3125 81.25 84.3125 81.25 87.3125 C81.91 87.3125 82.57 87.3125 83.25 87.3125 C84.08719383 89.60282311 84.9198929 91.89460957 85.75 94.1875 C85.98847656 94.83847656 86.22695312 95.48945312 86.47265625 96.16015625 C88.25 101.0859375 88.25 101.0859375 88.25 103.3125 C88.91 103.3125 89.57 103.3125 90.25 103.3125 C91.09179395 106.03931111 91.92363069 108.76851443 92.75 111.5 C92.98847656 112.26892578 93.22695312 113.03785156 93.47265625 113.83007812 C94.65213617 117.75606128 95.5826262 121.16298821 95.25 125.3125 C95.91 125.3125 96.57 125.3125 97.25 125.3125 C101.07089116 143.32527262 104.87248137 169.06753726 96.25 186.3125 C95.59 186.3125 94.93 186.3125 94.25 186.3125 C94.1675 187.1375 94.085 187.9625 94 188.8125 C91.94466356 198.40407006 86.01281621 204.54968379 79.25 211.3125 C77.54231326 213.282188 75.89600848 215.29026101 74.25 217.3125 C72.93 216.9825 71.61 216.6525 70.25 216.3125 C70.58 214.3325 70.91 212.3525 71.25 210.3125 C71.91 210.3125 72.57 210.3125 73.25 210.3125 C75.53057128 197.49786138 76.55944038 184.87683517 76.5625 171.875 C76.56765625 170.56208984 76.5728125 169.24917969 76.578125 167.89648438 C76.51472932 158.87165601 75.63867235 150.21447006 74.25 141.3125 C73.26 141.3125 72.27 141.3125 71.25 141.3125 C71.25 141.9725 71.25 142.6325 71.25 143.3125 C69.00703708 146.02766564 66.2771525 147.57188731 63.25 149.3125 C62.26 149.9725 61.27 150.6325 60.25 151.3125 C59.26 151.3125 58.27 151.3125 57.25 151.3125 C57.25 151.9725 57.25 152.6325 57.25 153.3125 C55.16999989 154.15411854 53.08585854 154.98550763 51 155.8125 C49.83984375 156.2765625 48.6796875 156.740625 47.484375 157.21875 C44.25 158.3125 44.25 158.3125 40.25 158.3125 C40.25 158.9725 40.25 159.6325 40.25 160.3125 C29.23505085 162.48004569 18.4697419 163.87458275 7.25 164.3125 C9.00816505 160.50847017 11.27856286 158.28393714 14.25 155.3125 C15.26877393 153.99345586 16.2679087 152.6590788 17.25 151.3125 C19.67969231 147.99872117 22.30381819 145.18682372 25.25 142.3125 C29.75458025 137.36132091 29.75458025 137.36132091 33.8359375 132.06640625 C34.53589844 131.19822266 34.53589844 131.19822266 35.25 130.3125 C35.91 130.3125 36.57 130.3125 37.25 130.3125 C37.36472656 129.74015625 37.47945313 129.1678125 37.59765625 128.578125 C38.31182356 126.09778344 39.32307872 124.24881303 40.6875 122.0625 C41.11933594 121.35609375 41.55117187 120.6496875 41.99609375 119.921875 C42.61677734 119.12523437 42.61677734 119.12523437 43.25 118.3125 C43.91 118.3125 44.57 118.3125 45.25 118.3125 C45.44335938 117.73242188 45.63671875 117.15234375 45.8359375 116.5546875 C46.09632813 115.77351563 46.35671875 114.99234375 46.625 114.1875 C46.89699219 113.35863281 47.16898437 112.52976562 47.44921875 111.67578125 C48.05483901 109.88846293 48.73022181 108.12458288 49.4375 106.375 C50.84868109 101.05593281 50.81526986 95.72774395 49.5625 90.375 C47.89385279 87.7528401 45.93712364 86.79748938 43.25 85.3125 C43.25 84.6525 43.25 83.9925 43.25 83.3125 C24.64550344 77.91448001 5.09871116 78.42188427 -13.75 82.3125 C-13.75 82.9725 -13.75 83.6325 -13.75 84.3125 C-18.13461538 87.3125 -18.13461538 87.3125 -20.75 87.3125 C-21.245 88.7975 -21.245 88.7975 -21.75 90.3125 C-22.41 90.3125 -23.07 90.3125 -23.75 90.3125 C-23.91890918 92.54149787 -24.08503687 94.77070662 -24.25 97 C-24.38921875 98.86205078 -24.38921875 98.86205078 -24.53125 100.76171875 C-24.70779937 103.62749329 -24.79388528 106.44349957 -24.75 109.3125 C-24.09 109.3125 -23.43 109.3125 -22.75 109.3125 C-22.34007812 110.52808594 -21.93015625 111.74367188 -21.5078125 112.99609375 C-20.96392765 114.58086169 -20.41963574 116.16548997 -19.875 117.75 C-19.60558594 118.55244141 -19.33617187 119.35488281 -19.05859375 120.18164062 C-18.79433594 120.94541016 -18.53007813 121.70917969 -18.2578125 122.49609375 C-18.01691895 123.20306396 -17.77602539 123.91003418 -17.52783203 124.63842773 C-16.86814241 126.51288805 -16.86814241 126.51288805 -14.75 127.3125 C-13.40838883 129.78318989 -12.2516976 132.31825376 -11.06640625 134.8671875 C-9.818092 137.18601457 -8.6292794 138.5184146 -6.75 140.3125 C-6.04344779 141.45545211 -5.37582796 142.62342687 -4.75 143.8125 C-3.62005965 145.88189266 -2.77244472 147.29088657 -1.0625 148.9375 C0.77718258 150.86478651 0.90069061 152.72761053 1.25 155.3125 C-5.24850211 154.79696121 -11.41226532 153.84582291 -17.75 152.3125 C-17.75 151.6525 -17.75 150.9925 -17.75 150.3125 C-18.56791016 150.16554687 -18.56791016 150.16554687 -19.40234375 150.015625 C-26.58317381 148.59173391 -33.5841519 146.72161519 -38.75 141.3125 C-40.39605826 140.27892853 -42.05963442 139.27189668 -43.75 138.3125 C-44.41 141.6125 -45.07 144.9125 -45.75 148.3125 C-46.41 148.3125 -47.07 148.3125 -47.75 148.3125 C-48.08 161.8425 -48.41 175.3725 -48.75 189.3125 C-48.09 189.3125 -47.43 189.3125 -46.75 189.3125 C-45.43 197.2325 -44.11 205.1525 -42.75 213.3125 C-46.85328564 212.28667859 -47.43503277 211.98677884 -49.9375 208.9375 C-50.44667969 208.33164063 -50.95585938 207.72578125 -51.48046875 207.1015625 C-52.75 205.3125 -52.75 205.3125 -53.75 202.3125 C-54.348125 201.755625 -54.94625 201.19875 -55.5625 200.625 C-59.07122296 196.91577858 -61.75 192.48875134 -61.75 187.3125 C-62.41 187.3125 -63.07 187.3125 -63.75 187.3125 C-66.70025669 178.81576072 -69.07348251 171.37001024 -68.75 162.3125 C-69.41 162.3125 -70.07 162.3125 -70.75 162.3125 C-70.77685412 160.00006208 -70.79632841 157.6875373 -70.8125 155.375 C-70.82410156 154.08722656 -70.83570313 152.79945313 -70.84765625 151.47265625 C-70.75 148.3125 -70.75 148.3125 -69.75 147.3125 C-69.70907063 144.97952567 -69.70758277 142.64544775 -69.75 140.3125 C-69.09 140.3125 -68.43 140.3125 -67.75 140.3125 C-67.811875 139.36246094 -67.87375 138.41242188 -67.9375 137.43359375 C-67.9375 132.45531994 -66.32795858 128.04845841 -64.75 123.375 C-64.46382812 122.50037109 -64.17765625 121.62574219 -63.8828125 120.72460938 C-63.18098661 118.5840404 -62.46991611 116.4470385 -61.75 114.3125 C-61.09 114.3125 -60.43 114.3125 -59.75 114.3125 C-59.6675 113.508125 -59.585 112.70375 -59.5 111.875 C-58.54803325 107.35315795 -56.73419821 103.46547299 -54.75 99.3125 C-54.09 99.3125 -53.43 99.3125 -52.75 99.3125 C-52.63785156 98.45398438 -52.52570313 97.59546875 -52.41015625 96.7109375 C-51.72351836 93.1761744 -50.61705313 90.23646876 -49.1875 86.9375 C-48.73246094 85.87789063 -48.27742188 84.81828125 -47.80859375 83.7265625 C-47.45925781 82.92992188 -47.10992187 82.13328125 -46.75 81.3125 C-46.09 81.3125 -45.43 81.3125 -44.75 81.3125 C-44.56824219 80.6834375 -44.38648437 80.054375 -44.19921875 79.40625 C-42.59447416 73.94188892 -40.81414546 68.62030262 -38.75 63.3125 C-38.09 63.3125 -37.43 63.3125 -36.75 63.3125 C-36.75 56.7125 -36.75 50.1125 -36.75 43.3125 C-37.41 43.3125 -38.07 43.3125 -38.75 43.3125 C-40.75 40.3125 -40.75 40.3125 -40.75 37.3125 C-41.46542969 37.02632812 -42.18085937 36.74015625 -42.91796875 36.4453125 C-47.1953125 34.734375 -51.47265625 33.0234375 -55.75 31.3125 C-55.75 30.6525 -55.75 29.9925 -55.75 29.3125 C-60.04 28.6525 -64.33 27.9925 -68.75 27.3125 C-68.75 26.6525 -68.75 25.9925 -68.75 25.3125 C-66.11 24.6525 -63.47 23.9925 -60.75 23.3125 C-60.75 22.6525 -60.75 21.9925 -60.75 21.3125 C-60.06292969 21.11914062 -59.37585938 20.92578125 -58.66796875 20.7265625 C-57.76691406 20.46617188 -56.86585937 20.20578125 -55.9375 19.9375 C-55.04417969 19.68226562 -54.15085937 19.42703125 -53.23046875 19.1640625 C-50.54532104 18.35983339 -50.54532104 18.35983339 -47.75 16.3125 C-46.43 16.3125 -45.11 16.3125 -43.75 16.3125 C-43.75 15.6525 -43.75 14.9925 -43.75 14.3125 C-34.54881742 9.72304816 -25.70188953 5.63679426 -15.703125 3.1015625 C-12.78981881 2.40792647 -12.78981881 2.40792647 -10.34375 1.23046875 C-6.89693971 0.0105886 -3.61192654 -0.02927213 0 0 Z M-4.125 19.875 C-6.39970619 23.28705929 -6.38534983 25.28861774 -5.75 29.3125 C-3.7905988 32.4389113 -3.7905988 32.4389113 -0.75 34.3125 C2.88005731 34.3865828 4.64248901 33.72816541 7.625 31.6875 C9.82205971 28.47641273 9.54257019 26.11591249 9.25 22.3125 C8.59 22.3125 7.93 22.3125 7.25 22.3125 C6.92 21.3225 6.59 20.3325 6.25 19.3125 C2.52220347 17.44860173 -0.65961399 17.59514079 -4.125 19.875 Z " fill="#000000" transform="translate(127.75,12.6875)"/>
<path d="M0 0 C0.495 1.485 0.495 1.485 1 3 C1.99 3.66 2.98 4.32 4 5 C4.75 8.0625 4.75 8.0625 5 11 C4 12 4 12 0.03100586 12.11352539 C-1.74105607 12.1133662 -3.5131226 12.10766785 -5.28515625 12.09765625 C-6.21597519 12.0962413 -7.14679413 12.09482635 -8.1058197 12.09336853 C-11.09141191 12.08775172 -14.07693029 12.0751964 -17.0625 12.0625 C-19.08137913 12.05748716 -21.10025943 12.05292388 -23.11914062 12.04882812 C-28.07945572 12.03777683 -33.03971532 12.02050095 -38 12 C-39 9 -39 9 -38.5 6.6875 C-36.11087834 2.40699036 -32.54874702 -1.25532261 -27.75390625 -2.65625 C-18.43205826 -3.81982819 -8.60745884 -4.07721734 0 0 Z " fill="#F96935" transform="translate(183,239)"/>
<path d="M0 0 C3.11892461 2.92399182 3.62601623 5.79268264 4 10 C3 11 3 11 -0.87719727 11.11352539 C-2.60694167 11.11336621 -4.33669081 11.10766849 -6.06640625 11.09765625 C-6.97502914 11.0962413 -7.88365204 11.09482635 -8.81980896 11.09336853 C-11.73407221 11.08775193 -14.64825981 11.07519665 -17.5625 11.0625 C-19.53320202 11.05748714 -21.50390524 11.05292386 -23.47460938 11.04882812 C-28.31643559 11.03777711 -33.15820495 11.02050138 -38 11 C-39 8 -39 8 -37.6875 4.9375 C-36 2 -36 2 -34 0 C-33.01 0 -32.02 0 -31 0 C-30.67 -0.99 -30.34 -1.98 -30 -3 C-20.42123012 -5.28331142 -8.36141334 -5.78713572 0 0 Z " fill="#F96935" transform="translate(135,240)"/>
</svg>
