<?xml version="1.0" encoding="UTF-8" standalone="no"?>
<svg
   version="1.1"
   width="1100"
   height="270"
   id="svg6"
   sodipodi:docname="penguin-icon-white-with-text-long.svg"
   inkscape:version="1.4 (86a8ad7, 2024-10-11)"
   xmlns:inkscape="http://www.inkscape.org/namespaces/inkscape"
   xmlns:sodipodi="http://sodipodi.sourceforge.net/DTD/sodipodi-0.dtd"
   xmlns="http://www.w3.org/2000/svg"
   xmlns:svg="http://www.w3.org/2000/svg">
  <defs
     id="defs6">
    <rect
       x="237.27946"
       y="-0.44517726"
       width="582.29187"
       height="270.2226"
       id="rect1" />
    <rect
       x="235.49876"
       y="-0.89035451"
       width="464.76505"
       height="270.66776"
       id="rect6" />
  </defs>
  <sodipodi:namedview
     id="namedview6"
     pagecolor="#505050"
     bordercolor="#ffffff"
     borderopacity="1"
     inkscape:showpageshadow="0"
     inkscape:pageopacity="0"
     inkscape:pagecheckerboard="1"
     inkscape:deskcolor="#505050"
     inkscape:zoom="2.2462963"
     inkscape:cx="369.94229"
     inkscape:cy="196.99093"
     inkscape:window-width="2560"
     inkscape:window-height="1494"
     inkscape:window-x="2389"
     inkscape:window-y="-11"
     inkscape:window-maximized="1"
     inkscape:current-layer="svg6" />
  <path
     d="m 127.75,12.6875 c 0.71301,0.0049 1.42603,0.0098 2.16064,0.01489 C 135.49852,12.826469 139.97229,13.626846 145,16 c 0.87656,0.39832 1.75312,0.796641 2.65625,1.207031 C 151.65824,19.110277 154.96198,20.734998 158,24 c 1.17562,0.928125 1.17562,0.928125 2.375,1.875 4.4164,3.575182 8.27281,7.531258 11.625,12.125 0,0.66 0,1.32 0,2 0.5775,0.185625 1.155,0.37125 1.75,0.5625 2.42737,1.550821 3.0264,2.525886 4.375,5 1.46975,3.47282 1.46975,3.47282 3.875,4.4375 1.28906,1.996094 1.28906,1.996094 2.625,4.4375 0.44602,0.803086 0.89203,1.606172 1.35156,2.433594 C 187,59 187,59 187,61 c 0.66,0 1.32,0 2,0 0.83849,1.455376 1.67064,2.914404 2.5,4.375 0.46406,0.812109 0.92812,1.624219 1.40625,2.460937 C 194,70 194,70 194,72 c 0.66,0 1.32,0 2,0 1.00484,1.955853 2.00374,3.914762 3,5.875 0.55687,1.090547 1.11375,2.181094 1.6875,3.304687 C 202,84 202,84 202,86 c 0.66,0 1.32,0 2,0 0.84026,1.767555 1.67199,3.539173 2.5,5.3125 0.46406,0.986133 0.92812,1.972266 1.40625,2.988281 C 209,97 209,97 209,100 c 0.66,0 1.32,0 2,0 0.83719,2.29032 1.66989,4.58211 2.5,6.875 0.23848,0.65098 0.47695,1.30195 0.72266,1.97266 C 216,113.77344 216,113.77344 216,116 c 0.66,0 1.32,0 2,0 0.84179,2.72681 1.67363,5.45601 2.5,8.1875 0.23848,0.76893 0.47695,1.53785 0.72266,2.33008 1.17948,3.92598 2.10997,7.33291 1.77734,11.48242 0.66,0 1.32,0 2,0 3.82089,18.01277 7.62248,43.75504 -1,61 -0.66,0 -1.32,0 -2,0 -0.0825,0.825 -0.165,1.65 -0.25,2.5 -2.05534,9.59157 -7.98718,15.73718 -14.75,22.5 -1.09441,1.39992 -1.09441,1.39992 -2.21094,2.82812 -2.87117,3.47351 -6.21063,5.89575 -9.91406,8.42188 -0.62004,0.43312 -1.24008,0.86625 -1.87891,1.3125 -2.64534,1.84321 -5.31344,3.64907 -7.99609,5.4375 0.66,0.66 1.32,1.32 2,2 0.6875,3.0625 0.6875,3.0625 1,6 -1,1 -1,1 -4.96899,1.11353 -1.77207,-1.6e-4 -3.54413,-0.006 -5.31617,-0.0159 -0.93082,-0.001 -1.86163,-0.003 -2.82066,-0.004 -2.98559,-0.006 -5.97111,-0.0182 -8.95668,-0.0309 -2.01888,-0.005 -4.03776,-0.01 -6.05664,-0.0137 -4.96032,-0.0111 -9.92058,-0.0283 -14.88086,-0.0488 -0.33,-0.99 -0.66,-1.98 -1,-3 -1.65,0 -3.3,0 -5,0 -0.33,0.99 -0.66,1.98 -1,3 -13.53,0 -27.06,0 -41,0 -1,-3 -1,-3 0.375,-6.0625 0.53625,-0.96938 1.0725,-1.93875 1.625,-2.9375 0.33,-0.66 0.66,-1.32 1,-2 -1.01707,-0.70963 -1.01707,-0.70963 -2.054687,-1.43359 C 76.862069,223.58644 76.862069,223.58644 74,215.00023 73.401875,214.44335 72.80375,213.88648 72.1875,213.31273 68.678777,209.60351 66,205.17648 66,200.00023 c -0.66,0 -1.32,0 -2,0 -2.950257,-8.49674 -5.323483,-15.94249 -5,-25 -0.66,0 -1.32,0 -2,0 -0.02685,-2.31244 -0.04633,-4.62496 -0.0625,-6.9375 -0.0116,-1.28777 -0.0232,-2.57555 -0.03516,-3.90234 C 57,161.00023 57,161.00023 57.999996,160.00023 c 0.04093,-2.33297 0.04242,-4.66705 0,-7 0.66,0 1.32,0 2,0 -0.06188,-0.95004 -0.12375,-1.90008 -0.1875,-2.87891 0,-4.97827 1.609541,-9.38513 3.1875,-14.05859 0.286172,-0.87463 0.572344,-1.74926 0.867188,-2.65039 0.701825,-2.14057 1.412896,-4.27757 2.132812,-6.41211 0.66,0 1.32,0 2,0 0.0825,-0.80437 0.165,-1.60875 0.25,-2.4375 0.951967,-4.52184 2.765802,-8.40953 4.75,-12.5625 0.66,0 1.32,0 2,0 0.112148,-0.85852 0.224297,-1.71703 0.339844,-2.60156 0.686638,-3.53477 1.793103,-6.47447 3.222656,-9.77344 0.455039,-1.059609 0.910078,-2.119219 1.378906,-3.210938 0.349336,-0.79664 0.698672,-1.593281 1.058594,-2.414062 0.66,0 1.32,0 2,0 0.181758,-0.629063 0.363516,-1.258125 0.550781,-1.90625 1.604745,-5.464361 3.385074,-10.785947 5.449219,-16.09375 0.66,0 1.32,0 2,0 0,-6.6 0,-13.2 0,-20 -0.66,0 -1.32,0 -2,0 -2,-3 -2,-3 -2,-6 -0.71543,-0.286172 -1.430859,-0.572344 -2.167969,-0.867188 -4.277343,-1.710937 -8.554687,-3.421875 -12.832031,-5.132812 0,-0.66 0,-1.32 0,-2 -4.29,-0.66 -8.58,-1.32 -13,-2 0,-0.66 0,-1.32 0,-2 2.64,-0.66 5.28,-1.32 8,-2 0,-0.66 0,-1.32 0,-2 0.68707,-0.193359 1.374141,-0.386719 2.082031,-0.585938 0.901055,-0.26039 1.80211,-0.520781 2.730469,-0.789062 0.89332,-0.255234 1.786641,-0.510469 2.707031,-0.773438 2.685148,-0.804229 2.685148,-0.804229 5.480469,-2.851562 1.32,0 2.64,0 4,0 0,-0.66 0,-1.32 0,-2 9.201183,-4.589452 18.048114,-8.675706 28.046874,-11.210937 2.91331,-0.693636 2.91331,-0.693636 5.35938,-1.871094 3.44681,-1.22011 6.73182,-1.259971 10.34375,-1.230699 z"
     fill="#010101"
     id="path1" />
  <path
     d="m 167,93 c 0,0.66 0,1.32 0,2 0.68062,0.04125 1.36125,0.0825 2.0625,0.125 4.1405,1.233339 7.01948,3.721653 9.9375,6.875 2.59216,7.77649 1.36478,15.70964 -2,23 -0.66,0 -1.32,0 -2,0 -0.22559,1.01578 -0.45117,2.03156 -0.68359,3.07812 -1.23228,4.31243 -3.54434,7.26397 -6.37891,10.67188 -3.57059,4.26039 -3.57059,4.26039 -5.9375,9.25 -0.78375,0.61875 -1.5675,1.2375 -2.375,1.875 -2.7211,2.2028 -3.92429,4.11011 -5.625,7.125 -1.5625,1.8125 -1.5625,1.8125 -3,3 -0.66,0 -1.32,0 -2,0 -0.22688,0.71543 -0.45375,1.43086 -0.6875,2.16797 -1.59285,3.43696 -3.61385,5.49687 -6.3125,8.14453 -0.88688,0.88301 -1.77375,1.76602 -2.6875,2.67578 C 137,175 137,175 135,175 c 0,0.66 0,1.32 0,2 1.98,0 3.96,0 6,0 0,-0.66 0,-1.32 0,-2 0.5576,-0.0752 1.1152,-0.15034 1.6897,-0.22778 C 154.21504,173.20591 165.62926,171.46279 177,169 c 0,-0.66 0,-1.32 0,-2 0.70125,-0.29133 1.4025,-0.58266 2.125,-0.88281 5.66449,-2.44743 10.48783,-5.00129 15.21875,-8.98047 C 196,156 196,156 199,156 c 0,-0.66 0,-1.32 0,-2 0.66,0 1.32,0 2,0 0.495,-0.99 0.495,-0.99 1,-2 1.59162,5.57067 2.20675,10.21102 2,16 0.66,0 1.32,0 2,0 0.0249,4.69563 0.0429,9.39123 0.0549,14.08691 0.005,1.59441 0.0118,3.18882 0.0205,4.78321 0.0123,2.30372 0.0178,4.60738 0.0222,6.91113 0.005,0.70242 0.0103,1.40484 0.0156,2.12854 5.3e-4,4.77742 -0.44304,9.359 -1.1133,14.09021 -0.66,0 -1.32,0 -2,0 -0.0735,0.89139 -0.0735,0.89139 -0.14844,1.80078 -0.15872,1.7597 -0.33895,3.51753 -0.53515,5.27344 -0.20706,1.91467 -0.36783,3.83505 -0.47656,5.75781 -0.43903,4.42116 -0.95225,7.20402 -4.01954,10.53516 C 193.77116,236.64736 189.48538,239.3587 185,242 c 0.66,0.66 1.32,1.32 2,2 0.6875,3.0625 0.6875,3.0625 1,6 -1,1 -1,1 -4.96899,1.11353 -1.77207,-1.6e-4 -3.54413,-0.006 -5.31617,-0.0159 -0.93082,-0.001 -1.86163,-0.003 -2.82066,-0.004 -2.98559,-0.006 -5.97111,-0.0182 -8.95668,-0.0309 -2.01888,-0.005 -4.03776,-0.01 -6.05664,-0.0137 -4.96032,-0.0112 -9.92058,-0.0285 -14.88086,-0.049 -0.33,-0.99 -0.66,-1.98 -1,-3 -1.65,0 -3.3,0 -5,0 -0.33,0.99 -0.66,1.98 -1,3 -13.53,0 -27.06,0 -41,0 -1,-3 -1,-3 0.375,-6.0625 0.53625,-0.96938 1.0725,-1.93875 1.625,-2.9375 0.33,-0.66 0.66,-1.32 1,-2 -0.724453,-0.49629 -1.448906,-0.99258 -2.195312,-1.50391 C 92.085048,234.47709 87.002714,230.7817 83,225 c 0.359375,-2.20313 0.359375,-2.20313 1,-4 -0.66,0 -1.32,0 -2,0 -4.423404,-19.95798 -8.529045,-53.94191 1,-73 1.75,0.1875 1.75,0.1875 4,1 0.515625,0.7425 1.03125,1.485 1.5625,2.25 3.66538,4.1353 8.384904,5.70283 13.4375,7.75 0,0.66 0,1.32 0,2 8.28635,1.92362 16.63572,3.46056 25,5 -0.36094,-0.5543 -0.72187,-1.10859 -1.09375,-1.67969 -0.46406,-0.72445 -0.92812,-1.4489 -1.40625,-2.19531 -0.46406,-0.7193 -0.92812,-1.43859 -1.40625,-2.17969 C 122,158 122,158 122,156 c -0.66,0 -1.32,0 -2,0 -1.36719,-1.97656 -1.36719,-1.97656 -2.875,-4.625 -1.70096,-2.95387 -3.38027,-5.72954 -5.375,-8.5 -2.19378,-3.60407 -2.89753,-6.75473 -3.75,-10.875 -0.66,0 -1.32,0 -2,0 -3.97685,-11.48035 -5.33889,-20.02673 -1,-31.6875 3.16102,-3.654931 7.43108,-4.967373 12,-6.3125 0.99,0 1.98,0 3,0 0,-0.66 0,-1.32 0,-2 34.25373,-5.373134 34.25373,-5.373134 47,1 z"
     fill="#fdfdfc"
     id="path2" />
  <path
     d="m 185.0625,241.8125 c 2.4054,2.71578 2.77806,4.60015 2.9375,8.1875 -1,1 -1,1 -4.96899,1.11353 -1.77207,-1.6e-4 -3.54413,-0.006 -5.31617,-0.0159 -0.93082,-0.001 -1.86163,-0.003 -2.82066,-0.004 -2.98559,-0.006 -5.97111,-0.0182 -8.95668,-0.0309 -2.01888,-0.005 -4.03776,-0.01 -6.05664,-0.0137 -4.96032,-0.0113 -9.92058,-0.0285 -14.88086,-0.049 0,-4.28861 0.13495,-4.66731 2.8125,-7.625 0.7831,-0.88559 0.7831,-0.88559 1.58203,-1.78907 8.79045,-8.6835 25.98705,-5.50296 35.66797,0.22657 z"
     fill="#f96b38"
     id="path3" />
  <path
     d="m 133,240 c 2.46486,2.40964 4.54417,4.86048 6,8 -0.33,0.99 -0.66,1.98 -1,3 -13.53,0 -27.06,0 -41,0 -1,-3 -1,-3 0.125,-6 2.846285,-4.55406 6.50329,-6.31881 11.66406,-7.64844 C 116.61973,236.1064 126.01059,235.74192 133,240 Z"
     fill="#f96b38"
     id="path4" />
  <path
     d="m 133,30 c 2.4375,1.4375 2.4375,1.4375 4,4 0.48739,3.068315 0.62363,5.949246 0,9 -1.40234,1.777344 -1.40234,1.777344 -3,3 -0.66,0 -1.32,0 -2,0 0,0.66 0,1.32 0,2 -3.93546,0.457612 -5.57245,0.297427 -8.875,-2 -2.91377,-4.113563 -2.67741,-6.02835 -2.125,-11 0.8125,-2.4375 0.8125,-2.4375 2,-4 3.59264,-1.197548 6.22717,-1.33095 10,-1 z"
     fill="#f2f2f2"
     id="path5" />
  <path
     d="m 83,148 c 1.32,0.33 2.64,0.66 4,1 0,0.66 0,1.32 0,2 -0.99,0.33 -1.98,0.66 -3,1 -0.733238,2.01508 -0.733238,2.01508 -1,4 -0.66,0 -1.32,0 -2,0 0.66,-2.64 1.32,-5.28 2,-8 z"
     fill="#bcbcbc"
     id="path6" />
  <path
     d="m 240.24806,41.29961 -2.57814,-0.07813 q -0.0781,-3.151051 -0.0781,-5.598976 0,-2.526049 0.23437,-4.32293 0.23438,-1.822922 0.96355,-2.994801 0.75521,-1.171878 2.16146,-1.718755 1.4323,-0.546877 3.77606,-0.546877 1.48438,0 3.41147,0.07813 1.92709,0.07813 4.06251,0.156251 2.13542,0.07813 4.37501,0.15625 2.26563,0.07813 4.37502,0.07813 3.54167,0 6.25002,0 2.70834,-0.02604 4.81772,-0.05208 2.10938,-0.02604 3.69793,-0.07813 1.58854,-0.05208 2.89063,-0.156251 1.32813,-0.104167 2.44793,-0.234375 1.14583,-0.156251 2.31771,-0.364585 0.44271,1.250004 0.44271,2.057298 0,1.718756 -1.45834,2.630217 -1.43229,0.911461 -4.27084,0.911461 -2.6823,0 -6.32815,-0.312501 -3.6198,-0.338543 -8.17711,-0.651044 -0.0781,3.854179 -0.20833,8.229193 -0.10417,4.375013 -0.23438,9.062528 -0.13021,4.661473 -0.28646,9.557322 -0.13021,4.869806 -0.28646,9.765655 -0.15625,4.869807 -0.3125,9.661489 -0.13021,4.791681 -0.26041,9.270862 l -6.1719,0.781252 -0.46875,-0.05208 q 0.20833,-4.973974 0.39063,-9.53128 0.18229,-4.583348 0.33854,-8.984403 0.15625,-4.401055 0.28646,-8.776069 0.13021,-4.401055 0.20833,-9.036487 0.0781,-4.635431 0.13021,-9.635446 0.0521,-5.026058 0.0521,-10.677117 -1.48438,-0.05208 -3.02084,-0.07813 -1.53646,-0.05208 -3.12501,-0.05208 -1.58854,0 -2.96876,0.05208 -1.38021,0.05208 -2.52605,0.364584 -1.14583,0.312501 -2.0573,0.989587 -0.91146,0.651043 -1.53646,1.875005 -0.625,1.197921 -0.96354,3.072927 -0.3125,1.875006 -0.3125,4.583347 z m 50.72932,-3.906263 q -0.91146,0 -1.61459,-0.364584 -0.70312,-0.390626 -1.19792,-0.989587 -0.49479,-0.625002 -0.75521,-1.406254 -0.26041,-0.807294 -0.26041,-1.64063 0,-1.171879 0.39062,-2.057298 0.39063,-0.911461 1.01563,-1.510422 0.625,-0.625001 1.38021,-0.911461 0.75521,-0.312501 1.48438,-0.312501 0.88542,0 1.58855,0.338543 0.70313,0.312501 1.19792,0.885419 0.52083,0.572919 0.78125,1.32813 0.28646,0.729169 0.28646,1.588546 0,0.911461 -0.3125,1.822923 -0.3125,0.885419 -0.88542,1.614588 -0.54688,0.729169 -1.35417,1.171879 -0.78125,0.442709 -1.7448,0.442709 z m 2.26563,11.77087 q -0.44271,2.96876 -0.75521,5.963561 -0.3125,2.968759 -0.52083,5.755226 -0.18229,2.786467 -0.28646,5.286475 -0.0781,2.473966 -0.0781,4.479181 0,2.708341 0.0781,4.661472 0.0781,1.92709 0.26042,3.255219 0.18229,1.328129 0.44271,2.135423 0.28646,0.781253 0.67708,1.223962 0.41667,0.416668 0.9375,0.546877 0.54688,0.130209 1.22397,0.130209 1.25,0 2.6823,-0.364585 1.45833,-0.390626 2.94271,-1.067711 l 0.4948,1.354171 q -0.93751,0.75521 -2.3698,1.536463 -1.40626,0.781252 -2.96876,1.432296 -1.56251,0.651044 -3.07293,1.04167 -1.48438,0.416668 -2.57813,0.416668 -0.72917,0 -1.32813,-0.130209 -0.59896,-0.104167 -1.09375,-0.572918 -0.46875,-0.468752 -0.85938,-1.380213 -0.36458,-0.911461 -0.625,-2.473966 -0.23438,-1.562505 -0.36459,-3.906262 -0.13021,-2.343758 -0.13021,-5.677101 0,-1.953131 0.026,-4.401056 0.0521,-2.473966 0.13021,-5.286475 0.0781,-2.83855 0.20833,-5.96356 0.13021,-3.151051 0.33854,-6.484395 0.0521,-0.729169 0.39063,-1.171879 0.33854,-0.468751 0.83333,-0.703127 0.4948,-0.260418 1.04167,-0.338543 0.57292,-0.104167 1.04167,-0.104167 1.7448,0 3.28126,0.807294 z m 31.8751,9.895865 q 0.72917,-1.432296 0.72917,-2.916676 0,-1.015628 -0.36458,-1.901048 -0.33855,-0.911461 -1.04167,-1.588546 -0.70313,-0.703128 -1.77084,-1.093754 -1.04167,-0.416668 -2.44793,-0.416668 -2.03125,0 -3.64584,0.729169 -1.61459,0.703127 -2.86459,1.953131 -1.22397,1.250004 -2.10939,2.890634 -0.85937,1.64063 -1.43229,3.515636 -0.54688,1.875006 -0.8073,3.854179 -0.26041,1.953131 -0.26041,3.828137 0,3.359385 0.85937,6.119811 0.88542,2.734383 2.3698,4.687514 1.48438,1.92709 3.46356,2.994801 1.97917,1.067712 4.21876,1.067712 2.3698,0 4.79168,-1.223962 2.44793,-1.250004 4.7396,-4.010429 0.15625,0.07813 0.39063,0.234375 0.26041,0.130209 0.46875,0.312501 0.20833,0.182293 0.36458,0.364585 0.15625,0.182292 0.15625,0.338543 0,0.104167 -0.026,0.130208 l -0.0521,0.104167 q -2.52605,4.088555 -6.06773,6.119811 -3.54168,2.031257 -7.76044,2.031257 -2.29168,0 -4.21876,-0.651044 -1.92709,-0.625002 -3.4896,-1.744797 -1.5625,-1.145837 -2.76042,-2.6823 -1.17188,-1.562505 -1.97918,-3.359386 -0.78125,-1.822922 -1.19792,-3.802095 -0.39062,-2.005215 -0.39062,-4.036471 0,-2.734384 0.59896,-5.468767 0.59896,-2.760425 1.74479,-5.286475 1.17188,-2.552091 2.81251,-4.739598 1.66667,-2.213549 3.75001,-3.828137 2.10939,-1.64063 4.63544,-2.552091 2.52604,-0.937503 5.39064,-0.937503 2.13542,0 3.98438,0.520835 1.84897,0.520835 3.1771,1.484379 1.35417,0.937503 2.10938,2.291674 0.78125,1.328129 0.78125,2.968759 0,1.067712 -0.33854,1.901048 -0.3125,0.807294 -0.91146,1.406254 -0.57292,0.572919 -1.38021,0.88542 -0.78126,0.286459 -1.71876,0.286459 -0.57292,0 -1.19792,-0.104167 -0.59896,-0.130209 -1.19792,-0.390626 z m 25.49488,9.973989 q 3.12501,-1.04167 5.70314,-2.369799 2.57813,-1.328129 4.4271,-2.83855 1.875,-1.510422 2.89063,-3.177094 1.01563,-1.666672 1.01563,-3.411469 0,-0.729169 -0.28646,-1.328129 -0.26042,-0.625002 -0.72917,-1.04167 -0.44271,-0.442709 -1.06771,-0.677085 -0.59896,-0.234376 -1.30209,-0.234376 -1.64063,0 -3.41147,1.015628 -1.7448,1.015628 -3.48959,2.942718 -1.71876,1.927089 -3.35939,4.713556 -1.64063,2.786467 -3.04688,6.328145 -1.40626,3.541678 -2.52605,7.786483 -1.1198,4.244805 -1.79688,9.062528 l -5.26044,0.677085 -0.41666,-0.02604 q 0.15625,-3.072927 0.33854,-6.770855 0.20833,-3.72397 0.41667,-7.89065 0.23437,-4.166679 0.46875,-8.671902 0.26042,-4.531264 0.49479,-9.218778 0.26042,-4.687515 0.52084,-9.453155 0.26041,-4.76564 0.49479,-9.401071 0.26042,-4.661473 0.49479,-9.114612 0.23438,-4.453139 0.44271,-8.515651 0.026,-0.625002 0.36459,-1.067712 0.33854,-0.468752 0.85937,-0.729169 0.54688,-0.286459 1.22397,-0.416668 0.67708,-0.130209 1.40625,-0.130209 1.56251,0 3.28126,0.833336 -0.59896,5.338559 -1.06771,9.791697 -0.46875,4.453139 -0.85938,8.281276 -0.36458,3.802096 -0.67708,7.135439 -0.3125,3.307302 -0.57292,6.354187 -0.23438,3.020843 -0.46875,5.937518 -0.20834,2.890634 -0.41667,5.885435 -0.20834,2.994801 -0.44271,6.197936 -0.20833,3.203135 -0.46875,6.875022 l 0.15625,0.02604 q 0.9375,-3.098968 2.21355,-6.119811 1.27604,-3.020843 2.81251,-5.729185 1.53646,-2.734383 3.3073,-5.026057 1.77084,-2.317716 3.69793,-3.984387 1.92709,-1.666672 3.98438,-2.604175 2.0573,-0.963545 4.16668,-0.963545 1.32813,0 2.44793,0.44271 1.11979,0.416668 1.92709,1.223962 0.83333,0.781252 1.27604,1.901048 0.46875,1.119795 0.46875,2.500007 0,2.161465 -0.9375,4.192722 -0.9375,2.031256 -2.65626,3.906262 -1.71875,1.875006 -4.14064,3.567719 -2.39584,1.666672 -5.33855,3.098968 1.74479,3.203135 3.12501,5.494809 1.40625,2.265632 2.52605,3.828137 1.14583,1.536463 2.05729,2.447925 0.91146,0.911461 1.66668,1.380212 0.78125,0.468752 1.45833,0.625002 0.67709,0.130209 1.35417,0.130209 1.35418,0 2.81251,-0.416668 1.45834,-0.416668 2.94272,-1.093754 l 0.49479,1.354171 q -0.9375,0.755211 -2.3698,1.536464 -1.43229,0.781252 -3.04688,1.432296 -1.58855,0.651043 -3.17709,1.04167 -1.56251,0.416668 -2.76043,0.416668 -1.40625,0 -2.81251,-1.04167 -1.38021,-1.015629 -2.9948,-3.177094 -1.58854,-2.161465 -3.51563,-5.468767 -1.92709,-3.333343 -4.4271,-7.942733 z m 52.78662,8.697944 q 0.15625,0.07813 0.39063,0.234376 0.26042,0.130208 0.46875,0.312501 0.20834,0.15625 0.36459,0.364584 0.15625,0.182292 0.15625,0.364585 0,0.104167 -0.0781,0.208334 -1.45834,2.031256 -3.15105,3.541677 -1.66667,1.48438 -3.48959,2.500008 -1.79689,0.989587 -3.67189,1.458338 -1.87501,0.494793 -3.69793,0.494793 -3.12501,0 -5.72918,-1.276045 -2.60418,-1.276046 -4.47918,-3.489595 -1.87501,-2.213548 -2.94272,-5.182307 -1.04167,-2.994801 -1.04167,-6.40627 0,-2.786468 0.59896,-5.572935 0.625,-2.786467 1.77084,-5.312516 1.17188,-2.52605 2.83855,-4.687515 1.66667,-2.187507 3.77605,-3.776053 2.13542,-1.614589 4.66147,-2.52605 2.55209,-0.911461 5.46877,-0.911461 1.92709,0 3.67189,0.520835 1.74479,0.520835 3.04688,1.510421 1.32813,0.963545 2.10938,2.395841 0.78126,1.432296 0.78126,3.255219 0,2.656258 -1.7448,4.635431 -1.71876,1.979173 -4.76564,3.359385 -3.04689,1.380213 -7.18752,2.239591 -4.1146,0.833336 -8.90628,1.250004 V 67.6799 q 0,3.333344 0.83333,6.093769 0.85938,2.760426 2.34376,4.739598 1.48438,1.953132 3.4896,3.046885 2.00521,1.093753 4.32293,1.093753 2.34375,0 4.79168,-1.145837 2.47396,-1.171878 5.00001,-3.776053 z m -4.89585,-20.911524 q 0,-1.19792 -0.41666,-2.23959 -0.39063,-1.04167 -1.1198,-1.796881 -0.70313,-0.781252 -1.69271,-1.223962 -0.98959,-0.442709 -2.13543,-0.442709 -1.69271,0 -3.07292,0.59896 -1.38021,0.59896 -2.47397,1.64063 -1.09375,1.015628 -1.92709,2.395841 -0.83333,1.354171 -1.43229,2.890634 -0.57292,1.536463 -0.93751,3.151051 -0.36458,1.614589 -0.52083,3.151052 3.69793,-0.260418 6.6146,-0.88542 2.94272,-0.651043 4.94794,-1.64063 2.03125,-1.015628 3.09896,-2.395841 1.06771,-1.406254 1.06771,-3.203135 z m 24.79175,-27.317793 q -1.09376,4.947932 -1.84897,10.234407 -0.72917,5.260433 -1.25,10.390657 1.22396,0.05208 2.3698,0.07813 1.17188,0.02604 2.16146,0.05208 1.01563,0.02604 1.82293,0.02604 0.83333,0 1.38021,0 2.3698,0 3.88022,-0.28646 0.13021,0.44271 0.20833,0.807295 0.0781,0.364584 0.0781,0.677085 0,1.145837 -0.96355,1.48438 -0.9375,0.338542 -2.73438,0.338542 -1.71875,0 -3.85418,-0.208334 -2.10938,-0.208334 -4.63543,-0.390626 -0.28646,2.786467 -0.49479,5.442726 -0.18229,2.630216 -0.3125,4.973973 -0.10417,2.343758 -0.15625,4.348972 -0.0521,2.005215 -0.0521,3.489595 0,2.786467 0.28646,4.973973 0.28646,2.187507 1.01563,3.72397 0.72917,1.510422 2.00521,2.317716 1.27605,0.807294 3.22918,0.807294 1.40626,0 3.12501,-0.494793 1.7448,-0.494793 3.95835,-1.588547 0.70312,0.703127 0.80729,1.718756 -1.61459,1.067711 -3.25522,1.953131 -1.64063,0.859377 -3.22917,1.484379 -1.58855,0.625002 -3.07293,0.963545 -1.48438,0.338543 -2.81251,0.338543 -1.7448,0 -3.20313,-0.651044 -1.4323,-0.625002 -2.50001,-2.23959 -1.04167,-1.64063 -1.64063,-4.401056 -0.57292,-2.760425 -0.57292,-6.979188 0,-2.369799 0.0781,-4.869807 0.0781,-2.52605 0.20834,-5.104183 0.13021,-2.578133 0.33854,-5.156266 0.20834,-2.578133 0.46875,-5.078141 -2.0573,0.02604 -3.82813,0.182293 -1.7448,0.130208 -2.99481,0.442709 -0.0781,-0.15625 -0.0781,-0.364584 0,-0.546877 0.52083,-1.015628 0.54688,-0.494793 1.48438,-0.88542 0.96355,-0.390626 2.29168,-0.651043 1.32813,-0.260418 2.91667,-0.364585 0.59896,-5.442725 1.27605,-10.28649 0.67708,-4.843765 1.35417,-8.645861 0.13021,-0.677085 0.46875,-1.119795 0.36459,-0.44271 0.83334,-0.703127 0.46875,-0.260418 1.01563,-0.364585 0.54687,-0.104166 1.06771,-0.104166 0.85938,0 1.53646,0.182292 0.70313,0.182292 1.30209,0.520835 z m 37.55219,4.557306 q 0,-1.093754 -0.1823,-1.875006 -0.18229,-0.781253 -0.65104,-1.276046 -0.44271,-0.494793 -1.25,-0.729169 -0.8073,-0.234376 -2.0573,-0.234376 -1.71876,0 -4.40106,0.390627 l -0.3125,-2.317716 q 2.44793,-0.44271 5.33856,-0.911461 2.91668,-0.468752 5.96356,-0.859378 3.07293,-0.390626 6.14585,-0.625002 3.09897,-0.260417 5.93752,-0.260417 3.75001,0 7.03127,0.677085 3.30731,0.677086 5.75523,2.317716 2.47397,1.614588 3.90626,4.348972 1.4323,2.734383 1.4323,6.822938 0,4.76564 -1.61459,8.567735 -1.58855,3.776053 -4.47918,6.40627 -2.89063,2.630216 -6.95315,4.036471 -4.03647,1.380212 -8.93232,1.380212 -1.09375,0 -1.53646,-0.338542 -0.44271,-0.338543 -0.44271,-1.458338 v -0.338543 q 0,-0.260417 0.026,-0.390626 3.82814,0 6.56252,-0.781253 2.76043,-0.807294 4.63543,-2.109381 1.87501,-1.328129 2.99481,-2.994801 1.11979,-1.692714 1.71875,-3.463553 0.59896,-1.79688 0.78125,-3.541677 0.1823,-1.744798 0.1823,-3.151052 0,-3.776053 -1.06772,-6.276061 -1.04167,-2.52605 -2.86459,-4.010429 -1.79688,-1.48438 -4.21876,-2.08334 -2.42188,-0.625002 -5.15627,-0.625002 -1.38021,0 -2.65626,0.104167 -1.25,0.104167 -2.73438,0.286459 -0.0521,2.005215 -0.15625,5.3646 -0.0781,3.359386 -0.20833,7.734399 -0.10417,4.348972 -0.26042,9.557322 -0.15625,5.182308 -0.3125,10.859409 -0.15625,5.651059 -0.33855,11.640661 -0.18229,5.96356 -0.36458,11.901079 l -6.17189,0.781252 -0.46876,-0.05208 q 0.31251,-7.473982 0.57292,-14.166711 0.26042,-6.692729 0.41667,-13.020874 0.18229,-6.354187 0.28646,-12.552123 0.10417,-6.223977 0.10417,-12.734414 z m 58.35956,43.672011 q 0.15625,0.07813 0.39063,0.234376 0.26041,0.130208 0.46875,0.312501 0.20833,0.15625 0.36458,0.364584 0.15625,0.182292 0.15625,0.364585 0,0.104167 -0.0781,0.208334 -1.45834,2.031256 -3.15105,3.541677 -1.66667,1.48438 -3.4896,2.500008 -1.79688,0.989587 -3.67188,1.458338 -1.87501,0.494793 -3.69793,0.494793 -3.12501,0 -5.72919,-1.276045 -2.60417,-1.276046 -4.47918,-3.489595 -1.875,-2.213548 -2.94271,-5.182307 -1.04167,-2.994801 -1.04167,-6.40627 0,-2.786468 0.59896,-5.572935 0.625,-2.786467 1.77083,-5.312516 1.17188,-2.52605 2.83855,-4.687515 1.66668,-2.187507 3.77606,-3.776053 2.13542,-1.614589 4.66147,-2.52605 2.55209,-0.911461 5.46877,-0.911461 1.92709,0 3.67188,0.520835 1.7448,0.520835 3.04689,1.510421 1.32813,0.963545 2.10938,2.395841 0.78125,1.432296 0.78125,3.255219 0,2.656258 -1.74479,4.635431 -1.71876,1.979173 -4.76564,3.359385 -3.04689,1.380213 -7.18753,2.239591 -4.11459,0.833336 -8.90627,1.250004 V 67.6799 q 0,3.333344 0.83333,6.093769 0.85938,2.760426 2.34376,4.739598 1.48438,1.953132 3.48959,3.046885 2.00522,1.093753 4.32293,1.093753 2.34376,0 4.79169,-1.145837 2.47396,-1.171878 5.00001,-3.776053 z m -4.89585,-20.911524 q 0,-1.19792 -0.41667,-2.23959 -0.39062,-1.04167 -1.11979,-1.796881 -0.70313,-0.781252 -1.69271,-1.223962 -0.98959,-0.442709 -2.13543,-0.442709 -1.69271,0 -3.07292,0.59896 -1.38022,0.59896 -2.47397,1.64063 -1.09375,1.015628 -1.92709,2.395841 -0.83334,1.354171 -1.4323,2.890634 -0.57291,1.536463 -0.9375,3.151051 -0.36458,1.614589 -0.52083,3.151052 3.69792,-0.260418 6.6146,-0.88542 2.94272,-0.651043 4.94793,-1.64063 2.03126,-1.015628 3.09897,-2.395841 1.06771,-1.406254 1.06771,-3.203135 z m 16.25004,-0.963544 q 0,-1.067712 -0.15625,-1.796881 -0.15625,-0.729169 -0.4948,-1.145837 -0.3125,-0.44271 -0.80729,-0.625002 -0.49479,-0.182292 -1.17188,-0.182292 -0.9375,0 -2.23959,0.260417 -1.30209,0.260418 -2.96876,0.703128 l -0.39063,-1.875006 q 1.84897,-0.651044 3.54168,-1.171879 1.71876,-0.546877 3.15105,-0.937503 1.4323,-0.390626 2.52605,-0.59896 1.09376,-0.208334 1.71876,-0.208334 1.51042,0 2.34376,0.911461 0.85937,0.88542 0.85937,3.072926 0,0.260418 -0.0521,1.223963 -0.0521,0.937503 -0.15625,2.39584 -0.0781,1.458338 -0.20833,3.359386 -0.13021,1.875006 -0.31251,4.010429 -0.15625,2.135423 -0.36458,4.427097 -0.20833,2.265632 -0.44271,4.531264 l 0.15625,0.02604 q 1.97917,-6.718771 4.24481,-11.32816 2.26563,-4.635431 4.60939,-7.500024 2.34375,-2.890634 4.66147,-4.166679 2.31771,-1.276046 4.4271,-1.276046 1.45833,0 2.8125,0.546877 1.35418,0.546876 2.39585,1.744797 1.06771,1.19792 1.69271,3.098968 0.625,1.875006 0.625,4.557306 0,0.781252 -0.10417,2.109381 -0.0781,1.302088 -0.20833,2.916676 -0.13021,1.614589 -0.3125,3.437511 -0.15625,1.79688 -0.28646,3.541678 -0.13021,1.744797 -0.23438,3.333343 -0.0781,1.562505 -0.0781,2.734384 0,2.031256 0.15625,3.307302 0.18229,1.276046 0.57292,2.031256 0.39062,0.729169 1.04167,1.015628 0.65104,0.260418 1.58854,0.260418 1.35417,0 2.81251,-0.364585 1.45834,-0.390626 2.94272,-1.067711 l 0.49479,1.354171 q -0.9375,0.75521 -2.3698,1.536463 -1.43229,0.781252 -3.02084,1.432296 -1.5625,0.651044 -3.12501,1.04167 -1.5625,0.416668 -2.76042,0.416668 -1.40626,0 -2.21355,-0.755211 -0.8073,-0.755211 -1.22396,-2.057298 -0.39063,-1.302087 -0.52084,-3.046885 -0.10417,-1.744797 -0.10417,-3.750011 0,-2.447925 0.15625,-5.026058 0.1823,-2.604174 0.39063,-4.947932 0.20833,-2.343757 0.36459,-4.244805 0.18229,-1.927089 0.18229,-3.072926 0,-3.046884 -1.14584,-4.479181 -1.14584,-1.458337 -3.04688,-1.458337 -1.51043,0 -3.1771,1.276045 -1.66667,1.276046 -3.33334,3.515636 -1.64063,2.213549 -3.17709,5.260433 -1.51043,3.020843 -2.73439,6.562521 -1.22396,3.515636 -2.03125,7.369814 -0.8073,3.854179 -1.01563,7.708358 l -5.44273,0.677085 -0.41667,-0.02604 q 0.20834,-2.473966 0.39063,-5.390642 0.18229,-2.916676 0.33854,-5.911477 0.15625,-3.020843 0.26042,-5.96356 0.13021,-2.96876 0.20833,-5.520851 0.10417,-2.578133 0.13021,-4.609389 0.0521,-2.031257 0.0521,-3.203135 z m 68.90648,-2.52605 q 1.32813,1.901048 1.84897,3.828137 0.52083,1.927089 0.52083,3.906262 0,2.057298 -0.57292,4.036471 -0.54687,1.953131 -1.58854,3.72397 -1.01563,1.744797 -2.47397,3.229177 -1.4323,1.458338 -3.20314,2.552091 -1.77083,1.067712 -3.80209,1.666672 -2.03126,0.59896 -4.24481,0.59896 -0.57291,0 -1.14583,-0.05208 -0.54688,-0.05208 -1.14584,-0.130209 -0.91146,0.182292 -1.66667,0.546877 -0.75521,0.364584 -1.32813,0.859377 -0.57292,0.494794 -0.88542,1.067712 -0.3125,0.546877 -0.3125,1.119795 0,1.145837 0.88542,1.953131 0.91146,0.807295 2.42188,1.406255 1.51042,0.59896 3.4896,1.067711 2.00521,0.44271 4.16668,0.911462 1.95313,0.416668 3.85417,0.859377 1.90105,0.44271 3.61981,1.015629 1.71875,0.572918 3.17709,1.328129 1.45834,0.781252 2.52605,1.79688 1.06771,1.04167 1.66667,2.395841 0.59896,1.380213 0.59896,3.177093 0,2.265632 -0.83333,4.348976 -0.8073,2.10938 -2.29168,3.9323 -1.48438,1.82292 -3.54168,3.33334 -2.05729,1.51043 -4.53126,2.57814 -2.47397,1.09375 -5.28647,1.66667 -2.78647,0.59896 -5.75523,0.59896 -1.71876,0 -3.6198,-0.26042 -1.90105,-0.23437 -3.75002,-0.78125 -1.84896,-0.52084 -3.54167,-1.38021 -1.66667,-0.83334 -2.96876,-2.03126 -1.27605,-1.19792 -2.03126,-2.76043 -0.75521,-1.5625 -0.75521,-3.56771 0,-1.66668 0.54688,-3.20314 0.54687,-1.536463 1.45834,-2.864592 0.9375,-1.328129 2.16146,-2.473966 1.22396,-1.145837 2.57813,-2.057298 1.38022,-0.911461 2.78647,-1.588547 1.4323,-0.651043 2.76043,-1.04167 l 0.0521,-0.130208 q -0.96355,-0.416668 -1.90105,-0.963545 -0.91146,-0.520835 -1.66667,-1.250004 -0.72917,-0.729169 -1.19792,-1.64063 -0.44271,-0.937503 -0.44271,-2.109382 0,-1.328129 0.59896,-2.369799 0.625,-1.067711 1.5625,-1.875006 0.93751,-0.833335 2.0573,-1.432296 1.1198,-0.59896 2.16147,-1.04167 -2.00522,-0.781252 -3.59376,-2.005214 -1.56251,-1.223962 -2.65626,-2.786467 -1.06771,-1.562505 -1.64063,-3.385427 -0.57292,-1.848965 -0.57292,-3.854179 0,-3.411469 1.32813,-6.302103 1.32813,-2.916676 3.56772,-5.026058 2.26563,-2.109381 5.23439,-3.307302 2.96876,-1.19792 6.25002,-1.19792 1.25,0 2.29167,0.182292 1.04167,0.182293 1.92709,0.468752 0.88542,0.260417 1.61459,0.59896 0.75521,0.312501 1.40626,0.625002 0.98958,0.494793 1.92708,0.885419 0.96355,0.364585 2.21355,0.364585 1.04167,0 2.00522,-0.338543 0.96354,-0.338543 1.69271,-0.963545 0.72917,-0.651043 1.14584,-1.562504 0.44271,-0.937503 0.44271,-2.109382 0,-0.182292 -0.026,-0.338543 0,-0.15625 -0.0261,-0.364584 l 0.33855,-0.234376 q 1.79688,0.833336 2.65626,2.08334 0.88541,1.223962 0.88541,2.473966 0,0.989586 -0.39062,1.770839 -0.39063,0.75521 -1.1198,1.302087 -0.70312,0.546877 -1.69271,0.833336 -0.98959,0.286459 -2.18751,0.286459 -1.82292,0 -3.9323,-0.729169 z m -17.13547,36.406364 q -1.84896,0.494793 -3.51563,1.432296 -1.64063,0.937503 -2.91668,2.265632 -1.27605,1.354171 -2.03126,3.072926 -0.72917,1.718756 -0.72917,3.750015 0,2.5 1.09376,4.29689 1.11979,1.82292 2.86459,3.02084 1.77084,1.19792 3.9323,1.77084 2.16147,0.57292 4.27085,0.57292 2.86459,0 5.46877,-0.88542 2.60417,-0.85938 4.5573,-2.42189 1.97918,-1.53646 3.12501,-3.64584 1.17188,-2.10938 1.17188,-4.609391 0,-1.406254 -0.57292,-2.421882 -0.57291,-0.989587 -1.58854,-1.744797 -0.98959,-0.729169 -2.3698,-1.250004 -1.38021,-0.520835 -3.02084,-0.963545 -2.21355,-0.59896 -4.68752,-1.093753 -2.44792,-0.494793 -5.0521,-1.145837 z m 5.3646,-15.755258 q 1.40626,0 2.52605,-0.468751 1.14584,-0.494793 2.03126,-1.302088 0.88542,-0.807294 1.51042,-1.875005 0.625,-1.093754 1.01563,-2.265633 0.41667,-1.19792 0.59896,-2.421882 0.20833,-1.250004 0.20833,-2.395841 0,-1.432296 -0.26042,-2.890634 -0.23437,-1.48438 -0.72916,-2.864592 -0.4948,-1.380213 -1.27605,-2.578133 -0.75521,-1.197921 -1.77084,-2.08334 -1.01563,-0.911461 -2.31771,-1.432296 -1.30209,-0.520835 -2.89064,-0.520835 -1.48438,0 -2.6823,0.468751 -1.17188,0.468752 -2.08334,1.276046 -0.91146,0.807294 -1.5625,1.875006 -0.62501,1.04167 -1.04167,2.23959 -0.39063,1.171879 -0.59896,2.395841 -0.1823,1.223962 -0.1823,2.343757 0,1.432296 0.26042,2.942718 0.26042,1.484379 0.78125,2.864592 0.52084,1.380213 1.30209,2.604175 0.8073,1.223962 1.84897,2.135423 1.06771,0.911461 2.39584,1.432296 1.32813,0.520835 2.91667,0.520835 z m 56.58873,-25.494871 q -0.23438,2.473966 -0.44271,5.260433 -0.18229,2.760425 -0.33854,5.546892 -0.15626,2.760426 -0.23438,5.416684 -0.0781,2.656258 -0.0781,4.895849 0,4.244805 0.4948,6.953146 0.49479,2.6823 1.27604,4.244805 0.78126,1.536463 1.77084,2.135424 1.01563,0.572918 2.03126,0.572918 0.59896,0 1.17188,-0.15625 0.59896,-0.156251 1.11979,-0.364585 0.52084,-0.234376 0.9375,-0.494793 0.44271,-0.260418 0.75522,-0.468752 l 0.85937,1.197921 q -0.75521,0.781252 -1.71875,1.484379 -0.96355,0.677086 -2.03126,1.171879 -1.06771,0.520835 -2.23959,0.807294 -1.17188,0.28646 -2.3698,0.28646 -1.51042,0 -2.94272,-0.598961 -1.40625,-0.59896 -2.52604,-2.005214 -1.09376,-1.432296 -1.77084,-3.776054 -0.67709,-2.369799 -0.67709,-5.859393 0,-1.119795 0.0521,-2.23959 0.0521,-1.145837 0.15625,-2.421883 0.13021,-1.276046 0.31251,-2.734383 0.18229,-1.458338 0.41666,-3.229177 l -0.28646,-0.05208 q -1.77083,6.536479 -3.85417,10.963576 -2.0573,4.427097 -4.24481,7.135439 -2.16146,2.708342 -4.34897,3.854179 -2.18751,1.171879 -4.16668,1.171879 -2.34376,0 -3.90626,-1.276046 -1.53647,-1.250004 -2.47397,-3.411469 -0.91146,-2.187507 -1.30209,-5.052099 -0.36458,-2.890634 -0.36458,-6.119811 0,-2.734384 0.15625,-5.598976 0.18229,-2.890634 0.44271,-5.651059 0.28646,-2.786467 0.625,-5.286475 0.36459,-2.52605 0.72917,-4.505222 0.13021,-0.729169 0.41667,-1.171879 0.3125,-0.44271 0.70313,-0.677085 0.39062,-0.234376 0.85937,-0.312501 0.46875,-0.07813 0.93751,-0.07813 0.88542,0 1.64063,0.208334 0.78125,0.208334 1.53646,0.59896 -0.46875,2.942718 -0.88542,5.859394 -0.39063,2.916676 -0.70313,5.677101 -0.28646,2.734383 -0.46875,5.286475 -0.15625,2.552091 -0.15625,4.76564 0,2.39584 0.23438,4.375013 0.26041,1.953131 0.83333,3.359386 0.57292,1.406254 1.45834,2.187507 0.91146,0.75521 2.21355,0.75521 2.21355,0 4.53126,-2.369799 2.31772,-2.395841 4.4271,-6.979188 2.10938,-4.583348 3.59376,-10.286491 1.48438,-5.729184 1.90105,-12.343788 l 5.52085,-0.677086 z m 18.46358,-11.093785 q -0.91146,0 -1.61458,-0.364584 -0.70313,-0.390626 -1.19793,-0.989587 -0.49479,-0.625002 -0.75521,-1.406254 -0.26041,-0.807294 -0.26041,-1.64063 0,-1.171879 0.39062,-2.057298 0.39063,-0.911461 1.01563,-1.510422 0.625,-0.625001 1.38021,-0.911461 0.75521,-0.312501 1.48438,-0.312501 0.88542,0 1.58855,0.338543 0.70313,0.312501 1.19792,0.885419 0.52084,0.572919 0.78125,1.32813 0.28646,0.729169 0.28646,1.588546 0,0.911461 -0.3125,1.822923 -0.3125,0.885419 -0.88542,1.614588 -0.54687,0.729169 -1.35417,1.171879 -0.78125,0.442709 -1.7448,0.442709 z m 2.26564,11.77087 q -0.44271,2.96876 -0.75521,5.963561 -0.31251,2.968759 -0.52084,5.755226 -0.18229,2.786467 -0.28646,5.286475 -0.0781,2.473966 -0.0781,4.479181 0,2.708341 0.0781,4.661472 0.0781,1.92709 0.26042,3.255219 0.18229,1.328129 0.44271,2.135423 0.28646,0.781253 0.67708,1.223962 0.41667,0.416668 0.93751,0.546877 0.54687,0.130209 1.22396,0.130209 1.25,0 2.6823,-0.364585 1.45834,-0.390626 2.94272,-1.067711 l 0.49479,1.354171 q -0.9375,0.75521 -2.3698,1.536463 -1.40625,0.781252 -2.96876,1.432296 -1.5625,0.651044 -3.07293,1.04167 -1.48437,0.416668 -2.57813,0.416668 -0.72917,0 -1.32813,-0.130209 -0.59896,-0.104167 -1.09375,-0.572918 -0.46875,-0.468752 -0.85938,-1.380213 -0.36458,-0.911461 -0.625,-2.473966 -0.23438,-1.562505 -0.36458,-3.906262 -0.13021,-2.343758 -0.13021,-5.677101 0,-1.953131 0.026,-4.401056 0.0521,-2.473966 0.13021,-5.286475 0.0781,-2.83855 0.20833,-5.96356 0.13021,-3.151051 0.33854,-6.484395 0.0521,-0.729169 0.39063,-1.171879 0.33854,-0.468751 0.83334,-0.703127 0.49479,-0.260418 1.04167,-0.338543 0.57291,-0.104167 1.04167,-0.104167 1.74479,0 3.28126,0.807294 z m 15.13024,6.69273 q 0,-1.067712 -0.15625,-1.796881 -0.15625,-0.729169 -0.4948,-1.145837 -0.3125,-0.44271 -0.80729,-0.625002 -0.49479,-0.182292 -1.17188,-0.182292 -0.9375,0 -2.23959,0.260417 -1.30209,0.260418 -2.96876,0.703128 l -0.39062,-1.875006 q 1.84896,-0.651044 3.54167,-1.171879 1.71876,-0.546877 3.15106,-0.937503 1.43229,-0.390626 2.52604,-0.59896 1.09376,-0.208334 1.71876,-0.208334 1.51042,0 2.34376,0.911461 0.85938,0.88542 0.85938,3.072926 0,0.260418 -0.0521,1.223963 -0.0521,0.937503 -0.15625,2.39584 -0.0781,1.458338 -0.20833,3.359386 -0.13021,1.875006 -0.3125,4.010429 -0.15625,2.135423 -0.36459,4.427097 -0.20833,2.265632 -0.44271,4.531264 l 0.15625,0.02604 q 1.97918,-6.718771 4.24481,-11.32816 2.26563,-4.635431 4.60939,-7.500024 2.34375,-2.890634 4.66147,-4.166679 2.31772,-1.276046 4.4271,-1.276046 1.45833,0 2.81251,0.546877 1.35417,0.546876 2.39584,1.744797 1.06771,1.19792 1.69271,3.098968 0.625,1.875006 0.625,4.557306 0,0.781252 -0.10417,2.109381 -0.0781,1.302088 -0.20833,2.916676 -0.13021,1.614589 -0.3125,3.437511 -0.15625,1.79688 -0.28646,3.541678 -0.13021,1.744797 -0.23437,3.333343 -0.0781,1.562505 -0.0781,2.734384 0,2.031256 0.15625,3.307302 0.18229,1.276046 0.57292,2.031256 0.39062,0.729169 1.04167,1.015628 0.65104,0.260418 1.58855,0.260418 1.35417,0 2.8125,-0.364585 1.45834,-0.390626 2.94272,-1.067711 l 0.49479,1.354171 q -0.9375,0.75521 -2.36979,1.536463 -1.4323,0.781252 -3.02085,1.432296 -1.5625,0.651044 -3.12501,1.04167 -1.5625,0.416668 -2.76042,0.416668 -1.40626,0 -2.21355,-0.755211 -0.80729,-0.755211 -1.22396,-2.057298 -0.39063,-1.302087 -0.52084,-3.046885 -0.10416,-1.744797 -0.10416,-3.750011 0,-2.447925 0.15625,-5.026058 0.18229,-2.604174 0.39062,-4.947932 0.20834,-2.343757 0.36459,-4.244805 0.18229,-1.927089 0.18229,-3.072926 0,-3.046884 -1.14584,-4.479181 -1.14584,-1.458337 -3.04688,-1.458337 -1.51042,0 -3.1771,1.276045 -1.66667,1.276046 -3.33334,3.515636 -1.64063,2.213549 -3.17709,5.260433 -1.51042,3.020843 -2.73439,6.562521 -1.22396,3.515636 -2.03125,7.369814 -0.8073,3.854179 -1.01563,7.708358 l -5.44273,0.677085 -0.41666,-0.02604 q 0.20833,-2.473966 0.39062,-5.390642 0.18229,-2.916676 0.33854,-5.911477 0.15626,-3.020843 0.26042,-5.96356 0.13021,-2.96876 0.20834,-5.520851 0.10416,-2.578133 0.1302,-4.609389 0.0521,-2.031257 0.0521,-3.203135 z"
     id="text1"
     style="font-size:106.667px;font-family:Gabriola;-inkscape-font-specification:'Gabriola, Normal';white-space:pre"
     transform="matrix(1.7155211,0,0,2.7564665,-136.61366,-41.041138)"
     aria-label="Ticket Penguin" />
</svg>
